<?xml version="1.0" encoding="UTF-8"?>
<svg width="32px" height="32px" viewBox="0 0 32 32" version="1.1" xmlns="http://www.w3.org/2000/svg" xmlns:xlink="http://www.w3.org/1999/xlink">
    <title>appstore</title>
    <g id="appstore" stroke="none" stroke-width="1" fill="none" fill-rule="evenodd">
        <path d="M22.568965,7.01829338 C25.265806,7.24071714 27.291886,8.32714721 28.639321,10.2844818 C26.227411,11.7779575 25.034281,13.8697231 25.058041,16.5531563 C25.079803,18.6433215 25.82179,20.3826747 27.280006,21.7637383 C27.940858,22.4047138 28.678876,22.9001109 29.5,23.2519438 C29.321935,23.7796794 29.133961,24.285203 28.934134,24.7704737 C28.449376,25.9149309 27.875572,26.9683879 27.210778,27.9369701 C26.304577,29.25733 25.56259,30.1712789 24.990784,30.6788443 C24.104374,31.5118918 23.154622,31.9385558 22.13764,31.9628096 C21.407533,31.9628096 20.527036,31.7504848 19.502143,31.3197923 C18.473848,30.8911416 17.528875,30.6788167 16.664821,30.6788167 C15.75862,30.6788167 14.786701,30.8911416 13.747174,31.3197923 C12.706027,31.7505124 11.867299,31.9749504 11.226022,31.99719 C10.250782,32.039655 9.278701,31.6008502 8.308402,30.6788167 C7.689076,30.1267996 6.914473,29.1804847 5.986483,27.8398994 C4.990858,26.4082862 4.172326,24.7482064 3.531049,22.8555765 C2.844277,20.8113529 2.5,18.8317788 2.5,16.9153088 C2.5,14.7199883 2.964184,12.8265582 3.893929,11.2398747 C4.62463,9.96540121 5.596711,8.96003812 6.813358,8.2220195 C8.029978,7.48397328 9.344581,7.10785888 10.760272,7.08382575 C11.534902,7.08382575 12.550696,7.32868227 13.813054,7.80992438 C15.071848,8.29279446 15.880093,8.53765097 16.234468,8.53765097 C16.499392,8.53765097 17.397304,8.25132282 18.919429,7.6805152 C20.35888,7.15115164 21.573718,6.93192862 22.568965,7.01829338 Z M22.524323,0 L22.5886771,0.00471041012 C22.727844,0.0145185801 22.8988593,0.0242943471 23.101723,0.0340377113 C23.101723,1.6409773 22.541723,3.14138842 21.4255437,4.53015577 C20.1792474,6.0577306 18.6912984,6.9886196 17.0763344,7 C16.8494444,6.966374 16.6175934,6.94910421 16.3818951,6.94910421 L16.2413491,6.95115543 L16.2413491,6.95115543 L16.102,6.957 L16.1090463,6.69708333 C16.1821093,5.25431642 16.7993191,3.74006728 17.8458971,2.48166364 L17.8798753,2.44107748 C18.4478008,1.75760106 19.1701058,1.18931395 20.0460158,0.735972566 C20.9200413,0.289397471 21.7467719,0.0424279101 22.524323,0 Z" fill="#FFC400" fill-rule="nonzero"></path>
    </g>
</svg>