<?xml version="1.0" encoding="UTF-8"?>
<svg width="2010px" height="1369px" viewBox="0 0 2010 1369" version="1.1" xmlns="http://www.w3.org/2000/svg" xmlns:xlink="http://www.w3.org/1999/xlink">
    <title>background-rough</title>
    <g id="background-rough" stroke="none" stroke-width="1" fill="none" fill-rule="evenodd">
        <polygon id="background-rough-vector" fill="#000000" points="432.572 4.54747351e-13 424.571 0.271 416.57 0.24 408.567 0.045 400.565 0.668 392.562 0.304 384.558 0.831 376.553 0.467 368.55 0.13 360.547 0.457 352.545 0.31 344.543 0.09 336.542 0.345 328.542 0.965 320.541 0.528 312.541 0.344 304.541 0.859 296.542 0.112 288.541 0.911 280.541 0.544 272.54 0.002 264.54 0.572 256.539 0.595 248.537 0.055 240.535 0.223 232.533 0.436 224.53 0.938 216.525 0.634 208.522 0.9 200.519 0.288 192.517 0.437 184.515 0.108 176.514 0.373 168.514 0.265 160.513 0.574 152.514 0.034 144.514 0.491 136.514 0.495 128.515 0.63 120.516 0.524 112.517 0.457 104.517 0.829 96.518 0.005 88.518 0.849 80.519 0.242 72.518 0.252 64.518 0.062 56.516 0.019 48.515 0.37 40.512 0.907 32.509 0.027 24.505 0.977 16.502 0.324 8.499 0.122 0.844 0.843 0.554 8.509 0.387 16.521 0.344 24.529 0.511 32.539 0.858 40.545 0.177 48.55 0.392 56.554 0.921 64.559 0.254 72.564 0.664 80.572 0.942 88.577 0.754 96.582 0.573 104.586 0.954 112.593 0.636 120.597 0.434 128.599 0.72 136.604 0.616 144.606 0.731 152.608 0.702 160.609 0.343 168.612 0.835 176.611 0.689 184.614 0.811 192.614 0.696 200.613 0.174 208.615 0.617 216.616 0.047 224.621 0.387 232.623 0.221 240.628 0.969 248.629 0.582 256.633 0.123 264.635 0.912 272.637 0.399 280.641 0.2 288.642 0.16 296.644 0.799 304.646 0.19 312.647 0.936 320.649 0.564 328.652 0.052 336.652 0.161 344.653 0.137 352.657 0.973 360.658 0.481 368.658 0.441 376.659 0.005 384.662 0.005 392.662 0.342 400.662 0.046 408.662 0.124 416.664 0.97 424.665 0.226 432.665 0.64 440.663 0.026 448.663 0.033 456.664 0.809 464.666 0.397 472.666 0.313 480.664 0.503 488.662 0.728 496.66 0.373 504.661 0.372 512.663 0.383 520.663 0.391 528.66 0.281 536.657 0.216 544.655 0.861 552.653 0.98 560.654 0.097 568.655 0.468 576.654 0.866 584.652 0.437 592.648 0.378 600.645 0.05 608.64 0.388 616.638 0.719 624.638 0.72 632.639 0.569 640.638 0.67 648.635 0.089 656.632 0.252 664.627 0.964 672.622 0.973 680.616 0.742 688.612 0.564 696.61 0.428 704.608 0.034 712.609 0.535 720.608 0 728.605 0.135 736.6 0.905 744.595 0.1 752.595 0.692 760.595 0.823 768.595 0.299 776.595 0.136 784.594 0.266 792.593 0.735 800.593 0.123 808.593 0.154 816.593 0.614 824.593 0.974 832.592 0.339 840.591 0.435 848.589 0.639 856.589 0.788 864.59 0.819 872.589 0.53 880.589 0.378 888.588 0.826 896.586 0.352 904.585 0.028 912.584 0.42 920.584 0.887 928.585 0.434 936.584 0.926 944.582 0.013 952.582 0.207 960.58 0.045 968.578 0.327 976.576 0.769 984.577 0.793 992.577 0.014 1000.577 0.808 1008.575 0.375 1016.574 0.865 1024.572 0.179 1032.57 0.181 1040.567 0.222 1048.566 0.906 1056.565 0.955 1064.565 0.973 1072.565 0.343 1080.564 0.378 1088.563 0.498 1096.561 0.383 1104.559 0.587 1112.557 0.616 1120.554 0.11 1128.552 0.996 1136.55 0.411 1144.549 0.94 1152.549 0.029 1160.549 0.053 1168.548 0.217 1176.546 0.523 1184.544 0.285 1192.541 0.538 1200.538 0.633 1208.536 0.021 1216.533 0.756 1224.53 0.883 1232.529 0.644 1240.528 0.535 1248.527 0.095 1256.527 0.545 1264.526 0.968 1272.524 0.898 1280.522 0.673 1288.518 0.273 1296.516 0.611 1304.512 0.843 1312.509 0.205 1320.506 0.311 1328.503 0.977 1336.501 0.073 1344.498 0.208 1352.497 0.336 1360.498 0.47 1368.524 8.515 1368.229 16.533 1368.049 24.544 1368.575 32.559 1368.084 40.571 1368.446 48.581 1368.967 56.591 1368.225 64.6 1368.094 72.611 1368.524 80.623 1368.697 88.633 1368.434 96.643 1368.831 104.653 1368.996 112.663 1368.791 120.673 1368.38 128.681 1368.838 136.69 1368.415 144.697 1368.739 152.704 1368.772 160.711 1368.885 168.719 1368.201 176.724 1368.217 184.731 1368.11 192.736 1368.505 200.739 1368.364 208.746 1368.424 216.754 1368.739 224.763 1368.694 232.77 1368.076 240.779 1368.319 248.787 1368.926 256.795 1368.912 264.802 1368.557 272.809 1368.137 280.818 1368.674 288.824 1368.932 296.831 1368.241 304.839 1368.984 312.844 1368.486 320.852 1368.671 328.859 1368.695 336.865 1368.906 344.871 1368.802 352.88 1368.557 360.885 1368.26 368.891 1368.23 376.896 1368.337 384.904 1368.56 392.91 1368.885 400.914 1368.544 408.92 1368.027 416.926 1368.467 424.933 1368.106 432.937 1368.163 440.941 1368.794 448.946 1368.489 456.952 1368.671 464.959 1368.405 472.963 1368.877 480.967 1368.8 488.97 1368.747 496.974 1368.546 504.98 1368.923 512.986 1368.112 520.991 1368.192 528.994 1368.774 536.995 1368.559 544.998 1368.851 553.002 1368.867 561.007 1368.002 569.014 1368.678 577.017 1368.063 585.02 1368.447 593.021 1368.877 601.022 1368.142 609.024 1368.613 617.026 1368.702 625.031 1368.833 633.037 1368.134 641.042 1368.798 649.044 1368.712 657.046 1368.522 665.046 1368.865 673.046 1368.943 681.046 1368.004 689.046 1368.477 697.049 1368.865 705.052 1368.089 713.059 1368.054 721.062 1368.353 729.064 1368.572 737.064 1368.363 745.069 1368.137 753.075 1368.573 761.08 1368.438 769.085 1368.121 777.089 1368.994 785.094 1368.743 793.098 1368.272 801.103 1368.468 809.109 1368.282 817.114 1368.668 825.118 1368.035 833.122 1368.227 841.126 1368.275 849.13 1368.307 857.135 1368.818 865.141 1368.977 873.146 1368.786 881.15 1368.536 889.154 1368.198 897.157 1368.238 905.161 1368.775 913.166 1368.031 921.171 1368.72 929.177 1368.396 937.181 1368.621 945.185 1368.132 953.188 1368.699 961.192 1368.471 969.195 1368.522 977.199 1368.04 985.204 1368.077 993.209 1368.314 1001.214 1368.977 1009.218 1368.161 1017.221 1368.541 1025.225 1368.328 1033.228 1368.856 1041.23 1368.983 1049.234 1368.636 1057.239 1368.317 1065.243 1368.976 1073.249 1368.282 1081.252 1368.074 1089.256 1368.531 1097.26 1368.705 1105.263 1368.046 1113.265 1368.973 1121.268 1368.535 1129.271 1368.511 1137.274 1368.928 1145.278 1368.24 1153.283 1368.973 1161.288 1368.98 1169.292 1368.587 1177.296 1368.806 1185.299 1368.813 1193.301 1368.211 1201.303 1368.758 1209.305 1368.953 1217.308 1368.202 1225.311 1368.113 1233.314 1368.396 1241.317 1368.427 1249.322 1368.49 1257.327 1368.533 1265.331 1368.731 1273.335 1368.584 1281.337 1368.528 1289.34 1368.702 1297.342 1368.587 1305.343 1368.256 1313.345 1368.837 1321.347 1368.972 1329.349 1368.804 1337.352 1368.589 1345.356 1368.746 1353.359 1368.29 1361.364 1368.104 1369.369 1368.534 1377.372 1368.081 1385.375 1368.407 1393.377 1368.255 1401.379 1368.253 1409.381 1368.5 1417.382 1368.268 1425.383 1368.863 1433.385 1368.12 1441.386 1368.085 1449.387 1368.562 1457.39 1368.64 1465.392 1368.562 1473.396 1368.259 1481.4 1368.902 1489.405 1368.509 1497.409 1368.437 1505.412 1368.64 1513.414 1368.597 1521.416 1368.355 1529.417 1368.197 1537.418 1368.922 1545.419 1368.487 1553.42 1368.805 1561.42 1368.521 1569.421 1368.375 1577.422 1368.82 1585.423 1368.845 1593.425 1368.659 1601.427 1368.052 1609.43 1368.62 1617.433 1368.645 1625.437 1368.206 1633.441 1368.31 1641.445 1368.533 1649.448 1368.423 1657.449 1368.509 1665.451 1368.726 1673.452 1368.608 1681.453 1368.688 1689.453 1368.439 1697.454 1368.015 1705.454 1368.991 1713.454 1368.722 1721.454 1368.746 1729.454 1368.022 1737.454 1368.991 1745.455 1368.621 1753.456 1368.706 1761.457 1368.412 1769.459 1368.495 1777.462 1368.768 1785.466 1368.297 1793.469 1368.12 1801.473 1368.195 1809.476 1368.046 1817.478 1368.596 1825.479 1368.184 1833.48 1368.605 1841.482 1368.678 1849.482 1368.643 1857.481 1368.032 1865.481 1368.314 1873.48 1368.992 1881.479 1368.479 1889.478 1368.826 1897.478 1368.48 1905.477 1368.988 1913.477 1368.563 1921.476 1368.961 1929.476 1368.003 1937.476 1368.048 1945.477 1368.32 1953.478 1368.307 1961.48 1368.347 1969.483 1368.6 1977.486 1368.004 1985.49 1368.281 1993.493 1368.514 2001.495 1368.132 2009.579 1368.579 2009.044 1360.487 2009.151 1352.472 2009.961 1344.464 2009.304 1336.455 2009.754 1328.448 2009.462 1320.443 2009.974 1312.439 2009.756 1304.435 2009.358 1296.429 2009.602 1288.422 2009.487 1280.416 2009.245 1272.412 2009.442 1264.407 2009.146 1256.401 2009.337 1248.396 2009.515 1240.394 2009.416 1232.39 2009.167 1224.388 2009.151 1216.385 2009.064 1208.384 2009.124 1200.381 2009.726 1192.382 2009.103 1184.379 2009.112 1176.379 2009.192 1168.381 2009.872 1160.379 2009.851 1152.376 2009.993 1144.372 2009.665 1136.37 2009.115 1128.366 2009.53 1120.364 2009.192 1112.36 2009.051 1104.358 2009.825 1096.356 2009.123 1088.353 2009.744 1080.352 2009.36 1072.349 2009.556 1064.347 2009.064 1056.346 2009.209 1048.344 2009.229 1040.341 2009.739 1032.341 2009.409 1024.34 2009.95 1016.337 2009.727 1008.336 2009.716 1000.336 2009.425 992.335 2009.925 984.332 2009.94 976.331 2009.595 968.332 2009.94 960.331 2009.718 952.33 2009.922 944.328 2009.89 936.328 2009.296 928.33 2009.025 920.33 2009.108 912.329 2009.408 904.327 2009.248 896.328 2009.313 888.33 2009.787 880.331 2009.354 872.333 2009.654 864.332 2009.872 856.33 2009.721 848.331 2009.136 840.334 2009.303 832.336 2009.972 824.339 2009.514 816.34 2009.82 808.339 2009.716 800.338 2009.368 792.339 2009.811 784.342 2009.709 776.345 2009.275 768.349 2009.829 760.353 2009.939 752.356 2009.03 744.356 2009.513 736.355 2009.958 728.356 2009.061 720.358 2009.174 712.362 2009.921 704.367 2009.98 696.371 2009.46 688.378 2009.472 680.381 2009.095 672.384 2009.748 664.385 2009.032 656.384 2009.978 648.385 2009.596 640.389 2009.665 632.393 2009.581 624.398 2009.216 616.398 2009.343 608.398 2009.753 600.398 2009.023 592.399 2009.369 584.4 2009.89 576.4 2009.577 568.4 2009.078 560.4 2009.881 552.4 2009.432 544.401 2009.262 536.402 2009.549 528.403 2009.926 520.404 2009.889 512.404 2009.292 504.403 2009.793 496.403 2009.728 488.405 2009.897 480.406 2009.341 472.407 2009.448 464.408 2009.202 456.41 2009.064 448.41 2009.833 440.409 2009.053 432.409 2009.867 424.411 2009.332 416.412 2009.455 408.414 2009.61 400.415 2009.515 392.417 2009.78 384.417 2009.349 376.417 2009.713 368.417 2009.604 360.418 2009.719 352.419 2009.203 344.422 2009.33 336.424 2009.838 328.426 2009.432 320.428 2009.93 312.429 2009.819 304.429 2009.904 296.428 2009.376 288.429 2009.205 280.43 2009.294 272.433 2009.836 264.434 2009.214 256.437 2009.53 248.44 2009.908 240.441 2009.979 232.444 2009.524 224.445 2009.083 216.445 2009.181 208.444 2009.01 200.445 2009.495 192.448 2009.037 184.45 2009.924 176.452 2009.002 168.456 2009.497 160.457 2009.595 152.461 2009.896 144.464 2009.98 136.464 2009.838 128.466 2009.448 120.467 2009.756 112.467 2009.954 104.467 2009.561 96.469 2009.871 88.472 2009.421 80.474 2009.888 72.478 2009.635 64.481 2009.183 56.485 2009.413 48.487 2009.58 40.49 2009.362 32.493 2009.789 24.495 2009.3 16.496 2009.918 8.496 2009.406 0.589 2001.48 0.478 1993.462 0.182 1985.45 0.511 1977.436 0.993 1969.424 0.523 1961.414 0.253 1953.405 0.036 1945.395 0.499 1937.385 0.859 1929.373 0.795 1921.362 0.656 1913.352 0.258 1905.342 0.09 1897.331 0.643 1889.322 0.625 1881.314 0.027 1873.305 0.172 1865.297 0.804 1857.29 0.761 1849.284 0.691 1841.276 0.31 1833.272 0.51 1825.264 0.099 1817.259 0.637 1809.256 0.724 1801.249 0.553 1793.241 0.86 1785.232 0.129 1777.225 0.103 1769.215 0.762 1761.209 0.311 1753.2 0.37 1745.193 0.991 1737.186 0.057 1729.178 0.522 1721.171 0.402 1713.163 0.917 1705.157 0.976 1697.15 0.555 1689.143 0.489 1681.136 0.544 1673.13 0.08 1665.124 0.132 1657.116 0.145 1649.109 0.596 1641.105 0.155 1633.098 0.287 1625.09 0.473 1617.084 0.876 1609.08 0.592 1601.075 0.057 1593.068 0.96 1585.062 0.138 1577.057 0.883 1569.053 0.725 1561.049 0.38 1553.042 0.091 1545.036 0.605 1537.031 0.672 1529.028 0.979 1521.025 0.329 1513.021 0.837 1505.015 0.325 1497.008 0.58 1489.004 0.467 1481.001 0.374 1472.999 0.283 1464.996 0.781 1456.993 0.245 1448.988 0.687 1440.982 0.118 1432.977 0.877 1424.975 0.904 1416.973 0.987 1408.972 0.896 1400.971 0.699 1392.968 0.62 1384.964 0.361 1376.957 0.945 1368.953 0.988 1360.951 0.234 1352.95 0.314 1344.95 0.896 1336.95 0.492 1328.949 0.117 1320.948 0.693 1312.947 0.548 1304.943 0.414 1296.937 0.413 1288.933 0.343 1280.931 0.564 1272.93 0.396 1264.925 0.446 1256.921 0.441 1248.914 0.544 1240.91 0.671 1232.905 0.592 1224.901 0.888 1216.897 0.499 1208.892 0.552 1200.886 0.371 1192.881 0.682 1184.877 0.269 1176.873 0.913 1168.869 0.056 1160.865 0.67 1152.86 0.899 1144.854 0.807 1136.849 0.586 1128.844 0.581 1120.841 0.511 1112.837 0.907 1104.833 0.038 1096.829 0.769 1088.824 0.721 1080.819 0.884 1072.814 0.474 1064.81 0.535 1056.807 0.095 1048.803 0.41 1040.8 0.414 1032.796 0.468 1024.791 0.717 1016.785 0.94 1008.781 0.734 1000.777 0.695 992.773 0.364 984.771 0.9 976.767 0.266 968.764 0.447 960.76 0.346 952.757 0.487 944.752 0.882 936.747 0.856 928.742 0.524 920.738 0.687 912.736 0.329 904.733 0.373 896.73 0.552 888.727 0.697 880.724 0.633 872.721 0.733 864.717 0.866 856.711 0.408 848.707 0.301 840.702 0.854 832.699 0.437 824.697 0.076 816.694 0.154 808.692 0.598 800.689 0.865 792.687 0.885 784.684 0.036 776.681 0.773 768.677 0.782 760.672 0.509 752.668 0.193 744.663 0.309 736.66 0.153 728.658 0.365 720.656 0.614 712.653 0.994 704.652 0.465 696.65 0.696 688.648 0.085 680.645 0.692 672.642 0.364 664.64 0.138 656.636 0.277 648.63 0.44 640.626 0.746 632.623 0.946 624.62 0.622 616.617 0.323 608.616 0.859 600.615 0.513 592.613 0.253 584.612 0.558 576.611 0.425 568.609 0.353 560.607 0.822 552.605 0.665 544.602 0.325 536.598 0.194 528.595 0.438 520.59 0.148 512.586 0.878 504.583 0.351 496.581 0.544 488.579 0.589 480.577 0.243 472.576 0.014 464.575 0.971 456.575 0.563 448.574 0.969 440.573 0.636"></polygon>
    </g>
</svg>