<?xml version="1.0" encoding="UTF-8"?>
<svg width="971px" height="206px" viewBox="0 0 971 206" version="1.1" xmlns="http://www.w3.org/2000/svg" xmlns:xlink="http://www.w3.org/1999/xlink">
    <title>darkwebid</title>
    <g id="darkwebid" stroke="none" stroke-width="1" fill="none" fill-rule="evenodd">
        <path d="M883.9198,-3.83693077e-13 C886.7448,2.649 890.2818,4.184 893.5568,6.137 C900.3638,10.198 907.1238,14.337 913.9118,18.43 C917.5028,20.595 921.0648,22.814 924.7228,24.86 C929.6118,27.593 934.3258,30.61 939.1388,33.456 C943.1408,35.822 947.2498,37.988 951.1788,40.521 C956.5098,43.958 962.1498,46.918 967.6578,50.084 C968.6038,50.628 969.5438,51.182 970.6268,51.812 L970.6268,154.197 C968.9548,155.36 966.9558,156.912 964.8068,158.219 C957.4988,162.666 949.9928,166.778 942.8858,171.567 C939.1718,174.07 935.0738,175.999 931.2268,178.314 C925.0938,182.004 919.0468,185.836 912.9198,189.538 C909.2058,191.781 905.3768,193.833 901.6618,196.073 C897.7918,198.407 894.0108,200.885 890.1628,203.255 C888.7168,204.146 887.2458,205.047 885.6768,205.668 C885.383723,205.783769 885.026149,205.851166 884.657731,205.867288 L884.435808,205.870785 C883.916954,205.864479 883.397877,205.756538 883.0258,205.539 C877.9518,202.573 872.3368,200.695 867.4538,197.259 C863.9788,194.813 859.7938,193.349 855.8718,191.564 C855.383709,191.341273 854.767246,191.237603 854.17162,191.249899 L853.918063,191.26226 C853.666651,191.281702 853.422982,191.322364 853.1988,191.384 C851.4708,191.861818 849.725213,192.124893 848.000988,192.15447 L847.570399,192.156989 C844.703075,192.141208 841.904103,191.472485 839.3538,190.064 C834.2908,187.267 831.5078,182.892 830.9868,177.135 C830.8978,176.148 831.0008,175.146 830.9698,174.152 C830.8778,171.219 831.9908,168.538 833.5358,166.278 C835.7268,163.074 838.8878,160.401 842.5778,159.409 C843.815,159.0762 845.11812,158.98308 846.44908,158.994728 L846.949421,159.003743 C848.788243,159.052875 850.6707,159.2682 852.4978,159.299 C853.1108,159.31 858.3788,162.203 859.0178,162.804 C861.6078,165.246 863.6888,167.926 863.9938,171.708 C864.1288,173.378 864.8468,175.003 865.3268,176.75 C869.8668,179.121 874.6378,181.641 879.4378,184.106 C880.7818,184.7965 881.74505,185.1515 882.652175,185.1395 L882.832948,185.132197 C883.67396,185.075196 884.484933,184.696667 885.5298,183.971 C892.4348,179.175 900.0758,175.605 907.1168,171.082 C912.7618,167.456 918.5668,164.083 924.2758,160.584 C928.8778,157.764 933.6588,155.161 938.3008,152.354 C942.8338,149.613 947.4378,146.989 951.8048,144.434 L951.8048,62.29 C944.1958,57.634 936.5448,52.904 928.8418,48.26 C925.1288,46.022 921.2738,44.019 917.5598,41.783 C911.2948,38.012 905.1288,34.074 898.8468,30.332 C894.3278,27.64 889.6558,25.205 885.1198,22.54 C884.580432,22.2229474 884.115346,22.0385042 883.659301,21.9902534 L883.488581,21.9785504 L883.488581,21.9785504 L883.317944,21.9796574 C882.805393,22.0022355 882.283642,22.1983158 881.6598,22.573 C877.1518,25.282 872.4728,27.705 867.9438,30.382 C863.9208,32.761 860.0218,35.346 856.0508,37.815 C848.9278,42.245 841.5308,46.214 834.3668,50.589 C828.3118,54.287 822.2798,58.136 815.8948,61.319 C815.6118,61.46 815.4168,61.776 815.0868,62.105 L815.0868,109.609 C816.6358,111.637 818.4908,113.5 819.6768,115.716 C824.9708,125.608 819.0598,136.649 809.6338,139.331 C808.113241,139.763529 806.592995,140.360945 805.07306,140.441604 L804.833073,140.449946 L804.833073,140.449946 L804.593092,140.449103 C803.633175,140.426565 802.673382,140.169276 801.713714,139.505509 L801.4738,139.331 L801.4738,139.331 C801.271267,139.356867 801.073169,139.373631 800.879188,139.381835 L800.591264,139.387788 C798.02702,139.3848 796.184,137.871 794.2778,136.179 C789.2388,131.707 786.4188,125.624 788.2148,119.483 C789.1818,116.177 790.1868,112.086 794.2318,110.475 C795.9318,109.798 796.0398,108.468 796.0348,106.891 C795.9908,94.456 796.0108,82.02 796.0108,69.584 L796.0108,51.808 C800.0748,49.515 804.3248,47.245 808.4468,44.763 C814.7158,40.987 820.7838,36.871 827.1468,33.263 C832.9578,29.967 838.5898,26.386 844.3628,23.042 C850.9458,19.229 857.6298,15.603 864.0048,11.433 C868.0288,8.802 872.2268,6.427 876.4038,4.037 C878.6268,2.766 880.9768,1.713 882.9208,-3.83693077e-13 L883.9198,-3.83693077e-13 Z M701.640696,46.6853802 L702.259677,46.6904255 C707.199062,46.783345 711.839369,48.1267769 716.1806,49.9397 C721.0396,51.9687 724.7616,55.9487 726.8636,61.0187 C727.5796,62.7487 726.9066,64.6797 727.9026,66.5777 C728.5256,67.7657 727.1526,69.8557 727.1326,71.5457 C727.0836,75.8197 724.9716,79.0417 722.1906,81.9467 C721.4566,82.7117 720.3336,83.0917 719.4686,83.7507 C718.8536,84.2187 718.3696,84.8587 717.5326,85.7297 C718.6846,86.3617 719.3976,86.9067 720.2026,87.1667 C724.2696,88.4807 726.8686,91.6707 729.5316,94.6417 C730.6916,95.9357 731.3866,97.9157 731.6526,99.6797 C732.3246,104.1367 732.6716,108.6437 731.0806,113.0417 C729.5966,117.1457 727.4086,120.5077 723.3596,122.7647 C719.0626,125.1607 714.1856,126.5547 709.3166,127.5127 C705.8366,128.198085 702.36086,128.384156 698.887513,128.405482 L698.019225,128.407575 C695.12509,128.404402 692.232509,128.306184 689.3404,128.306539 L688.47278,128.309796 C687.894375,128.314197 687.315985,128.323315 686.7376,128.3387 C684.82485,128.3892 682.911538,128.417325 680.997881,128.430903 L678.127166,128.441339 C673.342303,128.443809 668.555975,128.379825 663.7716,128.3717 C663.6416,128.3717 663.5116,128.2067 663.2646,128.0397 L663.2646,46.7757 L667.5686,46.7757 C673.7636,46.7757 679.959835,46.8340333 686.154732,46.8394174 L689.871489,46.8354037 C693.588044,46.8232556 697.303933,46.7840333 701.0186,46.6937 L701.640696,46.6853802 L701.640696,46.6853802 Z M35.516,46.8457 C38.301,46.8857 41.087,47.7517 43.849,48.3497 C48.723,49.4067 53.441,51.3317 57.391,54.0937 C65.457,59.7337 69.084,64.2777 72.811,74.9007 C73.866,77.9067 74.617,80.9297 74.696,84.0427 C74.802,88.2267 75.036,92.4067 73.812,96.5747 C71.949,102.9207 69.849,109.0547 64.922,113.8017 C61.671,116.9317 58.748,120.4157 54.534,122.4307 C49.157,125.0027 43.696,126.7657 37.659,127.6197 C31.412,128.5037 25.259,128.1427 19.071,128.3397 C17.6723333,128.3837 16.2730741,128.410317 14.8715432,128.425105 L12.7673333,128.439107 L12.7673333,128.439107 L10.6584568,128.43953 C7.13907407,128.431231 3.595,128.3837 -2.13162821e-14,128.3837 L-2.13162821e-14,46.7757 C11.939,46.7757 23.729,46.6777 35.516,46.8457 Z M390.1917,46.9627 C388.5407,48.4127 387.3857,49.2947 386.3857,50.3257 C376.4257,60.6017 366.4907,70.9027 356.4527,81.2957 C367.8737,96.7167 379.3147,112.1667 391.1577,128.1587 C388.672367,128.3067 386.265144,128.366367 383.893811,128.386441 L382.47498,128.394124 L382.47498,128.394124 L381.062736,128.394645 C377.773607,128.389323 374.521718,128.344612 371.191211,128.394257 L369.7587,128.4217 L369.7587,128.4217 C362.102336,117.942609 354.331097,107.306493 346.396146,96.4457346 L344.0107,93.1807 L344.0107,93.1807 C340.5477,97.1747 337.5647,100.6157 334.4917,104.1607 L334.4917,128.3097 C333.762271,128.357129 333.029006,128.381129 332.29328,128.391752 L331.188018,128.398913 C330.450175,128.398674 329.71056,128.390085 328.970548,128.383199 L327.860406,128.375403 L327.860406,128.375403 L326.7507,128.3777 L326.7507,128.3777 C325.610271,128.387557 324.468557,128.410822 323.327368,128.421519 L322.18642,128.427064 C321.045782,128.426496 319.906271,128.4047 318.7697,128.3357 C317.4037,128.2537 316.4067,127.4007 316.4967,125.7867 C316.5337,125.1257 316.5037,124.4617 316.5037,123.7987 L316.5037,47.0137 L334.5427,47.0137 L334.5427,81.4817 C335.050392,81.5309308 335.488262,81.6345994 335.691994,81.6288461 L335.745926,81.6236736 C335.776978,81.6178183 335.798008,81.6069308 335.8077,81.5897 C337.8537,77.9757 341.2427,75.5877 344.0087,72.6387 C349.7347,66.5327 355.5717,60.5277 361.2617,54.3877 C363.5617,51.9057 365.5967,49.1807 367.4247,46.9627 L390.1917,46.9627 Z M890.629176,73.514804 L892.352956,73.5221444 C895.224511,73.5443667 898.089067,73.6197 900.9474,73.7957 C905.6764,74.0867 910.5134,75.0927 914.9504,77.1847 C921.6334,80.3357 925.7804,85.6497 927.8414,92.5667 C929.9584,99.6727 929.3694,106.7117 926.3354,113.4617 C923.3124,120.1907 917.8634,124.3287 910.9264,126.3087 C907.422611,127.309911 903.853176,128.263888 900.12856,128.404208 L899.469645,128.420368 C899.249458,128.422836 899.028716,128.422332 898.8074,128.4187 C896.2584,128.3767 893.708956,128.358811 891.159289,128.353515 L887.33465,128.353575 C884.784817,128.357992 882.234872,128.369242 879.685039,128.375806 L875.8604,128.3807 L875.8604,128.3807 C875.7004,128.3807 875.5404,128.3507 875.0334,128.3007 L875.0334,73.6457 C880.2582,73.6457 885.45528,73.50962 890.629176,73.514804 Z M148.46,46.9593 C150.405,53.1373 153.52,59.1403 156.063,65.3883 C158.253,70.7683 160.795,76.0393 162.962,81.4463 C166.156,89.4173 169.703,97.2413 173.022,105.1563 C175.446,110.9373 177.828,116.7793 180.618,122.4233 C181.4155,124.036633 181.968479,125.769286 182.739861,127.816903 L182.956,128.3833 L182.956,128.3833 C180.0205,128.3833 177.19175,128.3768 174.416375,128.375812 L172.757128,128.375976 C171.103432,128.376994 169.465108,128.380861 167.830627,128.390172 L166.197,128.401393 L166.197,128.401393 C164.813,128.4113 164.141,127.6153 163.67,126.5483 C162.31,123.4613 160.605,120.4513 159.802,117.2223 C159.269,115.0763 157.646,113.4893 157.526,111.1213 C157.449,109.5953 155.523,109.4363 153.941,109.4453 L146.325328,109.473409 L146.325328,109.473409 L138.709375,109.481175 L138.709375,109.481175 L131.093234,109.479753 L131.093234,109.479753 L123.477,109.4803 L123.477,109.4803 C123.332,109.4803 123.188,109.5783 122.443,109.8503 C120.233625,115.055675 117.891031,120.575722 115.619545,125.928097 L114.651,128.2103 L114.651,128.2103 L96.643,128.2103 C97.498,125.8573 98.063,123.6193 99.087,121.6143 C102.027,115.8633 104.097,109.7403 106.85,103.9203 C110.262,96.7063 112.664,89.0413 116.702,82.1123 C116.915,78.7743 118.999,76.0933 119.959,72.9993 C120.861,70.0943 122.409,67.3843 123.706,64.6033 C126.104,59.4593 127.766,53.9893 130.656,49.0563 C130.938,48.5753 130.694,47.7883 130.694,46.9593 L148.46,46.9593 Z M858.375779,73.6569852 L859.834974,73.6554408 C860.809791,73.6510976 861.788631,73.6393462 862.7714,73.6155 L862.7714,128.2935 L844.1314,128.2935 L844.1314,73.8345 C848.769862,73.5114231 853.521933,73.6475178 858.375779,73.6569852 Z M467.454,46.7494 C468.918,46.783 470.38248,46.7982 471.84712,46.801848 L474.04416,46.799512 C475.50888,46.79332 476.9736,46.779 478.438,46.7634 C480.184,46.7454 480.868,47.5694 481.391,49.2234 C483.243,55.0774 485.437,60.8234 487.297,66.6744 C489.159,72.5324 491.301,78.2994 493.174,84.1354 C494.913,89.5544 496.857,94.8994 498.531,100.6724 C500.973,97.3934 501.059,93.6364 502.269,90.2974 C504.734,83.5004 506.521,76.4814 508.787,69.6114 C511.248,62.1514 513.283,54.5524 515.537,46.9004 L534.245,46.9004 C532.577,52.3274 531.261,57.8174 529.192,63.0104 C527.089,68.2904 525.631,73.7774 523.388,79.0194 C521.099,84.3704 519.599,90.0554 517.744,95.5904 C515.937,100.9794 514.097,106.3574 512.307,111.7514 C510.739875,116.47815 509.207203,121.21715 507.616535,126.103724 L506.931,128.2074 L506.931,128.2074 L490.821,128.2074 C485.275687,112.178025 479.682035,96.0097828 473.868656,79.2058167 L472.703,75.8364 L472.703,75.8364 C466.355706,92.5281647 461.294612,109.009992 455.300393,125.215184 L454.165,128.2504 L454.165,128.2504 L438.475,128.2504 C429.293,101.2604 420.063,74.1294 410.809,46.9264 L430.043,46.9264 C431.862,52.9914 433.678,59.1984 435.588,65.3774 C437.226,70.6744 438.85,75.9754 440.416,81.2954 C442.24,87.4854 444.369,93.5864 446.379,99.7224 C446.473,100.0094 446.702,100.2534 447.017,100.7534 C448.837,95.5184 450.656,90.4644 452.352,85.3704 C456.383,73.2694 460.384,61.1574 464.318,49.0244 C464.86,47.3544 465.725,46.7104 467.454,46.7494 Z M267.5483,49.8797 C271.9763,51.5487 275.9963,54.3077 278.1793,58.8697 C279.9283,62.5247 281.9073,66.0917 281.6053,70.4097 C281.5123,71.7337 282.7863,73.2967 282.4253,74.4307 C281.4673,77.4377 281.6673,80.5847 280.6573,83.6207 C278.9563,88.7297 275.7213,92.4277 271.5833,95.5107 C269.7313,96.8907 267.6353,97.9467 265.3803,99.3137 C270.756616,108.665174 277.511502,117.282487 283.640023,126.599194 L284.6553,128.1587 L284.6553,128.1587 L263.7183,128.1587 C258.0533,119.8997 252.1243,111.2557 246.2013,102.6217 L231.6943,102.6217 L231.6943,128.1647 L214.7303,128.1647 L214.7303,46.7757 L218.9463,46.7757 C224.674633,46.7757 230.403893,46.8315642 236.13202,46.8383543 L239.568744,46.8357 C243.0053,46.8254778 246.4413,46.7900333 249.8763,46.7067 L250.587194,46.6953933 L250.587194,46.6953933 L251.29557,46.6959858 C256.952513,46.747913 262.367992,47.9273923 267.5483,49.8797 Z M628.08,46.98 L628.08,62.523 L584.331,62.523 L584.331,79.501 L621.969,79.501 L621.969,95.483 L584.419,95.483 L584.419,112.135 C584.39825,112.11225 584.3885,112.104063 584.387563,112.106031 L584.392492,112.116051 C584.410813,112.143609 584.477375,112.220875 584.558,112.279 C584.679,112.367 584.838,112.452 584.98,112.453 C599.274,112.46 613.568,112.46 628.022,112.46 L628.022,128.15 L566.378,128.15 L566.378,46.98 L628.08,46.98 Z M897.127286,87.648476 L896.752519,87.6514563 C895.879858,87.6637942 895.019353,87.7104284 894.162234,87.7201486 L893.795079,87.7218467 C893.672746,87.721521 893.550457,87.7202343 893.428185,87.7177791 L893.0614,87.7067 L893.0614,87.7067 L893.0614,114.4497 C894.679567,114.4497 896.260643,114.541235 897.80979,114.549231 L898.47177,114.547033 C899.351844,114.535922 900.221733,114.489367 901.0824,114.3747 C903.6934,114.0277 906.2394,113.0087 907.8724,110.7397 C909.6144,108.3177 909.7724,105.2577 910.7854,102.5327 C911.3494,101.0117 911.2214,99.0147 909.8934,97.5297 C910.8724,94.8147 908.2584,93.5297 907.3044,91.6687 C906.3214,89.7497 903.9444,89.2107 901.7964,88.3937 C900.306617,87.8269609 898.887056,87.6714845 897.503694,87.650941 L897.127286,87.648476 L897.127286,87.648476 Z M691.911225,94.525825 L689.027075,94.5301434 C686.138163,94.5361375 683.233975,94.5457 680.3056,94.5457 L680.3056,112.4597 C684.493,112.4597 688.62064,112.38662 692.720272,112.385828 L694.767901,112.392129 C696.81349,112.4058 698.8534,112.4436 700.8916,112.5237 C701.236217,112.537296 701.577424,112.545306 701.915095,112.547117 L702.251583,112.54684 C707.05755,112.512606 711.128515,111.16304 714.0946,106.6947 L714.0946,100.6567 C712.3486,98.7277 711.1656,96.6777 709.3886,95.6727 C707.7136,94.7247 705.4166,94.6207 703.3856,94.5907 C699.5686,94.5342 695.75085,94.52295 691.911225,94.525825 Z M26.764568,62.56478 L25.7922862,62.5707 C23.1933244,62.5968689 20.5433333,62.6987 17.81,62.6987 C17.81,79.1177 17.81,95.0097 17.823,110.9007 C17.823,111.0247 18.014,111.1477 18.275,111.4647 C23.571,111.4647 29.034,111.3327 34.484,111.5287 L34.9460055,111.537281 L34.9460055,111.537281 L35.4022274,111.529636 C37.2159592,111.467537 38.8982857,111.032843 40.538,110.4277 C44.233,109.0647 47.908,107.3217 50.371,104.2487 C52.858,101.1467 55.178,97.4697 55.588,93.5787 C56.106,88.6577 56.65,83.4517 54.721,78.6367 C53.076,74.5317 50.888,70.5887 47.335,67.8097 C43.045,64.4557 37.77,63.2967 32.519,62.7947 C30.935,62.6433667 29.3421111,62.5822556 27.7324444,62.5680333 L26.764568,62.56478 L26.764568,62.56478 Z M139.36,68.2053 C135.67,77.1293 132.172,85.5873 128.569,94.3023 L150.102,94.3023 C147.201375,85.8151125 143.898211,77.8702102 140.121646,69.817477 L139.36,68.2053 L139.36,68.2053 Z M244.192827,62.5800901 L243.005756,62.5808948 C240.234957,62.5950254 237.458069,62.6879308 234.6893,62.7127 C232.3033,62.7347 231.6463,63.4447 231.6023,65.9407 C231.5523,68.7487 231.5903,71.5587 231.5903,74.3687 C231.5903,77.3437 231.5543,80.3187 231.6013,83.2927 C231.6423,85.8297 232.2863,86.5517 234.6403,86.5697 C237.4598,86.5917 240.2808,86.6247 243.1013,86.62945 L245.21655,86.6271023 C247.331644,86.6182313 249.446175,86.58795 251.5593,86.5197 C253.5363,86.4567 255.6963,86.0437 257.4143,85.1237 C261.5813,82.8907 264.4593,79.6697 263.5723,74.4157 C263.4643,73.7727 263.5253,73.0937 263.5633,72.4347 C263.7373,69.3987 262.0793,67.4177 259.8383,65.6677 C256.9573,63.4187 253.4323,63.0867 250.1083,62.8107 C248.144069,62.6472385 246.170519,62.5882148 244.192827,62.5800901 Z M693.227875,62.6647156 L690.663975,62.6672 C687.24035,62.6752 683.7946,62.6987 680.3056,62.6987 L680.3056,79.6167 C687.1176,79.6167 693.7546,79.6317 700.3926,79.6107 C703.6026,79.6007 706.1226,77.9347 708.2846,75.8497 C709.3596,74.8127 710.0746,73.3547 710.1246,71.6557 C710.2606,67.0447 706.0986,62.8237 700.8896,62.7287 C699.18935,62.6977 697.48885,62.680325 695.785459,62.6717 L693.227875,62.6647156 L693.227875,62.6647156 Z" id="Combined-Shape" fill="#FFFFFF"></path>
    </g>
</svg>