<?xml version="1.0" encoding="UTF-8"?>
<svg id="Layer_1" xmlns="http://www.w3.org/2000/svg" version="1.1" viewBox="0 0 32 32">
  <!-- Generator: Adobe Illustrator 29.8.3, SVG Export Plug-In . SVG Version: 2.1.1 Build 3)  -->
  <defs>
    <style>
      .st0 {
        fill: #ffc400;
        fill-rule: evenodd;
      }
    </style>
  </defs>
  <g id="linkoutsvg">
    <path id="linkout" class="st0" d="M28.44,28.44H3.56v-14.69C1.58,13.75,0,15.35,0,17.31v11.14c0,1.96,1.59,3.56,3.55,3.56h24.89c1.96,0,3.56-1.59,3.56-3.56h-3.56Z"/>
  </g>
  <g id="linkoutsvg1" data-name="linkoutsvg">
    <path id="linkout1" data-name="linkout" class="st0" d="M0,28.44c0,1.96,1.59,3.56,3.56,3.56h24.89c1.96,0,3.55-1.59,3.55-3.56v-11.14c0-1.96-1.58-3.55-3.55-3.55v3.55s0,11.14,0,11.14H3.56s-3.56,0-3.56,0Z"/>
  </g>
  <polygon class="st0" points="24.8 16.28 22.29 13.77 17.77 18.28 17.77 0 14.23 0 14.23 18.28 9.71 13.77 7.2 16.28 16 25.08 24.8 16.28"/>
</svg>