<?xml version="1.0" encoding="utf-8"?>
<!-- Generator: Adobe Illustrator 25.2.1, SVG Export Plug-In . SVG Version: 6.00 Build 0)  -->
<svg version="1.1" id="Layer_1" xmlns="http://www.w3.org/2000/svg" xmlns:xlink="http://www.w3.org/1999/xlink" x="0px" y="0px"
	 viewBox="0 0 274 252" style="enable-background:new 0 0 274 252;" xml:space="preserve">
<style type="text/css">
	.st0{fill:#FFFFFF;}
	.st1{fill-rule:evenodd;clip-rule:evenodd;fill:#FFFFFF;}
</style>
<g>
	<path class="st0" d="M146.7,146.8c-3.7,3.4-7.7,6.5-12,9.2H108v9.2H73.9v-9.2H47.3c-4.3-2.7-8.3-5.8-12-9.2h5.4h33.2v9.2H108v-9.2
		h33.2H146.7L146.7,146.8z M163.2,125.5c-3.1,5.7-6.8,11-11.1,15.8h-10.9V132H108v9.2H73.9V132H40.6v9.2H29.8
		c-4.3-4.8-8-10.1-11.1-15.8h21.9v-9.2h33.2v9.2H108v-9.2h33.2v9.2H163.2L163.2,125.5z M172.7,92.1c-0.5,7.2-1.9,14.1-4.1,20.7
		h-27.4v-9.2H108v9.2H73.9v-9.2H40.6v9.2H13.3c-2.2-6.6-3.6-13.5-4.1-20.7h31.4v-6.7h33.2v6.7H108v-6.7h33.2v6.7H172.7L172.7,92.1z
		 M9.1,85.4C9.8,40.8,46.2,4.9,91,4.9c44.8,0,81.2,35.9,81.9,80.5h-31.7v-6.5H108v6.5H73.9v-6.5H40.6v6.5H9.1L9.1,85.4z"/>
	<path class="st0" d="M102.1,195.6c-0.3,0.5-1.2,0.1-1.6,0.2c0.3-3.2,0.9-6.7-1.2-9.3c-1.2-1.2-2.8-1.3-4.4-1.8l-12.4-0.1l-0.3,0.6
		L77.2,203l0.1,0.2c4.9-0.1,10.9,1.2,13.6-3.7l1.3-3l1.5,0l0.1,0.3l-4.9,17.7c-0.5,0-1.3,0.2-1.7-0.1c0.5-2.2,1.3-5.4-0.4-7.4
		c-2.7-2.4-7-1.5-10.3-1.6l-6.4,22.4l0.1,0.3c8.9-0.1,20.8,1.8,24.8-8.2c0.7-1.4,1-3.1,1.5-4.6c0.6-0.1,1.3-0.2,2,0l-4.2,14.8
		l-2.4,0.1l-35.5,0c0-0.6,0.3-1.3,0.4-1.8c1.8-0.7,5.4,0.9,5.8-2.1l11.3-40.5c0.1-0.5,0-1-0.6-1.2c-1.5-0.3-3.3,0.2-5-0.2l0.5-1.8
		c11.8-0.1,24.1-0.2,36.4,0L102.1,195.6L102.1,195.6z"/>
	<path class="st0" d="M153.3,187.6c-1,4-2.3,7.9-3.2,11.8l5.1,0.2c-0.2,0.6-0.1,1.8-0.8,1.8l-4.8,0.1c-2.4,8.1-4.7,16.2-6.8,24.4
		c-0.2,0.8-0.2,1.4,0.3,2.1c1.2,0.8,2.8-0.1,3.9-0.6c1-0.6,1.8-1.6,2.9-2.2c0.4,0.3,1,0.5,1.1,1c-2.8,2.7-6,5.2-10,4.2
		c-1.3-0.3-2.8-1.2-3.3-2.4c-1.6-4.1,0.7-7.8,1.4-11.7l3.7-13.4c0.3-0.6-0.2-1.2-0.7-1.3c-1.4-0.1-2.5-0.2-4-0.1
		c0-0.5,0.3-1.2,0.4-1.8l5.2-0.1c1.2-3.3,2-6.9,3.1-10.4C148.9,188.7,151.3,188.5,153.3,187.6L153.3,187.6z"/>
	<path class="st0" d="M132.1,201.6c1.1,3.2-0.4,6.6-1,9.7l-4.4,14.2c-0.1,0.8-0.3,1.7,0.1,2.4c0.3,0.5,1,0.4,1.5,0.3
		c1.5-0.5,2.6-2.1,3.7-3.1l1.1,0.8c-1.5,2.2-3.9,4.3-6.5,4.7c-1.3,0.1-2.8,0-3.8-0.8c-3.9-3.6-0.8-9.1,0.1-13.2
		c1.3-4.5,3.3-8.8,4.1-13.4c0-0.8,0.2-1.7-0.4-2.3c-1.7-1.3-3.8,0.1-5.3,0.8c-4.4,2.7-7.6,7.1-9.2,11.7l-4.8,16.6
		c-1.9,0.2-4.2,0.1-6.2,0.1l7.6-27.8c0.2-0.4-0.3-0.8-0.7-0.9l-3.9-0.1c0.3-0.5,0.3-1.3,0.6-1.8l11.1,0l0.1,0.2
		c-0.5,1.8-1,3.6-1.4,5.3c3.9-4.4,9.6-8.2,15.5-5.9C130.7,199.6,131.6,200.7,132.1,201.6L132.1,201.6z"/>
	<path class="st0" d="M180.8,202c1.1,2.8,0,5.9-1.9,8.2c-0.8,0.9-1.8,2-2.9,2.5l0.2,0.1c4.1-1.4,7.9-3.5,11.4-6
		c0.5-1.5,1.1-3.1,1.3-4.6c-0.7-1.3-2.4-0.6-3.6-0.9l0.5-1.8c3.5-0.1,6.9-0.1,10.3,0c-0.3,1.1-0.8,2.2-0.7,3.3
		c3.3-1.7,6.8-3.7,10.8-3.6c-0.5,2-1.1,4.3-1.9,6.2c-3.5-1.3-7.2,0.1-10.1,1.6l-0.3,0.7l-6.4,22.4l-6.2,0l5.3-19.4l-0.1-0.2
		c-7.8,3.8-16.7,6-25.8,4.9c-0.9,4-1.6,9.1,1.5,12.2c1.9,1.6,5.1,1.4,7.2,0.4c1.9-0.7,3.6-2.2,5.1-3.8l1.2,1
		c-3.3,4.2-8.4,6.4-13.8,5.1c-3.1-0.5-5.9-3-7-6c-2.8-8.1,0.2-17,6.7-22.4c4.5-4.2,11.5-5.7,17.1-2.7
		C179.8,200,180.4,201.1,180.8,202L180.8,202z M173.3,199.9c-2.3-0.8-4.8,0.1-6.5,2c-2.9,3.6-4.5,7.8-5.5,12.2
		c4.1,0.2,8.9-0.1,12-3.4c2-2.3,3-5.6,2-8.6C174.9,201.1,174.1,200.4,173.3,199.9L173.3,199.9z"/>
	<path class="st0" d="M225.8,199.6l14.3,0l0.3,0.4l5.1,22.1l0.1,0.3l0.5-0.5l10.9-21.5c0-0.8,0.9-0.8,1.5-0.7l6.5,0
		c-0.3,0.6-1.3,1-1.7,1.7c-2.1,2.2-3.6,4.7-5,7.2l-12.6,23.1c-2.5,4.6-5.5,9.8-10.5,12.2c-3.3,1.4-7,2.1-10.9,1.6
		c1.1-0.5,2.6-0.9,3.9-1.3c6.2-2.2,10.4-8.4,13-14l-7-26.8c-0.2-0.7-0.7-1.3-1.4-1.6c-1.8-0.2-3.5-0.3-5.3-0.1
		c2.1,3.4,2.1,8,0.5,11.6c-2.1,4.8-7.1,7.7-12.1,8c-1.9,0.2-4-0.4-5.7-1.2c-2.1,0.7-5.1,1.7-5.3,4.4c0.4,1.5,2.3,1.3,3.6,1.5
		c4.7,0.4,9.7-0.4,13.9,1.3c1.8,0.7,3.4,2.7,3.7,4.6c0.7,5-1.5,9.9-6,12.6c-5.4,3-12.6,3-18.5,1c-2.5-0.8-5.3-3-5.6-5.9
		c-0.2-2.8,0.7-5.4,2.8-7.2c1.1-1,2.3-1.7,3.5-2.2c-0.8-1.2-1.8-2.3-1.6-4c0-2.7,2.1-4.7,4.4-5.9l3.3-1.3c-3-2.8-4.3-7.4-3-11.3
		c1.3-4.9,6.1-8.8,11-9.6C219.6,197.4,223.1,198,225.8,199.6L225.8,199.6z M219,199.6c-4,0.3-5.9,4.6-7,7.7c-1,3.3-2.5,8.1,0,11
		c0.9,0.8,2.2,1.2,3.5,1c4.1-0.7,5.5-5.1,6.6-8.3c0.8-3.3,2.2-7.2,0.2-10.3C221.5,199.8,220.2,199.6,219,199.6L219,199.6z
		 M208.2,231.8c-1.8,0.1-4.3-1.5-5.5,0.7c-1.9,2.2-2.2,5.4-1.4,8.1c0.9,2.3,3.1,3.4,5.2,3.8c5.5,0.7,12.2,1,15.4-4.4
		c0.7-1.8,1.2-4-0.1-5.7c-0.9-1.2-2.2-1.7-3.6-1.9L208.2,231.8L208.2,231.8z"/>
	<path class="st1" d="M259.1,236.6h0.6c0.5,0,0.9,0.2,0.9,0.8c0,0.4-0.2,0.9-1,0.9h-0.5V236.6L259.1,236.6z M257.7,241.5h1.4v-2.2
		h0.6l1.2,2.3l1.5-0.2l-1.4-2.4c0.6-0.3,1-0.8,1-1.6c0-1-0.8-1.5-2-1.5h-2.3V241.5L257.7,241.5z M259.7,244.1c2.9,0,5.2-2.4,5.2-5.3
		c0-2.9-2.3-5.3-5.2-5.3c-2.9,0-5.2,2.4-5.2,5.3C254.5,241.7,256.8,244.1,259.7,244.1L259.7,244.1z M259.7,243.3
		c-2.3,0-4.3-2-4.3-4.5c0-2.4,1.9-4.4,4.3-4.4c2.3,0,4.3,2,4.3,4.4C264,241.2,262.1,243.3,259.7,243.3L259.7,243.3z"/>
</g>
</svg>
