<?xml version="1.0" encoding="UTF-8"?>
<svg width="1685px" height="493px" viewBox="0 0 1685 493" version="1.1" xmlns="http://www.w3.org/2000/svg" xmlns:xlink="http://www.w3.org/1999/xlink">
    <title>logotext</title>
    <g id="logotext" stroke="none" stroke-width="1" fill="none" fill-rule="evenodd">
        <g id="carefulclub" fill="#000000">
            <polygon id="Fill-1" points="124.3089 0.082 115.7619 1.083 107.2219 1.512 98.8229 3.12 90.0989 2.953 82.0199 6.037 73.8389 8.501 65.5259 10.76 58.2359 15.378 50.1609 18.521 43.2099 23.615 37.4249 30.047 31.0559 35.682 25.3789 42.026 20.6089 49.073 15.1479 55.727 12.0799 63.755 7.6459 71.182 5.4369 79.495 3.2149 87.783 2.7799 96.379 0.9579 104.787 0.2079 113.363 1.9399 121.787 2.6319 130.186 2.5799 138.773 5.8669 146.71 8.0429 154.86 10.6699 162.915 13.9189 170.783 18.4369 178 24.1129 184.348 28.9289 191.351 34.7349 197.576 42.0909 201.975 49.0119 206.75 55.4699 212.486 63.2079 216.076 71.4729 218.257 79.6799 220.272 87.6509 223.22 95.9359 225.095 104.3969 225.852 112.8269 227.156 121.3409 226.673 129.8719 227.178 138.3349 226.039 146.8919 225.911 155.2169 223.983 163.6399 222.594 171.7929 220.051 179.8709 217.302 187.1969 212.863 194.9029 209.273 201.3309 203.667 208.1229 198.679 214.2899 192.908 219.4219 186.204 225.6399 180.173 229.0279 172.289 232.1819 164.412 235.4539 156.561 237.0879 148.988 228.6059 147.69 219.8299 149.069 211.0829 148.955 202.3439 148.698 193.6059 148.667 184.8659 147.505 176.1269 147.508 167.1429 147.389 164.5679 155.94 160.8099 163.275 154.9679 169.112 147.8459 173.074 140.1919 175.514 132.4529 178.495 124.2159 178.888 115.6829 178.048 107.7189 175.005 100.2599 171.285 92.7779 167.166 87.8659 160.182 83.7879 152.832 79.4949 145.445 77.0919 137.251 75.7859 128.824 75.6009 120.317 74.2639 111.858 75.3359 103.593 75.4609 95.266 77.2179 87.134 80.0009 79.309 82.6849 71.394 88.2419 65.111 94.0599 59.42 99.9839 53.595 107.4899 49.866 115.6739 48.013 124.0189 48.253 132.1009 48.98 140.2979 49.473 147.9989 52.41 154.2039 57.764 160.7969 62.722 163.8129 70.404 167.1299 104.157 175.8249 104.633 184.6969 105.08 193.5629 104.296 202.4219 105.303 211.2789 105.447 220.1379 105.33 228.9979 105.473 238.1499 105.764 236.4379 69.603 234.5879 61.364 231.1979 53.625 226.6319 46.535 221.1999 40.151 216.6379 33.06 209.9479 27.945 204.0079 21.97 197.0719 17.195 189.6779 13.153 182.0489 9.552 173.9079 7.336 166.0379 4.285 157.5919 3.59 149.3229 2.354 141.0789 0.73 132.7099 -5.68434189e-14"></polygon>
            <path d="M409.9042,4.6607 L418.1812,5.3927 L422.2342,12.9997 L424.3612,21.4557 L427.8932,29.3397 L430.9882,37.4017 L434.4582,45.3167 L437.0922,53.5647 L439.9932,61.7087 L443.5182,69.5997 L447.5532,77.2867 L451.3622,85.0627 L452.8962,93.7607 L457.2712,101.3097 L459.8562,109.5827 L463.1972,117.5387 L467.5002,125.1177 L469.1922,133.7437 L472.2762,141.8167 L476.3522,149.4847 L480.4552,157.1467 L483.4142,165.2737 L486.5232,173.3407 L489.4742,181.4707 L492.4222,189.5997 L495.5542,197.6557 L498.5142,205.7887 L501.6602,213.8537 L506.0162,222.0287 L497.0562,220.9067 L488.6642,222.3337 L480.2722,222.3147 L471.8802,221.8467 L463.4902,222.1867 L455.0992,221.4357 L446.7012,221.9467 L438.2972,221.9837 L429.9722,221.5497 L426.7782,213.6647 L424.4362,205.3867 L421.8192,197.2007 L417.9632,189.4597 L414.8122,181.8767 L406.5882,181.5117 L397.9712,180.5817 L389.3502,180.9587 L380.7292,182.2617 L372.1082,180.9197 L363.4892,182.1767 L354.8692,180.6707 L346.2422,181.3307 L337.6052,181.9287 L328.9072,181.2237 L327.0162,189.6437 L322.7152,197.1737 L320.8692,205.5447 L317.9602,213.5617 L314.9212,221.1237 L306.4842,221.3867 L297.6712,222.3897 L288.8582,221.4487 L280.0482,221.7557 L271.2362,221.9287 L262.4162,220.7997 L253.5912,221.7267 L244.5832,221.7937 L248.4962,213.9177 L250.6292,205.5677 L253.0412,197.3277 L257.1772,189.7377 L260.6742,181.9017 L262.9502,173.6087 L265.2032,165.3027 L269.0962,157.6197 L272.3502,149.6927 L275.1702,141.6017 L277.2972,133.2467 L281.9002,125.8307 L283.9882,117.4597 L287.1232,109.4987 L290.8952,101.7677 L293.6162,93.6437 L296.4282,85.5467 L298.6182,77.2197 L302.4352,69.5027 L305.9352,61.6627 L307.7202,53.1737 L310.6292,45.1097 L313.8912,37.1817 L316.9212,29.1647 L320.3212,21.2797 L323.4762,13.2957 L326.9372,5.7847 L334.9212,4.7477 L343.2442,5.3517 L351.5722,6.0647 L359.9032,4.8237 L368.2342,4.7147 L376.5652,5.8197 L384.8942,6.0467 L393.2242,5.0507 L401.5612,4.7057 L409.9042,4.6607 Z M369.3782,49.1027 L367.8932,57.8617 L365.6682,66.1317 L362.2712,74.0517 L360.6622,82.5107 L358.7052,90.8807 L354.9502,98.6627 L351.8002,106.6457 L349.8482,115.0177 L347.8732,123.4107 L344.2632,131.3527 L353.3872,131.5977 L362.4732,131.3727 L371.5622,130.4077 L380.6592,132.0887 L389.7632,131.0807 L398.9032,131.3657 L395.1632,123.4107 L393.8122,114.7257 L390.0462,106.9137 L387.3632,98.7107 L385.0912,90.3727 L381.9512,82.3257 L378.2672,74.4597 L376.4862,65.9727 L373.5872,57.8507 L370.9342,49.7457 L369.3782,49.1027 Z" id="Fill-2"></path>
            <path d="M554.9813,4.3871 L563.6933,4.8961 L572.4133,4.5201 L581.1283,4.8101 L589.8463,5.6991 L598.5703,6.2341 L607.2923,6.0811 L616.0153,6.0661 L624.7363,5.4161 L633.4573,6.0861 L642.1873,5.9811 L650.9223,6.1771 L659.6573,5.6521 L668.5633,5.3631 L677.3283,7.0231 L686.1303,8.0851 L694.6913,10.3891 L702.9533,13.5051 L711.5013,16.2001 L718.5253,21.7241 L726.1353,26.5621 L730.6593,34.3901 L735.4213,41.7811 L739.0793,49.8551 L741.2303,58.5091 L740.6773,67.4201 L741.5373,76.0601 L738.7443,84.2421 L735.3623,91.9971 L731.2373,99.3561 L725.8833,105.9391 L719.5023,111.6321 L711.9953,115.7511 L703.3063,119.0041 L711.4923,122.8411 L718.4453,127.1471 L723.8273,133.2921 L728.0593,140.1491 L731.2143,147.5161 L734.6303,154.9981 L734.6343,163.2191 L735.8723,171.3101 L735.3953,183.0341 L735.6063,190.8031 L736.2693,198.5581 L736.8823,206.2951 L736.2683,214.1941 L738.7743,221.7851 L729.9933,221.9901 L721.2473,221.1151 L712.5023,221.9031 L703.7583,221.1041 L695.0143,222.5481 L686.2623,221.9231 L677.5043,221.9381 L668.7233,221.7481 L666.8193,212.8711 L665.1263,204.0011 L665.4473,194.9411 L663.6383,185.9511 L664.6433,176.8901 L664.0103,169.5981 L664.4053,160.9801 L660.8403,153.1841 L655.6193,146.6941 L647.5853,144.0361 L639.2663,141.8861 L630.6763,141.9341 L622.4783,142.0591 L614.2723,142.7731 L606.0453,142.9991 L597.5303,141.7731 L597.5363,150.9081 L598.6173,159.7481 L598.3193,168.5891 L597.2553,177.4301 L598.6453,186.2681 L597.2363,195.1071 L597.0173,203.9551 L597.3923,212.8081 L598.4433,222.2381 L589.2253,222.3891 L580.6003,221.9191 L571.9753,220.9291 L563.3533,222.1201 L554.7293,222.0071 L546.0973,222.1241 L537.4603,221.8871 L528.5793,221.9051 L528.6423,213.0141 L529.2543,204.3651 L528.2243,195.7121 L527.8913,187.0631 L527.9013,178.4101 L528.8393,169.7601 L528.5943,161.1071 L528.2583,152.4561 L528.4913,143.8011 L528.8483,135.1491 L528.5063,126.4951 L528.7493,117.8391 L528.1223,109.1881 L528.1553,100.5411 L529.3993,91.8871 L528.7633,83.2371 L529.7673,74.5841 L528.6283,65.9261 L528.9573,57.2691 L529.7723,48.6121 L529.3543,39.9571 L528.0663,31.3001 L529.2383,22.6371 L529.0923,13.9671 L528.7133,5.1871 L537.5433,5.1991 L546.2643,4.5681 L554.9813,4.3871 Z M606.4613,51.5331 L598.2833,52.3771 L598.7823,60.9891 L598.7723,70.0171 L597.8353,79.0521 L598.0793,88.0971 L597.5343,97.4351 L606.4493,97.4481 L615.0503,96.3671 L623.6573,96.6651 L632.2713,97.7301 L640.8843,96.3391 L649.4993,97.1991 L657.9973,95.3081 L665.2423,90.3991 L668.6753,82.6481 L670.0153,74.5031 L669.1483,66.2301 L665.2833,58.5491 L657.4193,55.0611 L649.3193,52.8731 L640.8703,52.4251 L632.2743,52.1901 L623.6763,52.3091 L615.0713,52.1451 L606.4613,51.5331 Z" id="Fill-3"></path>
            <polygon id="Fill-4" points="965.2957 146.7218 956.2767 147.5008 947.3957 145.6978 938.5047 147.0638 929.6207 145.8178 920.7317 146.5368 911.8387 146.5138 902.9457 147.5048 894.0527 147.3918 885.1617 145.9688 876.2707 145.7528 867.3707 147.4618 858.4657 146.6158 848.9267 145.9608 850.1917 153.6348 849.1357 162.6698 849.8517 171.4258 858.1747 171.1068 866.7907 171.9518 875.4017 171.2888 884.0077 171.0898 892.6227 171.6728 901.2317 170.8008 909.8457 172.0758 918.4627 172.3908 927.0797 171.2778 935.6977 170.9928 944.3127 171.4068 952.9287 171.9768 961.5527 171.1528 970.1817 172.0548 978.4537 172.0178 977.2967 179.9988 975.3887 188.2278 973.8857 196.5228 973.0477 204.9328 972.8177 213.4468 971.2477 222.2828 962.0787 222.0808 953.4227 222.5038 944.7687 221.8468 936.1127 222.5038 927.4577 222.4748 918.8007 221.5238 910.1447 222.0768 901.4877 222.0978 892.8277 222.5228 884.1737 221.4928 875.5237 222.1228 866.8667 221.1498 858.2137 221.1128 849.5567 220.8368 840.8967 221.7748 832.2357 221.3998 823.5747 222.1308 814.9167 220.9488 806.2577 222.2848 797.5907 220.8118 788.9177 221.0798 780.2007 221.7048 780.9727 213.0138 779.9247 204.3648 779.3017 195.7118 779.5717 187.0638 779.5297 178.4098 780.8247 169.7598 780.9777 161.1068 780.9947 152.4558 779.8097 143.8018 780.9547 135.1488 781.0687 126.4948 780.9027 117.8388 780.8737 109.1878 780.3997 100.5418 780.2107 91.8868 780.5507 83.2378 780.9137 74.5838 780.3487 65.9268 780.7247 57.2698 780.2637 48.6118 780.0467 39.9568 780.5117 31.3008 779.7517 22.6368 779.3367 13.9678 780.2927 5.3458 788.9227 4.8088 797.6047 5.6668 806.2847 4.4158 814.9667 5.9568 823.6477 6.1598 832.3307 5.0478 841.0117 5.2828 849.6957 6.0068 858.3807 5.3788 867.0617 5.8948 875.7377 4.9518 884.4207 5.3448 893.0997 6.1618 901.7827 6.0178 910.4687 5.5958 919.1557 6.0298 927.8427 4.9918 936.5267 4.6798 945.2127 4.8298 953.9057 5.0598 962.6047 5.8178 971.0227 5.5898 971.5207 13.6378 970.7627 21.9748 970.8887 30.3138 970.5187 38.6588 971.9927 47.0108 971.8467 55.9288 962.6087 54.7188 953.9187 54.9078 945.2327 55.5508 936.5397 55.2448 927.8507 55.8248 919.1587 56.0188 910.4627 55.5178 901.7657 56.0618 893.0697 54.6838 884.3757 55.1348 875.6797 55.8838 866.9777 55.4508 858.2687 54.9888 849.1257 54.8608 848.9177 62.8948 849.2567 70.4288 850.1867 77.9738 849.4857 85.6078 858.4497 85.5398 867.3317 85.0988 876.2217 86.4278 885.1067 85.3778 893.9957 86.3588 902.8887 85.0858 911.7817 85.5018 920.6747 86.3358 929.5647 85.9568 938.4567 85.8148 947.3557 85.8278 956.2617 85.2798 964.5627 86.1658 964.8127 93.8598 964.2267 102.1978 964.6917 110.5358 965.6267 118.8818 965.9527 127.2278"></polygon>
            <polygon id="Fill-5" points="1012.551 5.3605 1021.056 5.2825 1029.63 5.4085 1038.201 6.2095 1046.773 6.0985 1055.345 5.1185 1063.919 5.3445 1072.492 4.4615 1081.067 6.2385 1089.643 5.0565 1098.214 4.9445 1106.78 5.8035 1115.355 4.5495 1123.925 4.5965 1132.499 5.9895 1141.076 5.4055 1149.654 5.7325 1158.231 5.5655 1166.806 4.5395 1175.383 5.3225 1183.967 4.9405 1192.556 5.6685 1200.796 5.6595 1200.562 13.6045 1201.765 21.9085 1202.041 30.2145 1200.903 38.5265 1200.866 46.8455 1201.689 55.7175 1192.661 55.6185 1184.181 54.8595 1175.705 54.5965 1167.222 54.4735 1158.744 55.1605 1150.261 56.0405 1141.775 55.6285 1133.289 55.1145 1124.802 54.2185 1116.318 55.1355 1107.833 55.7635 1099.341 55.1995 1090.842 54.9165 1082.886 55.7545 1081.968 62.9535 1082.899 70.7455 1082.086 78.5435 1082.501 86.3465 1082.236 94.2685 1090.879 94.7485 1099.41 93.8885 1107.949 93.4065 1116.483 94.2955 1125.021 93.4395 1133.562 94.0275 1142.104 93.2795 1150.646 93.6565 1159.185 94.2445 1167.726 93.5015 1176.273 93.2295 1184.827 93.3905 1193.511 94.0165 1193.381 102.4895 1192.439 110.8275 1194.194 119.1655 1192.504 127.5115 1193.376 135.8635 1192.732 162.5515 1184.845 162.6125 1176.315 162.4265 1167.776 163.2645 1159.242 164.1305 1150.704 163.9985 1142.163 163.2775 1133.621 162.6755 1125.079 163.8595 1116.54 162.8265 1107.999 162.6565 1099.452 162.9825 1090.898 163.9885 1082.778 163.6465 1082.993 170.0185 1082.024 178.6215 1081.784 187.2215 1082.767 195.8225 1082.547 204.4315 1082.754 213.0465 1082.147 221.4615 1073.615 222.1985 1064.887 221.6945 1056.158 221.8755 1047.432 221.5795 1038.705 221.3465 1029.97 222.3645 1021.228 220.8165 1012.038 222.1155 1013.313 213.0145 1013.049 204.3645 1012.58 195.7125 1012.784 187.0635 1011.727 178.4105 1012.049 169.7595 1011.925 161.1075 1012.878 152.4555 1011.742 143.8015 1011.672 135.1495 1012.388 126.4945 1012.936 117.8395 1012.612 109.1875 1011.756 100.5415 1013.287 91.8865 1012.336 83.2375 1011.74 74.5835 1012.73 65.9265 1013.391 57.2695 1012.001 48.6115 1012.781 39.9565 1013.024 31.3005 1012.329 22.6375 1012.167 13.9665"></polygon>
            <polygon id="Fill-6" points="1303.0095 5.642 1303.4445 13.646 1303.7535 21.996 1304.0195 30.341 1303.5895 38.681 1302.9645 47.03 1304.1215 55.373 1302.9565 63.72 1303.3965 72.071 1302.3905 80.423 1303.1135 88.774 1303.5855 97.122 1303.9915 105.472 1303.6945 113.83 1303.9135 122.193 1303.3125 130.556 1303.1845 139.289 1304.5625 147.945 1308.5405 155.746 1311.5065 164.037 1317.8925 170.187 1325.8965 173.836 1334.4715 175.113 1343.0385 175.558 1351.4825 175.66 1359.9455 174.278 1366.8105 169.164 1372.6015 163.118 1377.1795 155.879 1379.1685 147.535 1380.0775 139.063 1380.5125 130.556 1380.2375 122.207 1379.8935 113.858 1379.8115 105.512 1380.4915 97.172 1380.1815 88.824 1380.8135 80.48 1380.8635 72.133 1380.1105 63.782 1379.8415 55.431 1380.0345 47.08 1379.6925 38.731 1380.8965 30.381 1379.8775 22.024 1380.5055 13.661 1380.4405 5.625 1388.9255 6.14 1397.7225 5.717 1406.5185 5.243 1415.3125 5.14 1424.1075 5.133 1432.9095 4.533 1441.7185 5.371 1450.5565 5.267 1449.7915 13.667 1450.1015 22.038 1450.0085 30.404 1451.4005 38.766 1449.7465 47.135 1450.5005 55.499 1450.3665 63.868 1450.3585 72.24 1449.9375 80.612 1449.7625 88.984 1450.1995 97.354 1451.3665 105.725 1449.7365 114.103 1450.9605 122.487 1450.1745 130.871 1450.5305 139.649 1449.4235 148.36 1448.1665 157.034 1445.4125 165.354 1443.1545 173.797 1439.3895 181.68 1435.0955 189.295 1429.8645 196.327 1423.6595 202.528 1416.8175 208.026 1409.1935 212.361 1401.4855 216.565 1393.2275 219.542 1384.7955 221.984 1376.1755 223.592 1367.4875 224.666 1358.8715 226.655 1350.0575 226.45 1341.2825 225.84 1332.5365 226.787 1323.7935 226.428 1315.2705 224.092 1306.6825 222.82 1297.9365 222.032 1289.7025 219.093 1281.6275 215.834 1274.0155 211.663 1266.7975 206.924 1259.9635 201.664 1253.8805 195.542 1247.4315 189.497 1243.9095 181.422 1239.5635 173.806 1237.7795 165.211 1234.8525 156.945 1233.6885 148.275 1233.1165 139.553 1233.0975 130.821 1232.6105 122.455 1233.5855 114.088 1232.6205 105.725 1233.8555 97.367 1233.2725 89.001 1233.1445 80.64 1232.1655 72.275 1232.7155 63.906 1233.3745 55.537 1233.6725 47.168 1232.2545 38.802 1233.8205 30.434 1232.0995 22.059 1233.1205 13.678 1233.4365 5.82 1241.7345 5.253 1250.5305 4.898 1259.3265 4.647 1268.1205 5.485 1276.9155 4.627 1285.7185 4.603 1294.5425 4.505"></polygon>
            <polygon id="Fill-7" points="1551.3723 5.0968 1542.5563 6.1048 1533.7473 4.8358 1524.9403 5.6148 1516.1313 6.1438 1507.3213 5.7858 1498.6123 5.4008 1499.3653 13.9728 1498.7493 22.6368 1498.1803 31.2998 1499.2013 39.9578 1498.5423 48.6118 1498.0473 57.2698 1498.6283 65.9268 1498.3753 74.5838 1498.2373 83.2378 1499.1303 91.8868 1498.8323 100.5418 1498.1843 109.1878 1497.9363 117.8388 1498.4013 126.4948 1497.8463 135.1498 1499.2383 143.8008 1498.2343 152.4558 1498.6013 161.1068 1498.6873 169.7598 1498.0283 178.4108 1497.5923 187.0628 1499.4153 195.7128 1498.6383 204.3648 1499.4103 213.0138 1498.7003 221.4758 1507.0203 222.6068 1515.5293 222.0918 1524.0313 222.1498 1532.5263 222.5218 1541.0213 221.3348 1549.5173 222.0278 1558.0143 221.0258 1566.5103 221.7178 1575.0033 222.3588 1583.4913 221.7378 1591.9853 222.0178 1600.4713 222.4368 1608.9613 221.9518 1617.4563 220.7688 1625.9503 221.6018 1634.4423 221.9538 1642.9353 220.9708 1651.4263 222.3958 1659.9183 220.8738 1668.4083 221.5718 1677.5083 222.3798 1678.1343 213.2868 1679.4683 204.9288 1681.8573 196.7488 1682.9153 188.3588 1683.8873 179.9548 1684.5023 160.1348 1676.8413 159.8588 1668.5343 160.3638 1660.2323 159.1998 1651.9383 159.4848 1643.6443 158.8558 1635.3493 159.3608 1627.0533 159.1538 1618.7583 159.7428 1610.4663 158.7158 1602.1783 159.5868 1593.8853 159.5938 1585.6003 159.8488 1577.3113 159.6478 1569.0723 159.5438 1568.3853 162.8298 1569.9523 154.0638 1568.3483 145.3038 1569.5013 136.5498 1569.4843 127.7988 1569.8443 119.0438 1569.9253 110.2908 1569.2583 101.5358 1568.2343 92.7868 1569.9113 84.0408 1568.1013 75.2898 1569.3463 66.5458 1569.7283 57.7978 1568.0833 49.0458 1568.9093 40.2948 1569.2253 31.5458 1569.3073 22.7948 1568.9903 14.0468 1568.5333 5.7858 1560.1953 4.6878"></polygon>
            <polygon id="Fill-8" points="123.705 265.2454 115.174 266.7954 106.669 267.4044 98.149 268.0004 89.673 269.1644 81.284 270.9114 72.847 272.7304 65.174 276.7074 56.966 279.4454 49.59 283.9294 43.33 289.9464 35.702 294.1264 30.277 300.8684 24.826 307.4224 18.931 313.6974 14.136 320.8524 10.439 328.6314 7.988 336.8864 4.225 344.6764 2.229 353.0574 1.653 361.6644 1.488 370.2164 -1.42108547e-14 378.7174 0.438 387.1954 1.605 395.5934 3.208 403.8884 5.155 412.0934 7.105 420.3304 9.926 428.3304 14.382 435.5654 17.902 443.3084 22.33 450.6154 28.399 456.6364 35.014 461.9624 40.937 468.0474 48.383 472.1414 54.814 477.9344 62.645 481.3364 70.455 484.7734 78.733 486.8444 87.157 488.0624 95.471 489.5404 103.71 492.0654 112.286 491.1684 120.737 492.1874 129.209 491.0874 137.771 491.8654 146.245 490.9414 154.646 489.5134 162.656 486.4294 170.749 484.0314 178.663 481.1484 186.88 478.7984 194.321 474.6624 201.274 469.7684 208.031 464.6094 213.837 458.4024 219.259 451.8944 224.887 445.4334 227.551 437.2074 232.004 429.9334 233.811 421.6034 237.02 412.7774 228.02 414.4884 219.226 413.8844 210.48 413.5014 201.741 414.0464 193.004 413.8464 184.263 414.0654 175.523 414.0104 166.705 413.3364 164.342 421.4724 159.952 428.4454 154.581 434.7124 147.593 439.1184 139.639 441.0454 131.796 443.3284 123.616 442.6614 115.193 442.6864 107.116 440.3674 98.82 438.0204 92.454 432.2284 87.59 425.3054 81.951 418.8034 79.575 410.5644 77.629 402.3444 76.184 394.0394 74.123 385.7274 75.01 377.2114 73.863 368.8894 75.433 360.7044 77.941 352.8094 80.1 344.9204 83.449 337.4754 86.57 329.6454 92.92 324.1674 99.652 319.4214 107.431 316.8534 115.31 314.9934 123.414 313.7794 131.445 314.7864 139.341 316.1284 147.534 317.4824 153.642 323.0694 159.793 328.3764 162.872 335.9114 166.136 344.0724 175.225 342.6224 184.097 343.4064 192.963 343.5674 201.82 343.2064 210.677 342.7764 219.537 343.4524 228.397 343.4534 237.323 343.4224 235.841 334.9554 233.586 326.8634 230.426 319.0614 225.321 312.3284 220.419 305.6424 216.27 298.1934 209.721 292.8714 202.721 288.2704 196.201 282.9974 188.886 278.8904 181.451 274.8914 173.322 272.6364 165.108 270.9274 156.955 269.1184 148.75 267.4824 140.417 266.7464 132.116 265.1074"></polygon>
            <polygon id="Fill-9" points="268.3135 270.5668 277.2065 270.1238 286.0165 271.2328 294.8265 271.3838 303.6335 269.8398 312.4425 270.5568 321.2585 270.1758 330.0805 270.0738 339.4125 270.1378 338.7295 279.4008 339.2355 288.1498 338.8865 296.8998 339.4675 305.6488 338.2675 314.3998 338.1585 323.1528 338.8465 331.9008 338.0075 340.6438 338.9935 349.3948 339.6415 358.1408 339.0235 366.8908 338.5995 375.6448 338.3955 384.3988 338.4535 393.1528 339.0175 401.9048 339.4835 410.6578 339.1445 415.7218 347.1965 415.9718 355.4865 415.0228 363.7715 416.4378 372.0645 415.1208 380.3525 415.6118 388.6435 416.6368 396.9395 415.8358 405.2345 415.1618 413.5305 415.1338 421.8235 416.2878 430.1185 416.7528 438.4195 415.5748 446.7275 415.4908 454.9275 416.0398 453.4105 445.2498 452.3045 453.6308 450.1875 461.8468 449.0145 470.2258 447.6085 478.5728 447.2685 487.5818 438.2975 487.5398 429.8075 487.4758 421.3155 486.8608 412.8245 487.6648 404.3305 486.7928 395.8395 487.5758 387.3455 487.9668 378.8505 487.6518 370.3595 486.8958 361.8735 487.3968 353.3795 487.0668 344.8905 486.2498 336.3975 486.4978 327.9015 487.9128 319.4045 486.9188 310.9075 486.2298 302.4135 487.1638 293.9175 486.1618 285.4145 486.5068 276.9065 487.0888 268.1785 487.2308 267.8465 478.3688 267.5875 469.7188 269.3105 461.0668 268.0425 452.4178 267.8405 443.7648 269.0555 435.1138 268.6135 426.4618 267.9715 417.8098 268.7315 409.1558 269.1605 400.5038 269.2925 391.8488 268.4885 383.1928 267.6305 374.5418 268.4685 365.8958 268.6755 357.2408 269.1305 348.5918 268.8895 339.9388 267.4895 331.2808 268.6555 322.6238 268.4745 313.9658 267.9925 305.3108 268.4455 296.6548 267.8625 287.9918 267.5495 279.3258"></polygon>
            <polygon id="Fill-10" points="477.315 271.1404 476.628 279.0324 476.459 287.4134 476.207 295.7884 477.54 304.1564 476.275 312.5224 476.439 320.8914 476.801 329.2604 476.148 337.6284 475.998 345.9944 477.786 354.3554 476.887 362.7204 476.148 371.0794 477.625 379.4414 477.691 387.8104 477.123 396.1754 476.94 404.9124 478.084 413.5714 479.838 422.0924 481.029 430.7514 484.027 438.9464 488.135 446.6154 491.157 454.9784 496.89 461.6814 503.643 467.2784 510.202 472.9974 517.756 477.3264 525.258 481.8404 533.821 483.8374 542.041 486.6374 550.516 488.6004 559.111 490.0164 567.699 491.8924 576.429 492.7074 585.197 492.5054 593.975 491.8694 602.683 490.7214 611.386 489.9014 620.203 489.5634 628.455 486.3244 637.224 485.1474 645.208 481.4754 653.282 478.0364 660.224 472.6534 667.765 468.0994 673.662 461.5784 679.119 454.7254 682.825 446.7834 686.492 438.9244 689.705 430.8174 692.98 422.5644 692.806 413.6504 694.285 404.9944 694.118 396.2264 695.122 387.8414 695.364 379.4584 694.703 371.0794 694.095 362.7084 695.352 354.3384 694.03 345.9664 693.632 337.5944 694.503 329.2214 694.833 320.8534 693.581 312.4894 695.345 304.1204 694.513 295.7584 694.466 287.3914 695.259 279.0214 694.102 279.0064 685.63 277.7454 676.821 277.7324 668.018 278.4804 659.223 278.0624 650.429 278.0504 641.633 279.1954 632.837 278.1554 623.443 278.0224 624.601 279.0144 624.771 287.3784 624.233 295.7344 624.173 304.0854 624.052 312.4344 623.973 320.7854 623.596 329.1364 623.875 337.4874 623.981 345.8354 623.65 354.1784 623.869 362.5264 624.498 370.8664 623.393 379.2114 623.137 387.5614 623.457 395.9104 623.556 404.3834 622.172 412.7174 620.801 421.1284 617.276 428.9824 610.911 434.7554 603.897 439.7364 595.435 441.2954 586.949 442.1734 578.219 441.5724 569.877 439.0024 561.958 435.3264 556.555 428.5164 550.989 421.7324 548.224 413.3564 547.76 404.5804 547.52 395.9104 547.371 387.5464 546.794 379.1834 548.018 370.8264 547.27 362.4774 547.133 354.1274 547.519 345.7764 547.436 337.4254 546.978 329.0744 546.677 320.7264 548.057 312.3834 547.227 304.0354 547.834 295.6954 547.292 287.3504 547.016 279.0004 547.67 270.2054 538.421 269.9764 529.629 269.9474 520.826 271.5944 512.032 270.3074 503.238 271.4784 494.441 270.7454 485.645 269.9264"></polygon>
            <path d="M759.0971,269.7401 L767.4351,271.2961 L775.7681,270.1591 L784.0971,271.5921 L792.4341,270.6691 L800.7661,270.8581 L809.1011,271.5711 L817.4411,271.2981 L825.7801,270.1581 L834.1201,269.7701 L842.4561,270.9981 L850.7951,270.4611 L859.1411,270.3821 L867.4921,271.1661 L875.8431,271.3761 L884.1851,270.7981 L892.3941,272.4471 L900.7731,272.5891 L908.6931,275.2621 L916.5641,277.7891 L924.4801,280.3801 L932.1411,283.8831 L937.9111,290.0571 L943.3921,296.2061 L948.2231,302.9061 L951.0581,310.6631 L953.8601,318.5151 L954.4831,326.8551 L952.6851,335.4321 L951.7621,344.1651 L947.1991,351.6471 L942.1161,358.6181 L936.5421,365.5211 L928.5791,369.3981 L920.4961,373.0011 L929.1611,375.3451 L937.0611,379.3821 L943.5441,385.4541 L949.7871,391.4571 L955.4141,398.0861 L958.7591,406.1051 L961.5131,414.3521 L962.7041,423.0651 L961.2631,431.7421 L960.2901,440.4511 L956.9171,448.5321 L952.2481,455.8461 L947.6951,463.3601 L940.8841,468.9011 L933.5971,473.7181 L925.8071,477.6751 L917.4611,480.2601 L909.0481,482.4911 L900.7801,485.9611 L891.9401,486.3241 L883.2031,487.7561 L874.3701,486.9851 L865.5761,487.6431 L856.7811,486.9811 L847.9901,487.9571 L839.2041,486.6671 L830.4111,486.1311 L821.6221,487.2941 L812.8291,487.3611 L804.0321,487.2211 L795.2351,486.4211 L786.4381,487.2041 L777.6441,486.1581 L768.8481,486.4421 L760.0451,486.2981 L751.2351,486.6351 L742.0651,487.3831 L742.4301,478.3681 L742.5881,469.7191 L742.0271,461.0661 L742.1891,452.4181 L741.4851,443.7651 L743.3291,435.1141 L741.9521,426.4611 L741.9971,417.8101 L741.4851,409.1561 L743.3431,400.5031 L742.5361,391.8491 L742.0611,383.1931 L742.2141,374.5421 L741.9891,365.8961 L742.4031,357.2411 L742.5661,348.5921 L742.3571,339.9381 L742.7831,331.2811 L742.9791,322.6241 L742.1431,313.9661 L742.1911,305.3111 L743.2731,296.6551 L742.1171,287.9911 L741.7631,279.3051 L742.8361,271.0461 L750.7601,271.4481 L759.0971,269.7401 Z M844.2641,397.0581 L835.9381,398.1241 L827.6041,397.2321 L819.2661,397.1911 L810.9101,397.9631 L811.7411,406.8531 L810.4591,415.7271 L810.3021,424.6091 L810.6921,433.4921 L810.5061,442.7691 L819.0011,443.1821 L827.0721,441.4741 L835.1441,443.0301 L843.2251,441.8931 L851.3091,443.3261 L859.3941,442.4021 L867.9471,442.0491 L876.5251,440.6151 L883.7941,435.6531 L887.2251,427.7941 L888.0181,419.5231 L887.9961,411.4981 L883.2961,405.0001 L876.5981,400.8111 L869.0221,398.0181 L860.9151,397.2551 L852.5881,398.0441 L844.2641,397.0581 Z M858.5201,314.6691 L850.5931,314.9421 L842.6661,316.0821 L834.7401,316.4701 L826.8061,315.2421 L818.8661,315.7801 L811.1341,315.7611 L810.4131,325.1011 L810.2041,334.6211 L810.9911,344.1481 L810.2191,354.2631 L818.8401,353.5311 L826.7501,354.4221 L834.6621,354.4631 L842.5801,353.6981 L850.5331,352.8611 L858.4281,354.2441 L867.5381,353.7111 L875.3491,349.1351 L882.4251,343.6901 L883.1371,334.6691 L882.5941,325.5851 L875.7491,319.5311 L867.4571,316.2051 L858.5201,314.6691 Z" id="Fill-11"></path>
        </g>
    </g>
</svg>