<?xml version="1.0" encoding="UTF-8"?>
<svg width="1786px" height="523px" viewBox="0 0 1786 523" version="1.1" xmlns="http://www.w3.org/2000/svg" xmlns:xlink="http://www.w3.org/1999/xlink">
    <title>logotext</title>
    <g id="logotext" stroke="none" stroke-width="1" fill-rule="evenodd">
        <g id="carefulclub" transform="translate(-0.000100, 0.000700)" >
            <polygon id="Fill-1" points="140.6674 0 131.7614 0.087 122.7024 1.147 113.6504 1.603 104.7484 3.307 95.5014 3.13 86.9374 6.399 78.2664 9.011 69.4544 11.405 61.7284 16.301 53.1684 19.632 45.8014 25.031 39.6694 31.849 32.9184 37.822 26.9004 44.546 21.8454 52.015 16.0564 59.069 12.8034 67.577 8.1044 75.451 5.7624 84.262 3.4074 93.045 2.9464 102.158 1.0164 111.071 0.2204 120.161 2.0554 129.089 2.7894 137.992 2.7354 147.093 6.2194 155.506 8.5244 164.146 11.3094 172.683 14.7534 181.023 19.5414 188.672 25.5584 195.401 30.6634 202.824 36.8174 209.423 44.6154 214.086 51.9504 219.146 58.7954 225.225 66.9984 229.031 75.7574 231.343 84.4574 233.479 92.9064 236.604 101.6874 238.591 110.6574 239.395 119.5924 240.774 128.6164 240.264 137.6584 240.799 146.6294 239.592 155.6984 239.456 164.5234 237.412 173.4514 235.939 182.0924 233.245 190.6564 230.331 198.4224 225.625 206.5884 221.819 213.4024 215.878 220.6014 210.59 227.1384 204.474 232.5784 197.368 239.1684 190.975 242.7604 182.619 246.1034 174.269 249.5714 165.947 251.3034 157.92 242.3134 156.545 233.0114 158.006 223.7394 157.885 214.4764 157.614 205.2154 157.58 195.9504 156.348 186.6874 156.352 177.1644 156.226 174.4344 165.289 170.4524 173.065 164.2604 179.251 156.7094 183.451 148.5984 186.038 140.3944 189.197 131.6624 189.613 122.6194 188.723 114.1774 185.498 106.2714 181.556 98.3424 177.188 93.1344 169.786 88.8134 161.995 84.2614 154.165 81.7134 145.48 80.3294 136.548 80.1344 127.53 78.7164 118.563 79.8524 109.804 79.9854 100.977 81.8484 92.358 84.7984 84.064 87.6434 75.675 93.5324 69.014 99.6994 62.982 105.9784 56.808 113.9344 52.856 122.6104 50.891 131.4544 51.146 140.0214 51.916 148.7094 52.439 156.8714 55.552 163.4494 61.227 170.4374 66.482 173.6354 74.624 177.1514 110.402 186.3674 110.906 195.7714 111.379 205.1694 110.549 214.5584 111.616 223.9464 111.768 233.3374 111.645 242.7284 111.796 252.4284 112.105 250.6144 73.776 248.6534 65.043 245.0594 56.839 240.2204 49.325 234.4624 42.557 229.6274 35.042 222.5374 29.62 216.2404 23.287 208.8884 18.225 201.0504 13.942 192.9624 10.125 184.3354 7.776 175.9934 4.541 167.0404 3.805 158.2764 2.495 149.5364 0.774"></polygon>
            <path d="M413.133,138.9396 L403.483,140.0086 L393.841,138.2266 L384.207,139.2496 L374.575,139.4876 L364.905,139.2286 L368.731,130.8096 L370.824,121.9146 L372.893,113.0396 L376.233,104.5776 L380.212,96.3296 L382.286,87.4576 L383.992,78.4916 L387.593,70.0966 L389.951,61.3316 L391.526,52.0466 L393.175,52.7286 L395.987,61.3186 L399.06,69.9286 L400.947,78.9236 L404.852,87.2616 L408.18,95.7906 L410.589,104.6286 L413.432,113.3236 L417.424,121.6046 L418.857,130.8106 L422.821,139.2416 L413.133,138.9396 Z M531.738,226.6756 L528.404,218.1276 L525.266,209.5066 L521.947,200.9676 L518.822,192.3506 L515.695,183.7326 L512.4,175.1836 L509.263,166.5686 L504.913,158.4476 L500.593,150.3196 L497.323,141.7626 L495.53,132.6196 L490.97,124.5856 L487.428,116.1536 L484.689,107.3836 L480.051,99.3816 L478.425,90.1636 L474.387,81.9196 L470.112,73.7726 L466.375,65.4086 L463.299,56.7756 L460.508,48.0336 L456.829,39.6446 L453.549,31.0986 L449.805,22.7416 L447.551,13.7796 L443.254,5.7166 L434.482,4.9406 L425.639,4.9876 L416.801,5.3536 L407.972,6.4086 L399.144,6.1686 L390.313,4.9976 L381.483,5.1126 L372.652,6.4286 L363.825,5.6726 L355.003,5.0316 L346.539,6.1306 L342.871,14.0926 L339.528,22.5556 L335.923,30.9136 L332.711,39.4106 L329.254,47.8146 L326.17,56.3616 L324.279,65.3596 L320.57,73.6696 L316.523,81.8496 L314.201,90.6756 L311.22,99.2586 L308.337,107.8696 L304.339,116.0636 L301.015,124.5016 L298.802,133.3746 L293.924,141.2356 L291.668,150.0916 L288.68,158.6676 L285.232,167.0696 L281.105,175.2136 L278.716,184.0186 L276.304,192.8086 L272.597,201.1136 L268.213,209.1596 L265.656,217.8936 L263.396,226.7446 L259.248,235.0916 L268.796,235.0206 L278.151,234.0386 L287.498,235.2346 L296.839,235.0506 L306.178,234.7266 L315.519,235.7226 L324.861,234.6606 L333.804,234.3826 L337.025,226.3656 L340.108,217.8686 L342.065,208.9956 L346.623,201.0136 L348.628,192.0896 L357.847,192.8366 L367.002,192.2036 L376.147,191.5036 L385.283,193.0996 L394.419,191.7666 L403.557,193.1896 L412.695,191.8086 L421.833,191.4086 L430.967,192.3946 L439.684,192.7816 L443.024,200.8186 L447.111,209.0246 L449.885,217.7016 L452.367,226.4766 L455.753,234.8326 L464.576,235.2936 L473.485,235.2536 L482.386,234.7126 L491.28,235.5086 L500.173,235.1476 L509.069,235.6446 L517.963,235.6636 L526.859,234.1516 L536.357,235.3406 L531.738,226.6756 Z" id="Fill-2"></path>
            <path d="M708.7677,87.6032 L705.1287,95.8192 L697.4497,101.0222 L688.4417,103.0272 L679.3107,102.1152 L670.1807,103.5892 L661.0497,102.4602 L651.9267,102.1452 L642.8107,103.2912 L633.3617,103.2772 L633.9387,93.3782 L633.6797,83.7912 L634.6737,74.2142 L634.6837,64.6462 L634.1557,55.5172 L642.8237,54.6232 L651.9507,55.2702 L661.0717,55.4452 L670.1837,55.3182 L679.2947,55.5692 L688.2507,56.0432 L696.8367,58.3622 L705.1717,62.0602 L709.2687,70.2012 L710.1887,78.9702 L708.7677,87.6032 Z M781.0647,218.6642 L780.4137,210.4632 L779.7107,202.2432 L779.4877,194.0082 L779.9947,181.5812 L778.6817,173.0052 L778.6767,164.2912 L775.0557,156.3602 L771.7117,148.5532 L767.2267,141.2842 L761.5217,134.7702 L754.1517,130.2062 L745.4747,126.1392 L754.6847,122.6912 L762.6417,118.3252 L769.4057,112.2902 L775.0807,105.3122 L779.4537,97.5132 L783.0387,89.2922 L785.9977,80.6202 L785.0867,71.4632 L785.6727,62.0172 L783.3927,52.8442 L779.5147,44.2862 L774.4687,36.4512 L769.6727,28.1542 L761.6067,23.0262 L754.1617,17.1712 L745.1007,14.3142 L736.3437,11.0122 L727.2687,8.5702 L717.9397,7.4442 L708.6497,5.6852 L699.2087,5.9912 L689.9507,6.5482 L680.6917,6.3392 L671.4387,6.4512 L662.1937,5.7412 L652.9507,6.4302 L643.7047,6.4452 L634.4587,6.6082 L625.2127,6.0402 L615.9707,5.0982 L606.7337,4.7912 L597.4907,5.1892 L588.2567,4.6492 L579.0177,4.8422 L569.7737,5.5112 L560.4137,5.4982 L560.8157,14.8052 L560.9697,23.9942 L559.7277,33.1772 L561.0927,42.3532 L561.5367,51.5262 L560.6717,60.7032 L560.3237,69.8792 L561.5317,79.0562 L560.4667,88.2282 L561.1407,97.3962 L559.8227,106.5692 L559.7877,115.7342 L560.4517,124.9042 L560.1937,134.0792 L560.5577,143.2522 L560.1787,152.4232 L559.9317,161.5962 L560.2887,170.7672 L560.5467,179.9382 L559.5527,189.1072 L559.5427,198.2792 L559.8957,207.4462 L560.9867,216.6182 L560.3377,225.7862 L560.2717,235.2102 L569.6857,235.1912 L578.8407,235.4412 L587.9897,235.3182 L597.1297,235.4372 L606.2697,234.1752 L615.4127,235.2252 L624.5537,235.7232 L634.3247,235.5632 L633.2097,225.5672 L632.8137,216.1832 L633.0447,206.8062 L634.5387,197.4362 L633.0647,188.0682 L634.1937,178.6972 L634.5097,169.3262 L633.3637,159.9562 L633.3567,150.2742 L642.3817,151.5722 L651.1027,151.3332 L659.8007,150.5772 L668.4907,150.4432 L677.5947,150.3932 L686.4137,152.6722 L694.9287,155.4902 L700.4617,162.3692 L704.2427,170.6312 L703.8237,179.7662 L704.4937,187.4962 L703.4287,197.1002 L705.3467,206.6292 L705.0057,216.2322 L706.7997,225.6342 L708.8187,235.0432 L718.1257,235.2452 L727.4097,235.2292 L736.6857,235.8922 L745.9547,234.3602 L755.2217,235.2072 L764.4927,234.3722 L773.7617,235.3002 L783.0697,235.0822 L780.4137,227.0372 L781.0647,218.6642 Z" id="Fill-3"></path>
            <polygon id="Fill-4" points="1023.173 155.5187 1013.613 156.3437 1004.199 154.4337 994.776 155.8807 985.359 154.5607 975.937 155.3227 966.511 155.2987 957.084 156.3487 947.658 156.2287 938.235 154.7207 928.81 154.4927 919.377 156.3037 909.937 155.4067 899.826 154.7117 901.389 153.2757 901.167 162.8457 900.048 172.4227 900.807 181.7047 909.629 181.3657 918.761 182.2617 927.889 181.5587 937.011 181.3487 946.142 181.9657 955.268 181.0407 964.398 182.3927 973.531 182.7267 982.666 181.5477 991.8 181.2447 1000.932 181.6837 1010.065 182.2887 1019.205 181.4147 1028.352 182.3707 1037.119 182.3307 1035.894 190.7907 1033.87 199.5127 1032.278 208.3057 1031.39 217.2197 1031.146 226.2447 1029.482 235.6097 1019.763 235.3957 1010.587 235.8447 1001.415 235.1487 992.24 235.8447 983.067 235.8137 973.89 234.8057 964.715 235.3927 955.538 235.4147 946.36 235.8647 937.187 234.7737 928.019 235.4407 918.842 234.4097 909.67 234.3697 900.494 234.0777 891.315 235.0717 882.135 234.6747 872.955 235.4497 863.777 234.1957 854.599 235.6127 845.412 234.0507 836.219 234.3347 826.981 234.9977 827.798 225.7857 826.688 216.6177 826.027 207.4467 826.313 198.2787 826.269 189.1067 827.642 179.9377 827.804 170.7667 827.821 161.5967 826.566 152.4227 827.779 143.2527 827.9 134.0787 827.724 124.9037 827.694 115.7337 827.191 106.5697 826.99 97.3957 827.351 88.2277 827.736 79.0557 827.137 69.8787 827.535 60.7027 827.047 51.5267 826.817 42.3517 827.309 33.1777 826.504 23.9947 826.065 14.8047 827.077 5.6657 836.225 5.0967 845.427 6.0067 854.628 4.6807 863.83 6.3137 873.031 6.5287 882.236 5.3497 891.438 5.5997 900.642 6.3667 909.848 5.7017 919.049 6.2477 928.244 5.2487 937.449 5.6657 946.648 6.5317 955.852 6.3787 965.059 5.9317 974.267 6.3907 983.474 5.2907 992.679 4.9597 1001.885 5.1197 1011.1 5.3627 1020.32 6.1657 1029.243 5.9247 1029.771 14.4547 1028.968 23.2917 1029.101 32.1307 1028.709 40.9767 1030.272 49.8297 1030.116 59.2817 1020.324 57.9997 1011.113 58.1997 1001.907 58.8807 992.693 58.5567 983.483 59.1707 974.27 59.3767 965.052 58.8467 955.834 59.4227 946.615 57.9627 937.401 58.4397 928.184 59.2347 918.959 58.7747 909.729 58.2857 900.038 58.1497 899.817 66.6647 900.177 74.6507 901.161 82.6497 900.419 90.7407 909.921 90.6687 919.335 90.2017 928.758 91.6087 938.176 90.4977 947.598 91.5367 957.024 90.1867 966.449 90.6287 975.876 91.5117 985.3 91.1107 994.725 90.9597 1004.157 90.9737 1013.597 90.3927 1022.397 91.3317 1022.66 99.4877 1022.039 108.3247 1022.532 117.1637 1023.524 126.0097 1023.869 134.8557"></polygon>
            <polygon id="Fill-5" points="1073.2618 5.6819 1082.2768 5.5989 1091.3648 5.7329 1100.4488 6.5819 1109.5348 6.4639 1118.6208 5.4259 1127.7098 5.6649 1136.7958 4.7289 1145.8848 6.6129 1154.9748 5.3599 1164.0608 5.2409 1173.1408 6.1519 1182.2298 4.8229 1191.3128 4.8719 1200.4008 6.3489 1209.4918 5.7289 1218.5838 6.0759 1227.6758 5.8989 1236.7658 4.8119 1245.8558 5.6409 1254.9538 5.2369 1264.0598 6.0079 1272.7928 5.9989 1272.5448 14.4199 1273.8208 23.2219 1274.1138 32.0259 1272.9068 40.8369 1272.8668 49.6539 1273.7398 59.0579 1264.1698 58.9529 1255.1818 58.1479 1246.1988 57.8699 1237.2058 57.7389 1228.2188 58.4679 1219.2288 59.4009 1210.2338 58.9629 1201.2388 58.4189 1192.2428 57.4699 1183.2498 58.4409 1174.2558 59.1069 1165.2548 58.5089 1156.2468 58.2089 1147.8138 59.0969 1146.8408 66.7279 1147.8268 74.9869 1146.9658 83.2519 1147.4058 91.5239 1147.1238 99.9199 1156.2858 100.4299 1165.3278 99.5169 1174.3788 99.0069 1183.4248 99.9489 1192.4748 99.0409 1201.5288 99.6659 1210.5818 98.8719 1219.6358 99.2719 1228.6878 99.8949 1237.7398 99.1069 1246.7998 98.8189 1255.8668 98.9899 1265.0718 99.6539 1264.9338 108.6349 1263.9348 117.4719 1265.7948 126.3109 1264.0038 135.1569 1264.9288 144.0089 1264.2448 172.2979 1255.8858 172.3629 1246.8438 172.1649 1237.7928 173.0539 1228.7478 173.9719 1219.6988 173.8309 1210.6448 173.0669 1201.5898 172.4289 1192.5358 173.6839 1183.4858 172.5889 1174.4328 172.4099 1165.3718 172.7539 1156.3058 173.8219 1147.6998 173.4589 1147.9278 180.2129 1146.8998 189.3309 1146.6458 198.4469 1147.6878 207.5639 1147.4538 216.6889 1147.6738 225.8199 1147.0308 234.7399 1137.9878 235.5209 1128.7358 234.9869 1119.4838 235.1779 1110.2338 234.8649 1100.9828 234.6179 1091.7248 235.6979 1082.4588 234.0559 1072.7178 235.4329 1074.0688 225.7859 1073.7898 216.6179 1073.2918 207.4469 1073.5078 198.2789 1072.3888 189.1069 1072.7288 179.9379 1072.5978 170.7669 1073.6088 161.5969 1072.4038 152.4229 1072.3298 143.2529 1073.0888 134.0789 1073.6698 124.9039 1073.3248 115.7339 1072.4178 106.5699 1074.0418 97.3959 1073.0328 88.2279 1072.4028 79.0559 1073.4508 69.8789 1074.1518 60.7029 1072.6788 51.5269 1073.5048 42.3519 1073.7618 33.1779 1073.0268 23.9939 1072.8548 14.8039"></polygon>
            <polygon id="Fill-6" points="1381.1349 5.9802 1381.5969 14.4642 1381.9239 23.3142 1382.2059 32.1602 1381.7499 41.0002 1381.0869 49.8492 1382.3149 58.6922 1381.0789 67.5412 1381.5449 76.3922 1380.4799 85.2442 1381.2459 94.0962 1381.7449 102.9452 1382.1759 111.7962 1381.8619 120.6542 1382.0929 129.5192 1381.4559 138.3832 1381.3209 147.6412 1382.7809 156.8152 1386.9979 165.0832 1390.1409 173.8722 1396.9099 180.3912 1405.3949 184.2582 1414.4839 185.6122 1423.5639 186.0842 1432.5149 186.1922 1441.4859 184.7272 1448.7619 179.3062 1454.8999 172.8972 1459.7519 165.2252 1461.8609 156.3812 1462.8239 147.4012 1463.2839 138.3832 1462.9929 129.5342 1462.6289 120.6842 1462.5419 111.8382 1463.2629 102.9982 1462.9339 94.1492 1463.6039 85.3052 1463.6559 76.4582 1462.8599 67.6052 1462.5739 58.7542 1462.7789 49.9022 1462.4149 41.0532 1463.6929 32.2022 1462.6119 23.3442 1463.2789 14.4792 1463.2089 5.9622 1472.2029 6.5072 1481.5269 6.0602 1490.8499 5.5572 1500.1709 5.4482 1509.4929 5.4402 1518.8239 4.8042 1528.1609 5.6922 1537.5299 5.5822 1536.7179 14.4862 1537.0459 23.3592 1536.9479 32.2272 1538.4239 41.0892 1536.6699 49.9612 1537.4689 58.8272 1537.3269 67.6972 1537.3189 76.5712 1536.8719 85.4452 1536.6869 94.3192 1537.1499 103.1912 1538.3879 112.0642 1536.6589 120.9442 1537.9559 129.8312 1537.1229 138.7182 1537.5009 148.0212 1536.3279 157.2552 1534.9949 166.4492 1532.0759 175.2682 1529.6829 184.2172 1525.6929 192.5732 1521.1409 200.6442 1515.5959 208.0982 1509.0199 214.6702 1501.7669 220.4992 1493.6859 225.0942 1485.5149 229.5492 1476.7629 232.7052 1467.8249 235.2932 1458.6889 236.9992 1449.4789 238.1362 1440.3459 240.2452 1431.0039 240.0272 1421.7029 239.3802 1412.4329 240.3842 1403.1649 240.0042 1394.1319 237.5282 1385.0289 236.1792 1375.7579 235.3452 1367.0309 232.2292 1358.4719 228.7742 1350.4029 224.3532 1342.7519 219.3312 1335.5079 213.7552 1329.0599 207.2662 1322.2249 200.8592 1318.4909 192.2992 1313.8859 184.2262 1311.9929 175.1172 1308.8919 166.3552 1307.6579 157.1652 1307.0519 147.9202 1307.0309 138.6652 1306.5149 129.7972 1307.5489 120.9282 1306.5259 112.0642 1307.8349 103.2052 1307.2169 94.3372 1307.0809 85.4752 1306.0429 76.6082 1306.6259 67.7372 1307.3249 58.8672 1307.6419 49.9962 1306.1379 41.1282 1307.7979 32.2582 1305.9739 23.3812 1307.0559 14.4982 1307.3909 6.1692 1316.1859 5.5682 1325.5099 5.1912 1334.8329 4.9252 1344.1549 5.8132 1353.4769 4.9042 1362.8069 4.8792 1372.1609 4.7752"></polygon>
            <polygon id="Fill-7" points="1644.3901 5.4018 1635.0451 6.4698 1625.7081 5.1258 1616.3721 5.9518 1607.0341 6.5118 1597.6961 6.1328 1588.4661 5.7238 1589.2631 14.8098 1588.6121 23.9938 1588.0091 33.1778 1589.0891 42.3518 1588.3901 51.5268 1587.8671 60.7028 1588.4841 69.8788 1588.2141 79.0558 1588.0681 88.2278 1589.0151 97.3958 1588.6981 106.5698 1588.0111 115.7338 1587.7491 124.9038 1588.2421 134.0788 1587.6541 143.2528 1589.1291 152.4228 1588.0641 161.5968 1588.4541 170.7668 1588.5461 179.9378 1587.8471 189.1068 1587.3861 198.2788 1589.3161 207.4468 1588.4941 216.6178 1589.3121 225.7858 1588.5591 234.7538 1597.3781 235.9538 1606.3961 235.4078 1615.4091 235.4698 1624.4141 235.8628 1633.4171 234.6048 1642.4231 235.3398 1651.4291 234.2778 1660.4341 235.0118 1669.4361 235.6898 1678.4341 235.0328 1687.4381 235.3288 1696.4321 235.7728 1705.4321 235.2588 1714.4361 234.0058 1723.4401 234.8878 1732.4401 235.2608 1741.4421 234.2188 1750.4421 235.7288 1759.4431 234.1158 1768.4421 234.8568 1778.0881 235.7138 1778.7511 226.0748 1780.1661 217.2148 1782.6971 208.5448 1783.8191 199.6528 1784.8491 190.7438 1785.5011 169.7358 1777.3811 169.4438 1768.5761 169.9798 1759.7761 168.7448 1750.9841 169.0468 1742.1941 168.3788 1733.4011 168.9158 1724.6091 168.6968 1715.8161 169.3208 1707.0261 168.2328 1698.2411 169.1538 1689.4511 169.1628 1680.6701 169.4328 1671.8831 169.2198 1663.1501 169.1098 1662.4211 172.5928 1664.0841 163.3018 1662.3831 154.0148 1663.6051 144.7368 1663.5871 135.4608 1663.9691 126.1818 1664.0561 116.9028 1663.3481 107.6238 1662.2631 98.3488 1664.0401 89.0788 1662.1221 79.8028 1663.4401 70.5358 1663.8451 61.2638 1662.1031 51.9868 1662.9781 42.7108 1663.3131 33.4368 1663.4011 24.1618 1663.0641 14.8888 1662.5791 6.1318 1653.7401 4.9688"></polygon>
            <polygon id="Fill-8" points="131.122 281.1483 122.08 282.7913 113.064 283.4373 104.034 284.0693 95.05 285.3023 86.158 287.1533 77.214 289.0823 69.082 293.2973 60.382 296.2013 52.564 300.9533 45.928 307.3313 37.843 311.7613 32.093 318.9083 26.314 325.8553 20.066 332.5063 14.983 340.0893 11.065 348.3363 8.468 357.0853 4.478 365.3423 2.363 374.2253 1.753 383.3483 1.577 392.4133 -2.84217094e-14 401.4243 0.465 410.4103 1.7 419.3113 3.4 428.1043 5.464 436.8013 7.53 445.5333 10.521 454.0123 15.245 461.6813 18.976 469.8893 23.669 477.6333 30.101 484.0153 37.113 489.6613 43.391 496.1103 51.284 500.4503 58.101 506.5903 66.401 510.1953 74.679 513.8383 83.454 516.0343 92.382 517.3253 101.195 518.8913 109.928 521.5693 119.019 520.6173 127.977 521.6973 136.956 520.5323 146.031 521.3563 155.012 520.3763 163.918 518.8623 172.409 515.5943 180.986 513.0533 189.376 509.9963 198.086 507.5063 205.971 503.1213 213.342 497.9353 220.504 492.4663 226.659 485.8863 232.405 478.9893 238.37 472.1413 241.195 463.4203 245.914 455.7113 247.829 446.8813 251.231 437.5263 241.691 439.3403 232.371 438.6993 223.1 438.2933 213.837 438.8703 204.576 438.6593 195.312 438.8923 186.048 438.8323 176.701 438.1203 174.195 446.7423 169.543 454.1333 163.85 460.7763 156.442 465.4463 148.01 467.4893 139.698 469.9093 131.027 469.2013 122.099 469.2293 113.54 466.7703 104.746 464.2833 97.998 458.1443 92.841 450.8043 86.864 443.9133 84.346 435.1813 82.283 426.4673 80.752 417.6643 78.567 408.8543 79.508 399.8283 78.291 391.0073 79.956 382.3313 82.615 373.9633 84.903 365.6003 88.452 357.7083 91.761 349.4103 98.491 343.6043 105.626 338.5733 113.873 335.8513 122.224 333.8803 130.814 332.5933 139.326 333.6593 147.695 335.0833 156.38 336.5173 162.853 342.4403 169.374 348.0653 172.638 356.0523 176.098 364.7023 185.73 363.1653 195.134 363.9963 204.532 364.1673 213.921 363.7833 223.31 363.3293 232.7 364.0453 242.091 364.0463 251.552 364.0133 249.982 355.0393 247.592 346.4603 244.241 338.1913 238.83 331.0543 233.635 323.9683 229.237 316.0723 222.295 310.4303 214.875 305.5543 207.964 299.9643 200.211 295.6113 192.33 291.3733 183.714 288.9833 175.007 287.1723 166.365 285.2533 157.669 283.5203 148.836 282.7403 140.038 281.0023"></polygon>
            <polygon id="Fill-9" points="284.4015 286.7893 293.8275 286.3193 303.1655 287.4953 312.5035 287.6553 321.8395 286.0183 331.1755 286.7793 340.5205 286.3743 349.8715 286.2663 359.7635 286.3343 359.0385 296.1533 359.5755 305.4263 359.2065 314.7013 359.8215 323.9753 358.5485 333.2503 358.4335 342.5283 359.1625 351.8003 358.2745 361.0673 359.3195 370.3433 360.0055 379.6133 359.3505 388.8883 358.9015 398.1673 358.6845 407.4463 358.7465 416.7253 359.3435 426.0013 359.8385 435.2793 360.0495 444.5653 359.6235 453.8573 359.4785 440.6473 368.0135 440.9123 376.8005 439.9073 385.5825 441.4063 394.3725 440.0103 403.1575 440.5313 411.9465 441.6173 420.7395 440.7683 429.5325 440.0533 438.3255 440.0233 447.1155 441.2473 455.9075 441.7403 464.7065 440.4923 473.5115 440.4023 482.2045 440.9843 480.5955 471.9453 479.4225 480.8293 477.1795 489.5383 475.9365 498.4193 474.4465 507.2663 474.0865 516.8153 464.5765 516.7713 455.5775 516.7043 446.5765 516.0523 437.5765 516.9033 428.5735 515.9793 419.5725 516.8103 410.5695 517.2243 401.5655 516.8903 392.5655 516.0883 383.5705 516.6203 374.5675 516.2703 365.5695 515.4043 356.5675 515.6663 347.5615 517.1673 338.5545 516.1133 329.5485 515.3823 320.5455 516.3733 311.5405 515.3113 302.5275 515.6763 293.5085 516.2933 284.2575 516.4443 283.9055 507.0503 283.6315 497.8823 285.4575 488.7103 284.1135 479.5433 283.8995 470.3723 285.1875 461.2023 284.7185 452.0313 284.0385 442.8603 284.8435 433.6873 285.2985 424.5173 285.4395 415.3433 284.5865 406.1683 283.6765 396.9983 284.5655 387.8333 284.7855 378.6603 285.2665 369.4923 285.0115 360.3203 283.5285 351.1433 284.7635 341.9673 284.5715 332.7903 284.0605 323.6173 284.5405 314.4413 283.9225 305.2583 283.5915 296.0733"></polygon>
            <polygon id="Fill-10" points="505.9333 287.3979 505.2063 295.7629 505.0263 304.6459 504.7593 313.5229 506.1713 322.3929 504.8303 331.2599 505.0053 340.1309 505.3893 349.0019 504.6963 357.8729 504.5383 366.7389 506.4333 375.6019 505.4793 384.4689 504.6963 393.3279 506.2613 402.1929 506.3323 411.0619 505.7303 419.9289 505.5353 429.1899 506.7483 438.3679 508.6073 447.3999 509.8713 456.5789 513.0473 465.2649 517.4033 473.3929 520.6063 482.2579 526.6823 489.3619 533.8393 495.2939 540.7933 501.3579 548.8003 505.9459 556.7513 510.7299 565.8283 512.8469 574.5413 515.8149 583.5253 517.8949 592.6343 519.3959 601.7373 521.3849 610.9913 522.2489 620.2843 522.0339 629.5883 521.3619 638.8193 520.1439 648.0433 519.2749 657.3903 518.9169 666.1353 515.4819 675.4323 514.2359 683.8943 510.3419 692.4513 506.6979 699.8093 500.9919 707.8033 496.1649 714.0533 489.2539 719.8383 481.9899 723.7653 473.5719 727.6533 465.2419 731.0583 456.6469 734.5293 447.8999 734.3463 438.4519 735.9133 429.2779 735.7353 419.9819 736.8013 411.0959 737.0573 402.2089 736.3563 393.3279 735.7123 384.4559 737.0443 375.5839 735.6423 366.7099 735.2213 357.8359 736.1433 348.9619 736.4943 340.0909 735.1663 331.2249 737.0373 322.3539 736.1543 313.4909 736.1043 304.6229 736.9453 295.7509 735.7183 295.7349 726.7383 294.3989 717.4013 294.3839 708.0713 295.1779 698.7493 294.7339 689.4283 294.7219 680.1043 295.9349 670.7803 294.8319 660.8223 294.6919 662.0513 295.7439 662.2313 304.6079 661.6603 313.4659 661.5983 322.3169 661.4683 331.1669 661.3853 340.0179 660.9843 348.8709 661.2813 357.7219 661.3943 366.5699 661.0423 375.4139 661.2753 384.2619 661.9423 393.1029 660.7713 401.9479 660.4983 410.7989 660.8373 419.6479 660.9423 428.6299 659.4763 437.4629 658.0233 446.3779 654.2863 454.7029 647.5403 460.8229 640.1063 466.1019 631.1363 467.7539 622.1403 468.6849 612.8863 468.0479 604.0463 465.3229 595.6513 461.4269 589.9243 454.2079 584.0243 447.0179 581.0953 438.1409 580.6023 428.8379 580.3493 419.6479 580.1893 410.7829 579.5793 401.9179 580.8763 393.0609 580.0833 384.2099 579.9383 375.3599 580.3483 366.5089 580.2593 357.6569 579.7733 348.8049 579.4543 339.9569 580.9173 331.1139 580.0383 322.2649 580.6823 313.4239 580.1063 304.5789 579.8123 295.7279 580.5073 286.4059 570.7043 286.1629 561.3853 286.1319 552.0543 287.8779 542.7313 286.5139 533.4113 287.7559 524.0873 286.9789 514.7643 286.1109"></polygon>
            <path d="M940.4211,453.444 L936.7841,461.773 L929.0791,467.034 L919.9871,468.553 L910.9221,468.928 L902.3531,469.906 L893.7821,468.388 L885.2181,469.593 L876.6611,467.944 L868.1071,469.754 L859.1021,469.316 L859.2991,459.483 L858.8861,450.068 L859.0521,440.653 L860.4111,431.247 L859.5301,421.824 L868.3871,421.006 L877.2261,421.048 L886.0591,421.994 L894.8841,420.865 L903.7081,421.909 L912.5341,421.074 L921.1271,421.882 L929.1571,424.843 L936.2561,429.282 L941.2391,436.17 L941.2621,444.676 L940.4211,453.444 Z M858.7811,354.684 L859.0041,344.593 L859.7681,334.694 L867.9641,334.713 L876.3791,334.143 L884.7891,335.445 L893.1911,335.033 L901.5931,333.826 L909.9951,333.536 L919.4691,335.164 L928.2571,338.689 L935.5121,345.106 L936.0881,354.736 L935.3331,364.296 L927.8321,370.068 L919.5531,374.918 L909.8981,375.484 L901.5291,374.018 L893.1001,374.905 L884.7061,375.715 L876.3201,375.673 L867.9361,374.728 L858.7981,375.504 L859.6161,364.782 L858.7811,354.684 Z M1019.1631,439.196 L1016.2441,430.454 L1012.6981,421.954 L1006.7341,414.927 L1000.1171,408.565 L993.2451,402.129 L984.8711,397.85 L975.6871,395.365 L984.2551,391.546 L992.6951,387.437 L998.6031,380.12 L1003.9911,372.73 L1008.8271,364.8 L1009.8071,355.543 L1011.7121,346.452 L1011.0521,337.612 L1008.0811,329.289 L1005.0761,321.068 L999.9561,313.966 L994.1461,307.448 L988.0291,300.904 L979.9101,297.191 L971.5201,294.444 L963.1771,291.766 L954.7811,288.933 L945.9001,288.782 L937.1991,287.034 L928.3571,287.647 L919.5051,287.424 L910.6521,286.594 L901.8071,286.676 L892.9691,287.246 L884.1321,285.945 L875.2921,286.356 L866.4531,287.564 L857.6131,287.854 L848.7771,287.098 L839.9461,286.897 L831.1091,287.876 L822.2821,286.357 L813.4481,287.563 L804.6111,285.913 L795.7751,287.723 L787.3751,287.298 L786.2371,296.052 L786.6131,305.258 L787.8381,314.442 L786.6921,323.617 L786.6411,332.791 L787.5261,341.967 L787.3181,351.144 L786.8671,360.32 L787.0891,369.492 L786.9161,378.66 L786.4771,387.834 L786.7161,396.999 L786.5541,406.169 L787.0571,415.343 L787.9121,424.517 L785.9431,433.688 L786.4861,442.861 L786.4381,452.031 L787.8981,461.202 L785.9431,470.372 L786.6891,479.544 L786.5171,488.711 L787.1111,497.882 L786.9441,507.05 L786.5581,516.606 L796.2771,515.813 L805.6151,515.456 L814.9461,515.608 L824.2701,515.307 L833.5921,516.415 L842.9161,515.586 L852.2401,516.433 L861.5651,516.582 L870.8851,516.512 L880.2001,515.278 L889.5221,515.846 L898.8341,517.214 L908.1521,516.179 L917.4751,516.882 L926.7951,516.183 L936.1581,517.001 L945.4191,515.483 L954.7881,515.098 L963.5531,511.42 L972.4711,509.056 L981.3161,506.316 L989.5731,502.121 L997.2971,497.015 L1004.5171,491.142 L1009.3431,483.177 L1014.2921,475.424 L1017.8671,466.859 L1018.8991,457.629 L1020.4261,448.43 L1019.1631,439.196 Z" id="Fill-11"></path>
        </g>
        <g id="recycle" transform="translate(1088.494900, 287.524500)">
            <polygon id="recycle-hex"  points="194.968 83.783 195.314 79.295 196.169 74.808 195.731 70.321 194.377 65.83 195.609 61.336 195.418 56.7 191.209 54.742 187.357 52.448 183.141 50.779 179.162 48.702 175.545 45.997 171.464 44.097 167.733 41.591 164.315 38.539 160.711 35.809 156.746 33.706 152.855 31.477 148.633 29.828 145.101 26.976 141.163 24.831 137.381 22.408 133.221 20.644 129.053 18.892 125.622 15.856 121.551 13.931 117.767 11.508 114.002 9.054 109.469 7.93 106.041 4.889 101.465 3.824 98.041 5.68434189e-14 93.937 2.619 90.304 5.295 86.563 7.786 82.073 8.977 78.928 12.499 74.477 13.759 70.387 15.644 66.631 18.11 62.902 20.622 59.219 23.213 55.205 25.232 50.965 26.848 47.533 29.874 43.824 32.415 39.611 34.091 35.513 35.962 31.548 38.067 28.346 41.498 23.841 42.672 20.419 45.723 16.282 47.532 12.493 49.944 8.87 52.648 5.095 55.072 1.136 56.973 0.924 61.324 0.163 65.808 0.822 70.293 0.281 74.777 1.271 79.262 0.859 83.746 -1.13686838e-13 88.232 0.152 92.717 0.595 97.203 0.14 101.688 1.23 106.174 1.557 110.661 1.4 115.146 1.158 119.628 0.362 124.114 0.483 128.598 1.136 133.084 0.341 137.572 0.472 142.059 0.084 146.547 1.632 151.034 1.733 155.521 0.233 160.012 0.431 164.506 1.079 168.902 4.729 171.349 8.916 173.063 12.903 175.13 16.522 177.827 20.692 179.575 23.852 183.07 27.973 184.903 32.251 186.463 35.908 189.101 39.55 191.763 43.282 194.269 47.173 196.491 51.236 198.424 55.606 199.82 59.102 202.738 63.035 204.893 67.153 206.736 70.342 210.188 74.78 211.478 78.153 214.615 82.707 215.7 86.375 218.323 89.824 221.325 93.917 223.229 98.04 225.389 102.084 223.118 105.679 220.378 110.155 219.158 113.759 216.435 117.951 214.725 121.59 212.06 124.984 208.967 128.697 206.428 133.224 205.297 137.043 202.943 140.36 199.717 144.396 197.748 148.839 196.473 151.991 192.967 156.617 192.006 160.615 189.962 164.305 187.378 167.517 183.965 171.455 181.811 175.59 179.994 179.996 178.651 183.257 175.324 187.203 173.182 191.036 170.828 194.967 168.882 194.81 164.518 194.983 160.034 195.625 155.549 194.543 151.065 194.195 146.58 194.204 142.095 195.19 137.611 194.933 133.126 194.579 128.639 194.824 124.154 195.199 119.668 194.839 115.181 195.095 110.696 194.437 106.214 194.472 101.728 195.778 97.244 195.11 92.759 196.164 88.271"></polygon>
            <path d="M146.8977,110.4481 L148.2007,113.0341 L148.8757,115.9211 L147.8777,119.9261 L145.5507,123.2311 L142.6327,126.0291 L139.5447,126.9241 L136.3847,127.7751 L132.8357,127.7481 L129.5227,126.8051 L127.4357,124.1011 L126.3297,120.5641 L123.7217,117.8961 L122.1427,114.6321 L120.9047,111.1711 L118.7977,108.2041 L116.0167,105.1441 L119.7107,103.9031 L122.5827,102.1281 L125.3407,100.1571 L128.2937,98.5251 L130.9717,96.4091 L133.8347,94.6061 L137.2137,93.2551 L139.3077,96.0661 L140.7327,98.9931 L141.7377,102.1641 L142.9907,105.1921 L144.7287,107.9431 L146.8977,110.4481 Z M136.5997,129.7961 L139.4577,129.3441 L142.0827,128.2611 L145.0147,127.3041 L143.0807,130.0971 L141.6567,133.1351 L139.8207,135.9361 L138.5947,139.0871 L136.9077,141.9731 L134.3697,144.3721 L133.1467,147.5321 L130.7757,150.0311 L129.2777,152.7121 L126.1767,153.2051 L123.0357,152.5451 L119.8937,152.8841 L116.7477,153.9261 L113.3337,153.1101 L113.3817,157.4491 L113.6747,161.6881 L111.8137,158.7591 L109.6577,156.1521 L107.8137,153.3591 L106.4487,150.2801 L104.4687,147.5671 L102.9497,144.5721 L101.8927,141.4951 L103.9367,139.0151 L105.5477,136.0821 L107.2547,133.2071 L108.5217,130.0681 L110.7057,127.4761 L112.3527,124.5581 L113.1677,121.9651 L113.3137,125.5911 L113.7177,129.6911 L116.8837,130.3381 L120.1687,130.0531 L123.4517,130.2121 L126.7357,130.4001 L130.0217,129.4031 L133.3107,130.1121 L136.6027,129.0591 L136.5997,129.7961 Z M95.8847,68.9601 L94.0547,66.7051 L91.7947,64.9661 L89.4937,62.8971 L92.8367,63.1831 L96.1397,62.9061 L99.4417,63.1021 L102.7437,62.5951 L106.0447,62.6221 L109.3497,63.6281 L112.6577,63.1141 L115.9637,63.9271 L119.0667,63.6911 L121.1397,66.0161 L122.2077,69.1401 L124.1357,71.7601 L126.6757,74.0291 L127.7417,77.4681 L131.4427,75.2251 L134.9257,72.8241 L133.3187,75.8951 L132.1377,79.0601 L130.6397,82.0461 L128.6537,84.7611 L127.2927,87.8251 L125.4577,90.6321 L123.3207,93.0791 L120.1657,92.5551 L116.8357,92.6321 L113.5067,92.5971 L110.1707,93.0761 L106.8477,92.4871 L103.5137,92.5261 L100.8787,93.1221 L103.9137,91.2411 L107.2317,88.8961 L106.2097,85.8221 L104.3217,83.1101 L102.8187,80.1781 L101.3387,77.2311 L98.8337,74.8741 L97.8027,71.6621 L95.8847,68.9601 Z M75.4537,153.3011 L71.9477,152.9371 L68.6307,151.5311 L66.2137,148.8511 L64.8527,145.5811 L64.0237,142.1401 L64.7737,138.7971 L65.6167,135.4111 L67.3557,132.3651 L69.7757,129.9721 L73.1807,129.5191 L76.8187,130.3321 L80.4547,129.4091 L84.0897,129.6761 L87.7297,130.3361 L91.3717,129.9971 L95.4307,129.1191 L94.6777,132.9581 L94.7957,136.3491 L95.1397,139.7391 L95.0927,143.1291 L95.6037,146.5221 L95.7517,149.9181 L95.2487,153.5391 L91.7547,153.9431 L88.4987,153.7081 L85.2407,152.9891 L81.9797,152.5551 L78.7157,152.6791 L75.4567,152.6911 L75.4537,153.3011 Z M73.9637,69.6221 L76.2347,66.5181 L79.4957,64.3161 L83.4067,63.8641 L86.5387,64.5401 L89.5797,65.5521 L91.9037,67.7641 L94.2117,70.0721 L96.0147,73.1471 L96.9127,76.4871 L95.6097,79.6401 L93.0947,82.3641 L92.0837,85.9561 L90.0417,88.9521 L87.6597,91.7531 L86.1387,95.0591 L84.8737,98.9971 L81.9347,96.4161 L78.9457,94.8151 L75.8427,93.4101 L72.9367,91.6661 L69.7497,90.4051 L66.7407,88.8251 L63.8627,86.5731 L65.2587,83.3561 L67.0907,80.6661 L69.3417,78.2181 L71.3457,75.6251 L72.8697,72.7491 L73.9637,69.6221 Z M63.6257,134.7201 L62.4867,138.0101 L62.1637,141.3901 L61.5947,143.2641 L60.1507,140.2081 L58.2327,137.4611 L56.7237,134.4761 L54.6077,131.8451 L52.9537,128.9461 L52.1447,125.5531 L50.0187,122.9211 L49.0407,119.6211 L47.4707,117.2111 L48.4727,114.3651 L50.6567,111.8741 L51.9737,108.8871 L52.6817,105.5471 L55.1387,102.9021 L51.3357,100.7991 L47.5027,98.9641 L50.9727,98.8071 L54.3077,98.2351 L57.6497,98.0261 L61.0017,98.3761 L64.3427,98.0101 L67.6967,98.1821 L70.8917,98.7971 L72.0167,101.8131 L73.7517,104.6831 L75.3877,107.6071 L77.4737,110.2811 L78.6257,113.4751 L80.3297,116.3691 L82.1687,118.3781 L78.9327,116.6921 L75.1587,114.9941 L73.0157,117.4071 L71.6197,120.3881 L69.8397,123.1471 L68.0357,125.8911 L67.2557,129.2301 L64.9977,131.7181 L63.6257,134.7201 Z" ></path>
        </g>
        <g id="handi" transform="translate(1582.494900, 287.524500)">
            <polygon id="handi-hex"  points="194.968 83.783 195.314 79.295 196.169 74.808 195.731 70.321 194.377 65.83 195.609 61.336 195.418 56.7 191.209 54.742 187.357 52.448 183.141 50.779 179.162 48.702 175.545 45.997 171.464 44.097 167.733 41.591 164.315 38.539 160.711 35.809 156.746 33.706 152.855 31.477 148.633 29.828 145.101 26.976 141.163 24.831 137.381 22.408 133.221 20.644 129.053 18.892 125.622 15.856 121.551 13.931 117.767 11.508 114.002 9.054 109.469 7.93 106.041 4.889 101.465 3.824 98.041 5.68434189e-14 93.937 2.619 90.304 5.295 86.563 7.786 82.073 8.977 78.928 12.499 74.477 13.759 70.387 15.644 66.631 18.11 62.902 20.622 59.219 23.213 55.205 25.232 50.965 26.848 47.533 29.874 43.824 32.415 39.611 34.091 35.513 35.962 31.548 38.067 28.346 41.498 23.841 42.672 20.419 45.723 16.282 47.532 12.493 49.944 8.87 52.648 5.095 55.072 1.136 56.973 0.924 61.324 0.163 65.808 0.822 70.293 0.281 74.777 1.271 79.262 0.859 83.746 -1.13686838e-13 88.232 0.152 92.717 0.595 97.203 0.14 101.688 1.23 106.174 1.557 110.661 1.4 115.146 1.158 119.628 0.362 124.114 0.483 128.598 1.136 133.084 0.341 137.572 0.472 142.059 0.084 146.547 1.632 151.034 1.733 155.521 0.233 160.012 0.431 164.506 1.079 168.902 4.729 171.349 8.916 173.063 12.903 175.13 16.522 177.827 20.692 179.575 23.852 183.07 27.973 184.903 32.251 186.463 35.908 189.101 39.55 191.763 43.282 194.269 47.173 196.491 51.236 198.424 55.606 199.82 59.102 202.738 63.035 204.893 67.153 206.736 70.342 210.188 74.78 211.478 78.153 214.615 82.707 215.7 86.375 218.323 89.824 221.325 93.917 223.229 98.04 225.389 102.084 223.118 105.679 220.378 110.155 219.158 113.759 216.435 117.951 214.725 121.59 212.06 124.984 208.967 128.697 206.428 133.224 205.297 137.043 202.943 140.36 199.717 144.396 197.748 148.839 196.473 151.991 192.967 156.617 192.006 160.615 189.962 164.305 187.378 167.517 183.965 171.455 181.811 175.59 179.994 179.996 178.651 183.257 175.324 187.203 173.182 191.036 170.828 194.967 168.882 194.81 164.518 194.983 160.034 195.625 155.549 194.543 151.065 194.195 146.58 194.204 142.095 195.19 137.611 194.933 133.126 194.579 128.639 194.824 124.154 195.199 119.668 194.839 115.181 195.095 110.696 194.437 106.214 194.472 101.728 195.778 97.244 195.11 92.759 196.164 88.271"></polygon>
            <path d="M72.1902,92.7391 L71.7322,98.1811 L72.4422,103.3811 L69.0092,105.8121 L66.3732,109.2701 L64.1362,112.9231 L62.3152,116.7961 L60.8882,120.8871 L60.5842,125.2201 L61.5752,129.6261 L62.3502,134.0321 L64.5672,137.9181 L67.0422,141.6021 L70.1812,144.7531 L73.7732,147.3871 L77.6372,149.7641 L82.1202,150.4511 L86.5682,151.4341 L91.2172,150.5661 L95.5962,149.0021 L99.7002,146.9051 L103.6192,144.4111 L106.5022,140.7691 L109.1592,136.9991 L111.0072,132.7541 L112.4542,128.0511 L114.5272,132.4471 L116.1482,136.9721 L118.1242,141.2591 L116.5552,145.0921 L113.7402,148.4741 L110.3622,151.2671 L107.2612,154.3771 L103.5762,156.7861 L99.4772,158.3841 L95.2482,159.4781 L90.9612,160.1311 L86.6462,161.1541 L82.0432,160.1201 L77.5312,159.1771 L72.8722,158.4071 L68.7772,156.1021 L65.2072,153.0901 L61.3672,150.4251 L58.3562,146.8511 L55.5412,143.1011 L54.0632,138.6371 L52.1082,134.3981 L51.7892,129.7351 L51.2972,125.1471 L51.6212,120.6971 L52.6542,116.3681 L53.3962,111.8871 L55.2222,107.7271 L58.2222,104.2981 L60.6842,100.4851 L64.3022,97.7551 L67.9602,95.1721 L72.1902,92.7391 Z M81.9134,56.0676 L86.5884,57.9356 L90.6284,61.0056 L91.2984,66.0376 L90.7614,70.7736 L87.3414,74.1806 L82.7424,75.6356 L83.6114,80.4946 L83.0224,85.4116 L83.7104,90.2476 L84.2944,94.7926 L88.0854,95.0866 L92.2194,95.0986 L96.3494,95.0906 L100.4774,94.7926 L104.6044,94.8316 L108.6904,95.1536 L108.2894,99.6536 L109.0394,104.5156 L103.9554,104.5006 L99.1784,104.3686 L94.4024,104.3116 L89.6324,104.6076 L84.7094,104.0766 L85.2454,110.3746 L90.0274,110.4816 L94.7424,110.3666 L99.4574,110.5906 L104.1614,110.0136 L108.8734,110.5366 L113.5834,110.6276 L118.4294,109.8756 L119.7694,114.2886 L121.5554,118.3456 L123.5524,122.3026 L125.2224,126.3996 L126.9374,130.4766 L128.5324,134.6076 L130.2784,138.6726 L132.3764,142.5656 L135.9634,141.4046 L139.5944,140.3046 L143.2214,138.3506 L144.8614,142.1166 L146.2124,145.8736 L142.2604,147.4726 L138.2144,148.4046 L134.3974,149.9036 L130.5524,151.3266 L126.8584,153.3756 L124.7634,149.1436 L123.1404,144.7946 L121.6424,140.3956 L120.0214,136.0536 L117.4554,132.1166 L115.6514,127.8516 L113.9364,123.5496 L112.5244,118.9536 L107.9294,118.8076 L103.4904,119.4776 L99.0554,119.0156 L94.6254,118.8676 L90.1944,119.4566 L85.7624,119.4906 L81.3304,119.3666 L77.0094,119.0546 L76.1854,114.7906 L76.2934,110.3506 L75.5904,105.9706 L75.3774,101.5596 L75.2784,97.1416 L74.5694,92.7656 L74.9384,88.3136 L74.8354,83.8946 L73.8524,79.5396 L73.3574,75.1526 L73.0904,70.7876 L72.3124,66.0376 L73.7304,61.3156 L76.9164,57.3826 L81.9134,56.0676 Z" ></path>
        </g>
        <g id="eye" transform="translate(1335.494900, 287.524500)">
            <polygon id="eye-hex"  points="194.968 83.783 195.314 79.295 196.169 74.808 195.731 70.321 194.377 65.83 195.609 61.336 195.418 56.7 191.209 54.742 187.357 52.448 183.141 50.779 179.162 48.702 175.545 45.997 171.464 44.097 167.733 41.591 164.315 38.539 160.711 35.809 156.746 33.706 152.855 31.477 148.633 29.828 145.101 26.976 141.163 24.831 137.381 22.408 133.221 20.644 129.053 18.892 125.622 15.856 121.551 13.931 117.767 11.508 114.002 9.054 109.469 7.93 106.041 4.889 101.465 3.824 98.041 5.68434189e-14 93.937 2.619 90.304 5.295 86.563 7.786 82.073 8.977 78.928 12.499 74.477 13.759 70.387 15.644 66.631 18.11 62.902 20.622 59.219 23.213 55.205 25.232 50.965 26.848 47.533 29.874 43.824 32.415 39.611 34.091 35.513 35.962 31.548 38.067 28.346 41.498 23.841 42.672 20.419 45.723 16.282 47.532 12.493 49.944 8.87 52.648 5.095 55.072 1.136 56.973 0.924 61.324 0.163 65.808 0.822 70.293 0.281 74.777 1.271 79.262 0.859 83.746 -1.13686838e-13 88.232 0.152 92.717 0.595 97.203 0.14 101.688 1.23 106.174 1.557 110.661 1.4 115.146 1.158 119.628 0.362 124.114 0.483 128.598 1.136 133.084 0.341 137.572 0.472 142.059 0.084 146.547 1.632 151.034 1.733 155.521 0.233 160.012 0.431 164.506 1.079 168.902 4.729 171.349 8.916 173.063 12.903 175.13 16.522 177.827 20.692 179.575 23.852 183.07 27.973 184.903 32.251 186.463 35.908 189.101 39.55 191.763 43.282 194.269 47.173 196.491 51.236 198.424 55.606 199.82 59.102 202.738 63.035 204.893 67.153 206.736 70.342 210.188 74.78 211.478 78.153 214.615 82.707 215.7 86.375 218.323 89.824 221.325 93.917 223.229 98.04 225.389 102.084 223.118 105.679 220.378 110.155 219.158 113.759 216.435 117.951 214.725 121.59 212.06 124.984 208.967 128.697 206.428 133.224 205.297 137.043 202.943 140.36 199.717 144.396 197.748 148.839 196.473 151.991 192.967 156.617 192.006 160.615 189.962 164.305 187.378 167.517 183.965 171.455 181.811 175.59 179.994 179.996 178.651 183.257 175.324 187.203 173.182 191.036 170.828 194.967 168.882 194.81 164.518 194.983 160.034 195.625 155.549 194.543 151.065 194.195 146.58 194.204 142.095 195.19 137.611 194.933 133.126 194.579 128.639 194.824 124.154 195.199 119.668 194.839 115.181 195.095 110.696 194.437 106.214 194.472 101.728 195.778 97.244 195.11 92.759 196.164 88.271"></polygon>
            <path d="M103.4048,77.2997 L109.0448,77.9547 L114.5328,79.4287 L119.5598,82.1087 L125.1068,83.5817 L129.4998,87.3027 L134.4898,89.9327 L138.4348,94.0527 L143.6158,96.5677 L147.3718,100.8187 L151.3328,104.7877 L156.0288,108.1017 L158.2448,112.8307 L155.9628,117.4927 L151.8348,121.3617 L147.1118,124.5597 L143.4138,128.8527 L139.5838,133.1177 L134.5158,135.7697 L129.8358,138.9287 L124.7878,141.4657 L119.5188,143.4697 L114.1348,145.0127 L108.9028,147.0737 L103.3218,147.6367 L97.7558,149.2817 L92.0758,148.6377 L86.4468,147.8007 L81.2888,145.2707 L75.6298,144.3197 L70.5668,141.7617 L65.7718,138.7607 L60.5678,136.3967 L56.6788,132.1317 L52.0408,128.9197 L47.2618,125.7947 L43.5588,121.4867 L39.5928,117.4587 L37.0248,112.8297 L39.3228,107.9627 L43.4838,104.1067 L47.7398,100.3847 L52.2888,97.0327 L56.2838,93.0087 L61.5718,90.7367 L66.0718,87.3947 L70.4508,83.6547 L75.9768,82.1507 L80.9248,79.2437 L86.6018,78.5497 L92.2288,78.3637 L97.7558,78.0327 L103.4048,77.2997 Z M95.5768,87.3097 L90.7128,88.4207 L85.1768,89.4087 L80.4618,92.6277 L77.8058,93.6257 L73.5438,95.9357 L68.8118,97.5037 L65.3978,101.1297 L61.4298,103.9077 L56.0128,108.1347 L51.8968,112.9807 L54.1848,116.3557 L57.9698,119.2567 L62.1258,121.6477 L66.2618,125.3967 L70.9818,128.3567 L75.2798,132.1557 L81.1458,133.1187 L86.3528,136.0277 L92.3748,137.1507 L98.8698,138.0107 L103.1098,137.3427 L107.5308,137.9877 L111.7558,136.2047 L115.5778,133.5737 L116.1818,133.5637 L120.5438,130.3517 L125.6048,128.3817 L130.5248,126.0007 L134.8518,122.7127 L139.1278,117.1167 L145.4508,112.9827 L140.7478,109.9177 L137.4648,106.4907 L134.4298,102.6957 L129.0988,99.7037 L123.5358,97.2457 L118.6378,93.6897 L113.0078,91.4397 L108.1348,89.1907 L100.5098,87.8247 L95.5768,87.3097 Z M94.7025,90.0539 L99.2655,90.8099 L105.7575,91.3979 L109.1755,92.8079 L107.8245,97.5269 L105.1295,101.7059 L103.4225,106.4279 L100.0715,110.4339 L104.3945,107.5379 L108.7725,105.0509 L112.6325,101.7379 L117.0905,99.0109 L119.8245,103.6179 L120.2175,108.3129 L120.1275,112.8349 L119.6955,118.2939 L118.5835,123.8199 L115.9175,128.9179 L111.1235,132.0179 L106.9975,133.2469 L99.9915,135.7919 L94.1495,134.5839 L88.6605,133.5149 L82.9265,131.6329 L82.6455,131.4619 L79.9535,126.9589 L76.4695,123.0459 L75.7625,117.8629 L74.0855,112.8349 L75.2355,107.5979 L76.9315,102.6189 L79.1395,97.7489 L82.6305,93.3909 L90.2585,91.3159 L94.7025,90.0539 Z" ></path>
        </g>
    </g>
</svg>