<?xml version="1.0" encoding="UTF-8"?>
<svg width="541px" height="193px" viewBox="0 0 541 193" version="1.1" xmlns="http://www.w3.org/2000/svg" xmlns:xlink="http://www.w3.org/1999/xlink">
    <title>prometric logo</title>
    <g id="prometric-logo" stroke="none" stroke-width="1" fill="none" fill-rule="evenodd">
        <path d="M455.0886,183.0785 C456.4456,183.0785 457.6896,183.5935 458.6396,184.5715 C459.5576,185.4905 460.0456,186.7265 460.0456,188.0435 C460.0456,189.3985 459.5306,190.6325 458.5846,191.5545 C457.6176,192.4925 456.3686,193.0005 455.0886,193.0005 C453.7726,193.0005 452.5236,192.4555 451.5646,191.4835 C450.6416,190.5475 450.1566,189.3155 450.1566,188.0435 C450.1566,187.1605 450.3856,186.2895 450.8806,185.4755 C451.7546,183.9625 453.3016,183.0785 455.0886,183.0785 Z M441.9574,190.3708 C442.5844,190.3708 443.1054,190.8918 443.1054,191.5188 C443.1054,192.118 442.651551,192.58392 442.081264,192.64338 L441.9574,192.6498 L441.9574,192.6498 C441.3274,192.6498 440.8214,192.1608 440.8214,191.5188 C440.8214,190.8918 441.3274,190.3708 441.9574,190.3708 Z M455.1116,183.8905 C453.9756,183.8905 453.0076,184.2885 452.2266,185.0755 C451.4286,185.8735 450.9786,186.9295 450.9786,188.0255 C450.9786,189.1215 451.3836,190.1465 452.1566,190.9155 C452.9576,191.7275 453.9976,192.1605 455.0886,192.1605 C456.1696,192.1605 457.1926,191.7455 458.0156,190.9675 C458.7926,190.2175 459.2276,189.1745 459.2276,188.1145 C459.2276,186.9295 458.8286,185.9265 458.0606,185.1415 C457.2546,184.3275 456.2456,183.8905 455.1116,183.8905 Z M455.1976,185.1935 C456.7626,185.1935 457.5396,185.7195 457.5396,186.7805 C457.5396,187.4865 457.0926,188.0435 456.3456,188.2325 L457.5626,190.6845 L456.0786,190.6845 L455.0296,188.4445 L454.3776,188.4445 L454.3776,190.6845 L453.0386,190.6845 L453.0386,185.1935 L455.1976,185.1935 Z M454.9706,186.0475 L454.3776,186.0475 L454.3776,187.6235 L455.0296,187.6235 C455.7986,187.6235 456.1696,187.4035 456.1696,186.8635 C456.1696,186.2895 455.7716,186.0475 454.9706,186.0475 Z M441.9565,183.5936 C442.7925,183.5936 443.4775,184.2746 443.4775,185.1106 C443.4775,185.894489 442.866497,186.545473 442.094344,186.615386 L441.9565,186.6216 L441.9565,186.6216 C441.1095,186.6216 440.4375,185.9406 440.4375,185.1106 C440.4375,184.2746 441.1095,183.5936 441.9565,183.5936 Z M441.9565,173.1917 C443.2425,173.1917 444.2685,174.2167 444.2685,175.4837 C444.2685,176.71995 443.326219,177.710068 442.11584,177.790432 L441.9565,177.7957 L441.9565,177.7957 C440.6765,177.7957 439.6485,176.7737 439.6485,175.4837 C439.6485,174.2167 440.6765,173.1917 441.9565,173.1917 Z M441.9571,158.3941 C444.1131,158.3941 445.8681,160.1291 445.8681,162.2991 C445.8681,164.404194 444.221074,166.115127 442.158009,166.220005 L441.9571,166.2251 L441.9571,166.2251 C439.7931,166.2251 438.0441,164.4721 438.0441,162.2991 C438.0441,160.1291 439.7931,158.3941 441.9571,158.3941 Z M499.7218,151.9741 C501.0058,151.9741 502.0468,153.0221 502.0468,154.2981 C502.0468,155.508475 501.090743,156.528741 499.880977,156.611661 L499.7218,156.6171 L499.7218,156.6171 C498.4598,156.6171 497.4098,155.5611 497.4098,154.2981 C497.4098,153.0221 498.4598,151.9741 499.7218,151.9741 Z M441.9569,138.7921 C445.3059,138.7921 448.0009,141.5051 448.0009,144.8411 C448.0009,148.113986 445.427008,150.778498 442.184204,150.897922 L441.9569,150.9021 L441.9569,150.9021 C438.6039,150.9021 435.9019,148.1901 435.9019,144.8411 C435.9019,141.5051 438.6039,138.7921 441.9569,138.7921 Z M488.3274,139.5083 C490.4984,139.5083 492.2304,141.2633 492.2304,143.4133 C492.2304,145.519362 490.604959,147.235019 488.529606,147.340191 L488.3274,147.3453 L488.3274,147.3453 C486.1734,147.3453 484.4364,145.5873 484.4364,143.4133 C484.4364,141.2633 486.1734,139.5083 488.3274,139.5083 Z M475.8691,124.8951 C479.2121,124.8951 481.9131,127.6181 481.9131,130.9651 C481.9131,134.237986 479.333478,136.881487 476.096013,136.999955 L475.8691,137.0041 L475.8691,137.0041 C472.5351,137.0041 469.8081,134.3141 469.8081,130.9651 C469.8081,127.6181 472.5351,124.8951 475.8691,124.8951 Z M441.9569,115.9853 C446.1979,115.9853 449.6299,119.4233 449.6299,123.6633 C449.6299,127.800185 446.328631,131.190628 442.200657,131.3195 L441.9569,131.3233 L441.9569,131.3233 C437.7319,131.3233 434.2979,127.8813 434.2979,123.6633 C434.2979,119.4233 437.7319,115.9853 441.9569,115.9853 Z M460.7208,107.7963 C464.9408,107.7963 468.3828,111.2363 468.3828,115.4563 C468.3828,119.613163 465.074457,122.972255 460.968118,123.102386 L460.7208,123.1063 L460.7208,123.1063 C456.4998,123.1063 453.0578,119.6963 453.0578,115.4563 C453.0578,111.2363 456.4998,107.7963 460.7208,107.7963 Z M112.6367,76.7943 C125.4607,76.7943 133.6217,85.8623 133.6217,96.5493 C133.6217,107.2393 125.4607,116.3743 112.6367,116.3743 C99.7457,116.3743 91.5157,107.2393 91.5157,96.5493 C91.5157,85.8623 99.7457,76.7943 112.6367,76.7943 Z M394.4485,76.7943 C398.5285,76.7943 401.2815,77.6863 403.1845,78.0173 C405.3895,78.4333 407.1745,78.7553 407.9195,78.7553 L408.3845,85.6203 L407.3255,85.6203 C404.8855,81.1973 399.1695,79.6603 394.4485,79.6603 C384.6505,79.6603 378.9325,87.1763 378.9325,96.5493 C378.9325,104.1393 384.4715,113.5203 394.4485,113.5203 C399.4145,113.5203 405.3895,112.2173 407.9965,107.5663 L409.0565,107.5663 L408.5615,114.3303 C408.3235,114.2583 407.0205,114.4873 405.3065,114.8233 C401.5465,115.5533 398.3605,116.3743 394.4485,116.3743 C379.5035,116.3743 372.1585,107.5663 372.1585,96.5493 C372.1585,85.4473 380.8205,76.7943 394.4485,76.7943 Z M313.5455,77.1251 C321.0695,77.1251 328.5705,80.3021 328.5705,88.4781 C328.5705,93.3681 324.6655,97.0441 318.8605,98.5051 L328.7475,109.9441 C330.2045,111.6481 332.2375,113.7651 334.1135,114.7531 L334.1135,115.6541 C328.4945,116.4541 325.8805,116.0571 322.5215,112.2171 L311.2625,99.1501 C309.7165,99.1501 308.3245,99.0851 307.0965,98.9171 L307.0965,111.3961 C307.0965,112.6231 308.1795,114.2581 310.3655,114.7531 L310.3655,115.8041 C309.1365,115.8041 305.0575,115.6541 303.9205,115.6541 C302.9495,115.6541 299.0225,115.8041 297.7865,115.8041 L297.7865,114.7531 C299.8255,114.3301 300.9085,112.6991 300.9085,111.3961 L300.9085,81.7011 C300.9085,80.4731 300.0105,78.8441 297.7865,78.4331 L297.7865,77.3781 C299.0225,77.3781 302.9495,77.5401 304.0835,77.5401 C305.9615,77.5401 311.4215,77.1251 313.5455,77.1251 Z M61.7114,77.1251 C69.2124,77.1251 76.7364,80.3021 76.7364,88.4781 C76.7364,93.3681 72.8024,97.0441 67.0214,98.5051 L76.8864,109.9441 C78.3654,111.6481 80.4064,113.7651 82.2934,114.7531 L82.2934,115.6541 C76.6514,116.4541 74.0314,116.0571 70.6884,112.2171 L59.4284,99.1501 C57.8654,99.1501 56.4964,99.0851 55.2624,98.9171 L55.2624,111.3961 C55.2624,112.6231 56.3224,114.2581 58.5224,114.7531 L58.5224,115.8041 C57.3114,115.8041 53.2304,115.6541 52.0824,115.6541 C51.0974,115.6541 47.2014,115.8041 45.9584,115.8041 L45.9584,114.7531 C48.0004,114.3301 49.0724,112.6991 49.0724,111.3961 L49.0724,81.7011 C49.0724,80.4731 48.1654,78.8441 45.9584,78.4331 L45.9584,77.3781 C47.2014,77.3781 51.0974,77.5401 52.2544,77.5401 C54.1224,77.5401 59.6054,77.1251 61.7114,77.1251 Z M237.8679,76.966 L237.7119,84.472 L236.6509,84.472 C235.7629,82.019 233.5289,80.39 230.2739,80.39 L218.2669,80.39 L218.2669,94.27 L228.9029,94.27 C230.5999,94.27 231.9039,93.611 232.8039,92.132 L233.8729,92.132 C233.7839,93.121 233.7839,95.003 233.7839,95.66 C233.7839,96.297 233.8729,98.108 233.8729,99.15 L232.8039,99.15 C231.9039,97.782 230.5999,97.118 228.9029,97.118 L218.2669,97.118 L218.2669,112.699 L230.1139,112.699 C234.1949,112.699 236.4789,111.313 237.7119,108.868 L238.7549,109.104 L237.7119,115.968 C234.2083,115.6697 232.05123,115.654785 228.292177,115.654039 L215.2629,115.654 C214.1189,115.654 210.1859,115.804 208.9689,115.804 L208.9689,114.753 C211.1599,114.33 212.0669,112.623 212.0669,111.313 L212.0669,81.701 C212.0669,80.473 211.0929,78.844 208.9689,78.433 L208.9689,77.378 L234.0239,77.378 C234.7649,77.378 236.0779,77.283 236.8019,76.966 L237.8679,76.966 Z M287.1022,77.1253 L286.9492,85.2053 L285.8882,85.2053 C284.8992,81.7773 283.0052,80.8763 280.4152,80.8763 L271.6612,80.8763 L271.6612,111.3953 C271.6612,112.6233 273.2242,114.3303 275.4992,114.8233 L275.4992,115.8043 C274.2832,115.8043 269.6372,115.6533 268.4842,115.6533 C267.5092,115.6533 263.0122,115.8043 261.8082,115.8043 L261.8082,114.7533 C263.9992,114.3303 265.4832,112.6233 265.4832,111.3953 L265.4832,80.8763 L256.8272,80.8763 C254.2832,80.8763 252.3252,81.7013 251.3442,85.2053 L250.2802,85.2053 L250.1162,77.1253 C252.749892,77.2792487 255.300989,77.5271856 267.650687,77.5397991 L269.631997,77.5398116 C282.022803,77.5273508 284.481276,77.2793 287.1022,77.1253 Z M353.3789,77.5406 C354.3679,77.5406 358.9269,77.3786 359.8409,77.3786 L359.8409,78.4326 C357.4599,79.0116 356.3159,80.0636 356.3159,81.7016 L356.3159,111.4896 C356.3159,113.1186 357.4599,114.1796 359.8409,114.7536 L359.8409,115.8036 C358.962054,115.8036 354.7132,115.664917 353.508448,115.654249 L353.3789,115.6536 C352.2419,115.6536 347.5829,115.8036 346.6909,115.8036 L346.6909,114.7536 C349.1289,114.2576 350.1089,113.0356 350.1089,111.4896 L350.1089,81.7016 C350.1089,80.1376 349.1289,78.9156 346.6909,78.4326 L346.6909,77.3786 C347.5829,77.3786 352.2419,77.5406 353.3789,77.5406 Z M15.7526,77.1258 C23.2566,77.1258 30.7686,80.3908 30.7686,88.5538 C30.7686,95.3128 24.3196,99.8128 15.5136,99.8128 C13.3056,99.8128 11.0316,99.7428 9.2936,99.5708 L9.2936,111.3958 C9.2936,112.6238 10.3676,114.2578 12.5666,114.7528 L12.5666,115.8038 C11.3436,115.8038 7.2626,115.6538 6.1256,115.6538 C5.1366,115.6538 1.2156,115.8038 -0.0004,115.8038 L-0.0004,114.7528 C2.0446,114.3308 3.1106,112.6998 3.1106,111.3958 L3.1106,81.7018 C3.1106,80.4728 2.2046,78.8438 -0.0004,78.4328 L-0.0004,77.3778 C1.2156,77.3778 5.1366,77.5408 6.2726,77.5408 C8.1626,77.5408 13.6376,77.1258 15.7526,77.1258 Z M193.0521,77.3786 L193.0521,78.4326 C191.2591,78.9156 190.3451,80.5446 190.5151,82.5106 L192.7961,111.3956 C192.8841,112.6996 193.7851,114.3306 195.5741,114.7536 L195.5741,115.7246 C194.71778,115.7246 190.909575,115.659166 189.600344,115.653932 L189.4501,115.6536 C188.4841,115.6536 184.6441,115.7246 183.7391,115.7246 L183.7391,114.7536 C185.5281,114.3306 186.7781,113.2776 186.5941,111.4896 L184.7231,87.4086 L171.5831,115.6536 L169.0471,115.6536 L154.0361,87.2506 L151.6691,111.4896 C151.5771,112.6236 152.4901,114.2576 155.1841,114.7536 L155.1841,115.7246 C154.320236,115.7246 151.086453,115.659908 149.798405,115.654027 L149.6281,115.6536 C148.6381,115.6536 145.5411,115.7246 144.6411,115.7246 L144.6411,114.7536 C146.4421,114.3306 147.9881,112.6236 148.0821,111.3956 L150.8391,82.5106 C151.0151,80.5446 150.1231,78.9156 148.3351,78.4326 L148.3351,77.3786 C149.6951,77.3786 151.1741,77.5406 152.2281,77.5406 C153.2061,77.5406 154.5311,77.3786 155.8241,77.3786 L171.5831,107.2396 L185.5281,77.3786 C186.8521,77.3786 188.1571,77.5406 189.1461,77.5406 C190.1981,77.5406 191.6521,77.3786 193.0521,77.3786 Z M112.6367,79.6603 C102.6847,79.6603 98.2827,87.8913 98.2827,96.5493 C98.2827,105.2163 102.6847,113.5203 112.6367,113.5203 C122.6117,113.5203 126.8297,105.2163 126.8297,96.5493 C126.8297,87.8913 122.6117,79.6603 112.6367,79.6603 Z M468.9033,89.0258 C473.1463,89.0258 476.5703,92.4448 476.5703,96.6848 C476.5703,100.822055 473.279258,104.193258 469.151924,104.323872 L468.9033,104.3278 L468.9033,104.3278 C464.6963,104.3278 461.2503,100.9048 461.2503,96.6848 C461.2503,92.4448 464.6963,89.0258 468.9033,89.0258 Z M490.4623,90.6238 C493.8093,90.6238 496.5283,93.3328 496.5283,96.6848 C496.5283,99.9459591 493.931486,102.610204 490.689507,102.729622 L490.4623,102.7338 L490.4623,102.7338 C487.1243,102.7338 484.4363,100.0218 484.4363,96.6848 C484.4363,93.3328 487.1243,90.6238 490.4623,90.6238 Z M507.9177,92.7588 C510.0937,92.7588 511.8447,94.5168 511.8447,96.6848 C511.8447,98.773425 510.201428,100.48009 508.120414,100.584717 L507.9177,100.5898 L507.9177,100.5898 C505.7647,100.5898 503.9957,98.8408 503.9957,96.6848 C503.9957,94.5168 505.7647,92.7588 507.9177,92.7588 Z M523.2526,94.3618 C524.5106,94.3618 525.5546,95.4098 525.5546,96.6848 C525.5546,97.918175 524.594869,98.9109285 523.408561,98.9915167 L523.2526,98.9968 L523.2526,98.9968 C521.9676,98.9968 520.9226,97.9718 520.9226,96.6848 C520.9226,95.4098 521.9676,94.3618 523.2526,94.3618 Z M532.8648,95.1708 C533.6968,95.1708 534.3808,95.8328 534.3808,96.6848 C534.3808,97.4696333 533.770689,98.1206704 533.002004,98.1905855 L532.8648,98.1968 L532.8648,98.1968 C532.0148,98.1968 531.3548,97.5158 531.3548,96.6848 C531.3548,95.8328 532.0148,95.1708 532.8648,95.1708 Z M539.2618,95.5458 C539.9028,95.5458 540.4238,96.0578 540.4238,96.6848 C540.4238,97.2672 539.969951,97.7450667 539.388281,97.8061938 L539.2618,97.8128 L539.2618,97.8128 C538.6728,97.8128 538.1308,97.3088 538.1308,96.6848 C538.1308,96.0578 538.6728,95.5458 539.2618,95.5458 Z M14.0386,79.6608 C12.7316,79.6608 10.6106,79.8198 9.2936,80.0638 L9.2936,96.6318 C10.5276,96.7918 12.6596,96.9588 14.4506,96.9588 C21.7106,96.9588 23.9906,93.0368 23.9906,88.5538 C23.9906,83.3448 20.4136,79.6608 14.0386,79.6608 Z M60.0014,79.6601 C58.6814,79.6601 56.5794,79.8201 55.2624,80.0641 L55.2624,95.9841 C56.4964,96.1471 58.6104,96.2231 60.4094,96.2231 C67.6674,96.2231 69.9724,92.0651 69.9724,88.3951 C69.9724,83.1641 66.3504,79.6601 60.0014,79.6601 Z M311.8315,79.6601 C310.5385,79.6601 308.3915,79.8201 307.0965,80.0641 L307.0965,95.9841 C308.3245,96.1471 310.4535,96.2131 312.2515,96.2131 C319.5005,96.2131 321.7765,92.0651 321.7765,88.3951 C321.7765,83.1641 318.1985,79.6601 311.8315,79.6601 Z M460.7208,69.6863 C464.9408,69.6863 468.3828,73.1283 468.3828,77.3333 C468.3828,81.4868577 465.071912,84.878584 460.963379,85.007499 L460.7208,85.0113 L460.7208,85.0113 C456.4998,85.0113 453.0578,81.5683 453.0578,77.3333 C453.0578,73.1283 456.4998,69.6863 460.7208,69.6863 Z M441.9569,61.849 C446.1979,61.849 449.6299,65.27 449.6299,69.511 C449.6299,73.6645577 446.328631,77.0370459 442.200657,77.1652209 L441.9569,77.169 L441.9569,77.169 C437.7319,77.169 434.2979,73.746 434.2979,69.511 C434.2979,65.27 437.7319,61.849 441.9569,61.849 Z M475.8691,56.5057 C479.2121,56.5057 481.9131,59.2127 481.9131,62.5647 C481.9131,65.8248818 479.333478,68.5024758 476.096013,68.6225007 L475.8691,68.6267 L475.8691,68.6267 C472.5351,68.6267 469.8081,65.9007 469.8081,62.5647 C469.8081,59.2127 472.5351,56.5057 475.8691,56.5057 Z M441.9569,42.6152 C445.3059,42.6152 448.0009,45.3332 448.0009,48.6682 C448.0009,51.9362 445.427008,54.6130166 442.184204,54.7330021 L441.9569,54.7372 L441.9569,54.7372 C438.6039,54.7372 435.9019,52.0122 435.9019,48.6682 C435.9019,45.3332 438.6039,42.6152 441.9569,42.6152 Z M488.3274,46.5383 C490.4984,46.5383 492.2304,48.2873 492.2304,50.4573 C492.2304,52.5546438 490.604959,54.2559504 488.529606,54.3602339 L488.3274,54.3653 L488.3274,54.3653 C486.1734,54.3653 484.4364,52.6223 484.4364,50.4573 C484.4364,48.2873 486.1734,46.5383 488.3274,46.5383 Z M499.7218,37.1003 C501.0058,37.1003 502.0468,38.1333 502.0468,39.4173 C502.0468,40.64205 501.090743,41.6344441 499.880977,41.7150173 L499.7218,41.7203 L499.7218,41.7203 C498.4598,41.7203 497.4098,40.6953 497.4098,39.4173 C497.4098,38.1333 498.4598,37.1003 499.7218,37.1003 Z M441.9571,27.3012 C444.1131,27.3012 445.8681,29.0542 445.8681,31.2102 C445.8681,33.3123875 444.221074,35.0363689 442.158009,35.1420649 L441.9571,35.1472 L441.9571,35.1472 C439.7931,35.1472 438.0441,33.3802 438.0441,31.2102 C438.0441,29.0542 439.7931,27.3012 441.9571,27.3012 Z M441.9565,15.5454 C443.2425,15.5454 444.2685,16.5844 444.2685,17.8694 C444.2685,19.0807333 443.326219,20.0881812 442.11584,20.1700322 L441.9565,20.1754 L441.9565,20.1754 C440.6765,20.1754 439.6485,19.1334 439.6485,17.8694 C439.6485,16.5844 440.6765,15.5454 441.9565,15.5454 Z M441.9565,7.2729 C442.7925,7.2729 443.4775,7.9479 443.4775,8.7659 C443.4775,9.57056667 442.866497,10.2182457 442.094344,10.2877265 L441.9565,10.2939 L441.9565,10.2939 C441.1095,10.2939 440.4375,9.6179 440.4375,8.7659 C440.4375,7.9479 441.1095,7.2729 441.9565,7.2729 Z M441.9574,1.2323 C442.3754,1.2323 442.746289,1.46252222 442.947104,1.8003 L443.002123,1.90473733 C443.068351,2.04796222 443.1054,2.20643333 443.1054,2.3723 C443.1054,2.9963 442.5844,3.5003 441.9574,3.5003 C441.3274,3.5003 440.8214,2.9963 440.8214,2.3723 C440.8214,2.20643333 440.857382,2.04796222 440.922103,1.90473733 L440.975919,1.8003 C441.172511,1.46252222 441.5374,1.2323 441.9574,1.2323 Z" id="Combined-Shape" fill="#212121"></path>
    </g>
</svg>