<?xml version="1.0" encoding="UTF-8"?>
<svg width="430px" height="194px" viewBox="0 0 430 194" version="1.1" xmlns="http://www.w3.org/2000/svg" xmlns:xlink="http://www.w3.org/1999/xlink">
    <title>rofo-logo</title>
    <g id="rofo-logo" stroke="none" stroke-width="1" fill="none" fill-rule="evenodd">
        <path d="M386.6624,104.7041 C393.9164,102.9501 400.3724,102.7131 407.7444,103.9171 C414.5764,104.9681 420.2724,106.3631 426.8184,108.5791 L426.8184,108.5791 L426.8184,132.2301 L412.1244,125.4651 C410.6514,124.8581 408.3464,124.4981 406.9514,124.3131 C403.0494,123.8911 399.7244,123.8291 395.8114,124.1211 C394.3214,124.2451 393.0784,124.4981 391.6734,124.9821 C389.5474,125.6621 387.7814,127.3161 387.8204,129.7951 C387.8384,131.9211 388.7434,133.7201 390.4354,134.9971 C391.9144,136.1161 393.3714,136.7961 395.1814,137.2181 L395.1814,137.2181 L408.4924,140.5861 C413.3784,142.3571 417.2304,144.6631 421.0944,148.1551 C422.4604,149.4031 423.5224,150.5671 424.6534,152.0461 C428.1564,156.5961 429.8154,161.5161 429.7704,167.2691 C429.8544,171.6891 429.0734,175.4621 427.2284,179.4771 C424.5914,185.0381 419.5984,188.9801 413.8904,191.1791 C411.9334,191.9271 410.2404,192.4331 408.1934,192.8661 C404.3034,193.6651 400.9454,194.0021 396.9704,193.99136 C393.0394,193.9681 389.7164,193.7661 385.8134,193.2821 C381.3314,192.7031 377.5694,192.0171 373.1724,190.9651 C370.2204,190.2681 367.7514,189.5601 364.8784,188.5811 L364.8784,188.5811 L364.8784,162.2751 L379.0824,169.7541 C380.7914,170.6041 382.3044,171.1831 384.1604,171.6551 C387.5224,172.5881 390.4804,172.9821 393.9784,172.9761 C395.5534,172.9821 396.8904,172.9421 398.4604,172.8301 C401.7444,172.6281 406.6704,171.6381 406.5914,167.2571 C406.5134,163.0231 401.7774,160.8861 398.3974,159.9861 L398.3974,159.9861 L381.9954,155.3921 C377.8614,153.9301 374.6404,151.8561 371.5984,148.7011 C368.8534,145.8781 367.0824,142.9541 365.8394,139.2201 C363.6744,132.5671 363.8484,124.2951 367.1334,118.1661 C371.1084,110.7321 378.7334,106.6221 386.6624,104.7041 Z M70.3694,102.9831 L70.3694,124.0031 L25.6534,124.0031 C25.5074,124.0031 25.3834,124.1101 25.3834,124.2621 L25.3834,137.0041 C25.3834,137.1501 25.5074,137.2691 25.6534,137.2691 L70.3694,137.2691 L70.3694,157.8721 L25.4684,157.8721 C25.3214,157.8721 25.1974,157.9851 25.1974,158.1371 L25.2034,184.9201 C25.4904,186.8881 25.1364,188.6601 24.1184,190.3691 C22.7404,192.6351 20.4464,193.8781 17.8034,193.7991 L0.0004,193.7991 C1.1864,192.7141 1.9844,190.7351 2.2104,189.1151 C2.4014,187.6301 2.4854,186.3771 2.4914,184.8861 L2.4914,111.5421 C2.6544,110.5811 2.9464,109.7931 3.4414,108.9501 C4.0264,107.9601 4.6164,107.1901 5.4094,106.3741 C7.5294,104.1981 10.0884,103.0621 13.1194,102.9831 L70.3694,102.9831 Z M281.4454,103.0231 C283.5594,102.9051 285.3704,103.1471 287.3834,103.8211 C289.3294,104.5131 290.8644,105.7951 291.6904,107.6451 C292.3434,109.0511 292.7874,110.2881 293.1924,111.7841 L293.1924,111.7841 L304.8324,148.2341 C304.8834,148.3751 305.0294,148.4591 305.1704,148.4021 C305.2604,148.3861 305.3154,148.3241 305.3444,148.2341 L305.3444,148.2341 L317.0354,111.5931 C317.4624,110.0741 318.0184,108.8371 318.8904,107.5271 C320.5604,104.9971 323.5634,103.0341 326.5994,103.0231 L326.5994,103.0231 L347.5864,103.0231 C348.8684,103.1071 349.9424,103.3991 351.0844,103.9841 C353.0684,104.9971 354.5194,106.3291 355.6944,108.2241 C356.5834,109.6301 357.0504,111.0021 357.1964,112.6551 L357.1964,112.6551 L357.1454,184.8751 C357.0444,186.5961 356.7864,188.0521 356.2794,189.7001 C355.9754,190.6841 355.4984,191.4601 354.7564,192.1691 C353.8454,192.9611 352.9234,193.4621 351.7594,193.7991 L351.7594,193.7991 L331.8294,193.7991 C332.4314,193.0401 333.2974,191.7531 333.5454,190.9031 C334.0344,189.2281 334.0514,186.7361 334.0224,184.8751 L334.0224,184.8751 L333.9724,137.2401 C333.9724,137.1001 333.8534,136.9761 333.7084,136.9761 C333.5844,136.9761 333.4824,137.0491 333.4554,137.1561 L333.4554,137.1561 L315.3704,193.6191 L295.0424,193.6191 L275.9794,134.5411 C275.9294,134.4001 275.7884,134.3161 275.6414,134.3671 C275.5294,134.4001 275.4624,134.5021 275.4624,134.6201 L275.4624,134.6201 L275.4684,184.9481 C275.6314,185.7861 275.6254,186.5281 275.4394,187.3661 C275.1974,188.3781 274.9164,189.2161 274.4944,190.1671 C273.5664,192.4831 271.3064,193.8221 268.8384,193.5241 L268.8384,193.5241 L251.1244,193.5131 C251.9784,192.7531 252.3784,191.6741 252.4234,190.5101 C252.4904,188.5301 252.4794,186.8601 252.3784,184.8751 L252.3784,184.8751 L252.3784,111.5311 C252.6814,108.3151 254.5104,104.8731 257.5134,103.5291 C258.4004,103.1471 259.2274,102.994401 260.2004,103.0231 L260.2004,103.0231 Z M124.6624,102.9611 C124.0504,103.6411 123.5994,104.2771 123.1614,105.0861 C122.7174,105.8741 122.5874,106.6841 122.7564,107.5661 C122.8414,108.0221 122.9314,108.4041 123.0824,108.8371 C123.4144,109.8501 123.7574,110.6821 124.2524,111.6211 L157.8174,193.5461 L132.8494,193.5461 L125.7654,177.0311 C125.7204,176.9301 125.6304,176.8681 125.5164,176.8681 L91.7214,176.8681 C91.6084,176.8681 91.5184,176.9301 91.4734,177.0311 L87.9654,184.7631 C86.6944,187.8841 84.8054,190.2171 82.0204,192.1071 C81.1274,192.6911 80.3004,193.0681 79.2714,193.3721 C78.6524,193.5581 78.1074,193.6251 77.4664,193.5971 L55.9734,193.5971 C57.4984,192.8991 58.6674,192.0391 59.7924,190.8021 C60.1634,190.3691 60.4334,189.9641 60.6864,189.4471 C61.4574,187.9231 62.0144,186.5791 62.5534,184.9601 L92.8904,111.6321 C94.2464,109.5291 95.5284,107.8361 97.1984,105.9691 C98.0814,104.9971 98.9704,104.3161 100.1344,103.7031 C100.8594,103.3101 101.5284,103.0851 102.3484,102.9611 L124.6624,102.9611 Z M211.1034,103.0731 C215.7994,103.0961 219.7804,103.9171 224.1044,105.7441 C233.1184,109.5571 238.4164,117.0811 239.8274,126.7811 C240.5024,131.4031 240.3844,136.5211 239.8664,141.1261 C239.5624,143.7241 239.1364,145.9001 238.4164,148.4021 C237.6794,151.0181 236.7064,153.1211 235.1994,155.3761 C234.3454,156.6291 233.4784,157.5971 232.3144,158.5811 C230.5654,160.0481 228.1254,161.2011 225.9094,161.2911 C225.7684,161.2911 225.6564,161.4151 225.6624,161.5671 C225.6624,161.6171 225.6794,161.6681 225.7074,161.7191 L225.7074,161.7191 L249.0604,193.4221 L220.1684,193.4731 L186.7944,147.4361 L205.6034,147.4361 C208.1294,147.3121 210.2434,146.6261 212.3684,145.2591 C214.1454,144.1181 215.3444,142.6721 216.1414,140.7211 C216.8164,139.0171 217.1034,137.4711 217.0694,135.6441 C217.0814,134.4911 216.9734,133.4951 216.7214,132.3651 C216.0184,129.0591 213.9604,126.5391 210.8504,125.2011 C209.1854,124.4591 207.6564,124.0821 205.8294,124.0031 L205.8294,124.0031 L189.9714,124.0031 C189.1394,123.9691 188.4314,124.0711 187.6424,124.3351 C185.7254,124.9421 184.8484,126.7701 184.8824,128.8171 L184.8824,128.8171 L184.8824,184.8861 C184.9324,186.7811 184.6854,188.3961 184.0604,190.1781 C183.5384,191.5561 182.5824,192.5341 181.2164,193.0801 C180.1024,193.5131 179.0734,193.6481 177.8874,193.5241 L177.8874,193.5241 L159.8244,193.5131 C160.2644,193.0011 160.6234,192.4561 160.8654,191.8091 C161.7034,189.4691 162.0294,187.3551 161.9394,184.8751 L161.9394,184.8751 L161.9284,111.4411 C161.8994,111.3451 161.8894,111.2781 161.8894,111.1881 C161.9054,110.6821 161.9784,110.3891 162.1524,109.8951 C162.2654,109.5961 162.3724,109.3551 162.5184,109.0731 C163.1824,107.8481 163.8624,106.8861 164.7784,105.8461 C165.3414,105.1881 165.9204,104.7211 166.6804,104.3161 C168.3554,103.4611 169.9464,103.0731 171.8194,103.0731 L171.8194,103.0731 Z M108.7314,136.0541 L100.6234,155.5051 L116.4744,155.5951 L108.7314,136.0541 Z M159.156,3.9299 C165.174,6.4259 169.869,9.5309 174.526,14.0789 C179.164,18.6119 182.302,23.2739 184.76,29.2739 C189.624,41.2449 189.107,53.3639 183.252,64.8909 C177.568,76.0089 167.564,84.2919 155.76,88.2169 C143.474,92.3049 131.693,91.8889 119.727,86.9519 C113.709,84.4549 109.014,81.3509 104.353,76.7959 C99.702,72.2689 96.564,67.6129 94.096,61.6079 C89.22,49.6299 89.726,37.5059 95.591,25.9729 C98.538,20.1979 102.035,15.8109 107.006,11.6449 C121.385,-0.4121 141.663,-3.3241 159.156,3.9299 Z M320.961,1.6299 C319.932,2.3379 319.426,3.6819 319.353,4.8969 C319.22925,6.54598333 319.360944,7.99255972 319.79892,9.55628484 L319.926,9.9859 L354.223,90.1009 L329.183,90.1009 L322.766,75.4739 C322.7348,75.3931 322.66712,75.34494 322.583952,75.328908 L322.519,75.3229 L285.591,75.3229 C285.5054,75.3229 285.43068,75.3549 285.381176,75.419412 L285.349,75.4739 L282.616,81.6939 C282.076,83.3299 281.497,84.6689 280.682,86.1759 C279.973,87.3789 279.124,88.2559 277.938,88.9929 C276.620133,89.8898333 275.268293,90.3372733 273.70849,90.401889 L273.371,90.4099 L251.469,90.4099 C252.807,89.5559 253.774,88.5709 254.607,87.2159 C254.927,86.7379 255.169,86.3159 255.427,85.7989 C256.005571,84.6469 256.468061,83.6190633 256.93223,82.4634948 L257.165,81.8739 L288.329,9.9859 C288.661,9.0469 289.021,8.2869 289.549,7.4379 C290.876,5.2789 292.215,3.3499 294.588,2.2199 C295.317778,1.86523333 296.012,1.6836037 296.805514,1.63989451 L297.108,1.6299 L320.961,1.6299 Z M15.0340468,1.58987956 L15.499,1.6299 L56.088,1.6299 C60.879,1.4999 64.961,2.1749 69.46,3.8449 C71.063,4.4519 72.378,5.0769 73.858,5.9489 C80.521,9.8619 84.429,16.3959 85.605,24.1449 C85.936,26.3669 86.088,28.2729 86.088,30.5279 C86.088,33.2659 85.948,35.5939 85.61,38.3269 C85.283,40.8859 84.806,43.0279 84.013,45.4969 C83.187,48.1059 82.113,50.1869 80.476,52.3859 C78.559,54.9609 76.253,56.6539 73.216,57.6819 C72.198,58.0369 71.293,58.2109 70.213,58.2499 C70.073,58.2499 69.96,58.3679 69.96,58.5199 C69.96,58.5539 69.9702222,58.5874556 69.9871111,58.6179 L70.017,58.6609 L93.989,90.0439 L65.141,90.0439 L29.782,44.5349 L50.127,44.5349 C52.837,44.4229 55.115,43.7539 57.454,42.3929 C60.834,40.4309 62.572,36.9659 62.549,32.9069 C62.527,29.2229 61.233,26.0349 58.241,23.9929 C57.438,23.4369 56.7,23.0549 55.795,22.6889 C54.12575,22.0389833 52.592625,21.6974486 50.8366863,21.6057565 L50.352,21.5869 L31.795,21.5869 C29.923,21.5529 27.836,22.0199 26.898,23.8589 C26.5371111,24.5780111 26.3634815,25.2757889 26.3539342,26.0533691 L26.358,26.3489 L26.358,81.7839 C26.329,83.7179 25.491,85.5969 24.513,87.2159 C23.3562692,89.1630154 21.4293831,90.2817284 19.1883968,90.3204531 L18.918,90.3199 L0.316,90.3199 C0.743,89.9039 0.67,90.0049 1.064,89.4929 C1.952,88.2559 2.481,87.0529 2.779,85.5679 C3.00833333,84.3981222 3.07885185,83.3579247 2.99266255,82.2014912 L2.953,81.7619 L2.953,9.8849 C2.919,9.0469 3.043,8.3269 3.359,7.5449 C3.685,6.7359 4.073,6.0829 4.623,5.4029 C5.799,3.9579 7.131,3.0129 8.892,2.3889 C10.9752,1.6805 12.8824356,1.43204667 15.0340468,1.58987956 Z M390.661,1.6299 C390.167,1.9219 389.773,2.2259 389.363,2.6419 C387.951,4.1879 387.051,5.7969 386.461,7.8089 C386.269,8.4269 386.187204,8.98171633 386.203017,9.59866676 L386.219,9.9129 L386.219,70.0539 C386.219,70.1833286 386.305694,70.2848388 386.423035,70.3112003 L386.484,70.3179 L429.456,70.3179 L429.456,90.2809 L359.014,90.2809 C359.795,89.7859 360.38,89.2289 360.926,88.4809 C362.3149,86.5581 362.962848,84.48729 362.888705,82.1492949 L362.871,81.7779 L362.871,9.8959 C362.888,7.5449 363.917,4.5419 365.84,3.2099 C367.119571,2.34261429 368.388796,1.85471633 369.88787,1.66774184 L370.238,1.6299 L390.661,1.6299 Z M202.332,1.6299 L227.49,34.5029 C227.575,34.6099 227.744,34.6329 227.857,34.5539 L227.881625,34.526525 L227.881625,34.526525 L227.907,34.5029 L246.526,10.0479 C247.488,8.5459 248.454,7.3819 249.742,6.1619 C251.013,4.8569 252.289,3.9349 253.92,3.1249 C255.779,2.27432857 257.516423,1.8109051 259.520589,1.65936793 L259.988,1.6299 L284.354,1.6299 C282.931,2.4899 281.812,3.3499 280.619,4.5029 C278.886286,6.00718571 277.560551,7.47180816 276.271893,9.32111501 L275.975,9.7549 L239.423,56.7709 C239.397,56.8049 239.380778,56.8389 239.372852,56.875863 L239.367,56.9339 L239.373,82.0259 C239.451,82.8969 239.384,83.6569 239.159,84.4939 C238.766,85.9509 238.018,87.6319 236.876,88.5319 C235.747786,89.3834 234.585944,89.8563745 233.219935,90.0132746 L232.901,90.0439 L212.679,90.0439 C214.281,89.1049 215.525,87.8119 215.867,85.9109 C216.119,84.65615 216.223234,83.5529938 216.218559,82.3167145 L216.21,81.7779 L216.21,56.2649 C216.21,56.2162333 216.202889,56.1777889 216.186593,56.1442333 L216.155,56.0969 L172.742,1.6299 L202.332,1.6299 Z M123.635,26.4399 C123.336,26.7039 123.095,26.9229 122.808,27.1989 C113.057,36.7079 112.49,52.0819 121.509,62.2829 C126.239,67.6129 132.317,70.3569 139.448,70.3739 C145.897,70.3679 151.413,68.1309 156.041,63.6319 C165.776,54.1229 166.349,38.7879 157.364,28.5819 C148.641,18.6739 133.537,17.7229 123.635,26.4399 Z M304.378,33.3279 L294.364,54.9609 L313.297,54.9609 L304.378,33.3279 Z" fill="#FFFFFF"></path>
    </g>
</svg>