<?xml version="1.0" encoding="UTF-8"?>
<svg width="194px" height="226px" viewBox="0 0 194 226" version="1.1" xmlns="http://www.w3.org/2000/svg" xmlns:xlink="http://www.w3.org/1999/xlink">
    <title>rofo-mark</title>
    <g id="rofo-mark" stroke="none" stroke-width="1" fill="none" fill-rule="evenodd">
        <path d="M20.0088,108.0406 C14.0978,104.7906 10.3828,99.5106 8.6538,91.8976 C7.1378,85.2316 7.9688,79.4926 11.1228,74.8386 C17.8388,64.9276 32.9228,62.4486 33.0668,62.4266 L39.0538,61.1546 C39.0538,61.1546 36.4178,57.2026 35.2628,55.7276 C34.1078,54.2516 28.8028,43.2986 29.8918,31.7346 C30.6938,23.2236 34.5408,16.4776 41.3328,11.6846 C45.1538,8.9886 49.1158,7.9086 53.0168,7.9086 C68.6458,7.9086 83.2558,25.2486 83.4358,25.4646 L87.1548,29.9676 L89.9518,24.8406 C93.3628,18.5896 97.4848,15.0256 102.2058,14.2496 C107.8028,13.3296 114.6548,16.4286 122.0078,23.2176 C133.9038,34.1966 130.3788,56.9606 128.3038,66.2746 C118.8048,62.8946 106.9398,61.3546 92.4028,63.8466 C64.9548,68.5516 57.5758,92.6356 53.6128,109.0576 C44.9608,111.6306 30.3228,113.7126 20.0088,108.0406 L20.0088,108.0406 Z M191.8748,111.0026 C191.5278,110.4796 183.2298,98.3706 158.9478,90.7646 C156.5528,86.8586 149.2458,76.4786 135.6918,69.4766 C138.0048,59.9636 143.1068,31.9346 127.3698,17.4086 C118.0308,8.7866 109.1318,5.0986 100.9218,6.4496 C95.1968,7.3916 90.0808,10.8226 85.9228,16.4596 C74.9878,5.4136 54.6468,-7.3894 36.7738,5.2266 C28.0358,11.3946 22.9248,20.4266 21.9898,31.3476 C21.1828,40.7786 23.6528,50.0696 26.3378,55.9286 C20.1868,57.7676 10.3758,61.8806 4.6068,70.3636 C0.1538,76.9106 -1.0792,84.7446 0.9448,93.6496 C3.1728,103.4546 8.3068,110.6276 16.2008,114.9676 C22.2368,118.2866 29.3898,119.5616 36.4768,119.5616 C41.6798,119.5616 46.8398,118.8696 51.5028,117.7966 C51.3618,118.3266 51.2198,118.8316 51.0778,119.3056 L50.9878,119.6656 C49.0478,129.3656 47.0898,136.9596 46.2368,140.1356 C40.5678,143.1966 21.4798,154.3026 11.9728,169.7506 L9.7098,173.4276 L13.5718,175.3566 C14.0148,175.5796 24.2358,180.5306 50.5898,179.8786 C50.3668,186.6006 51.0858,199.1876 58.3298,208.5026 L59.3708,209.8406 L61.0568,210.0096 C62.4798,210.1536 75.0168,210.8796 100.2518,196.1096 C102.9368,202.8366 108.6548,215.3946 116.6248,223.3636 L118.6798,225.4176 L121.2528,224.0706 C122.5798,223.3746 132.9378,217.8096 138.5388,210.6156 C143.5518,213.1066 153.4478,217.2746 163.5548,217.2746 L167.5068,217.2746 L167.5068,213.3226 C167.5068,212.6746 167.3228,197.8606 151.9488,185.2486 C152.9648,177.2066 156.3188,150.0206 156.8858,137.4036 C163.6008,135.5606 179.6148,129.9156 191.6038,115.7486 L193.5248,113.4776 L191.8748,111.0026 Z" id="Fill-1" fill="#FFFFFF"></path>
        <path d="M92.4024,63.8462 C106.9394,61.3552 118.8044,62.8942 128.3034,66.2752 C130.3794,56.9612 133.9034,34.1972 122.0074,23.2172 C114.6554,16.4292 107.8024,13.3292 102.2064,14.2492 C97.4844,15.0262 93.3624,18.5892 89.9524,24.8402 L87.1554,29.9682 L83.4354,25.4652 C83.2564,25.2482 68.6454,7.9082 53.0164,7.9082 C49.1164,7.9082 45.1534,8.9882 41.3334,11.6842 C34.5414,16.4782 30.6934,23.2232 29.8914,31.7342 C28.8024,43.2982 34.1074,54.2522 35.2624,55.7272 C36.4184,57.2022 39.0534,61.1542 39.0534,61.1542 L33.0664,62.4262 C32.9234,62.4492 17.8394,64.9272 11.1234,74.8392 C7.9684,79.4922 7.1374,85.2322 8.6534,91.8972 C10.3824,99.5102 14.0974,104.7902 20.0084,108.0402 C30.3234,113.7132 44.9614,111.6302 53.6124,109.0572 C57.5764,92.6352 64.9554,68.5522 92.4024,63.8462" id="Fill-3" fill="#CF2E2A"></path>
        <path d="M122.0547,99.3614 C122.0547,105.1824 117.3347,109.9014 111.5147,109.9014 C105.6937,109.9014 100.9747,105.1824 100.9747,99.3614 C100.9747,93.5404 105.6937,88.8214 111.5147,88.8214 C117.3347,88.8214 122.0547,93.5404 122.0547,99.3614" id="Fill-5" fill="#060A0D"></path>
        <path d="M183.3155,113.1363 C180.0255,109.8163 172.3255,103.4933 157.9665,98.7543 C145.4555,107.8003 139.1815,117.8053 139.1815,117.8053 C141.0305,120.5793 149.3635,126.5943 154.1715,129.9363 C159.0825,128.6303 172.6395,124.2163 183.3155,113.1363" id="Fill-7" fill="#F8982A"></path>
    </g>
</svg>