<?xml version="1.0" encoding="UTF-8"?>
<svg width="32px" height="32px" viewBox="0 0 32 32" version="1.1" xmlns="http://www.w3.org/2000/svg" xmlns:xlink="http://www.w3.org/1999/xlink">
    <title>playstore</title>
    <g id="playstore" stroke="none" stroke-width="1" fill="none" fill-rule="evenodd">
        <path d="M18.056,17.7517099 L22.195,21.88 L5.15100961,31.5760402 C4.72710412,31.8127319 4.32102184,31.9443465 3.95001439,31.978716 L18.056,17.7517099 Z M2.02803578,1.76771179 L16.64,16.3397099 L2.20270349,30.8990955 C2.09294389,30.6331995 2.02592733,30.3199028 2.00616085,29.9640576 L2,29.7375311 L2,2.24056083 C2,2.0746384 2.0095225,1.91692235 2.02803578,1.76771179 Z M24.402,11.351 L29.4028602,14.1925504 C31.143898,15.1739848 31.143898,16.7906628 29.4028602,17.7855416 L23.999,20.855 L19.464,16.3317099 L24.402,11.351 Z M4.96447429,0.316956236 L5.15100961,0.417176599 L22.599,10.33 L18.048,14.9197099 L3.18327522,0.0949403372 C3.67799214,-0.0789374914 4.29574963,-0.0191153064 4.96447429,0.316956236 Z" fill="#FFC400" fill-rule="nonzero"></path>
    </g>
</svg>