<?xml version="1.0" encoding="utf-8"?>
<!-- Generator: Adobe Illustrator 25.0.0, SVG Export Plug-In . SVG Version: 6.00 Build 0)  -->
<svg version="1.1" id="Layer_1" xmlns="http://www.w3.org/2000/svg" xmlns:xlink="http://www.w3.org/1999/xlink" x="0px" y="0px"
	 viewBox="0 0 971 206" style="enable-background:new 0 0 971 206;" xml:space="preserve">
<style type="text/css">
	.st0{fill:#FFFFFF;}
</style>
<g>
	<g>
		<path class="st0" d="M389.9,153.9c-2.6,0.1-4.1,0.3-5.7,0.3c-13.3,0-26.7-0.1-40,0.1c-4.2,0.1-6.9-1.2-9.3-4.7
			c-6.5-9.6-13.4-18.9-20.2-28.4c-1.2-1.7-2.6-3.4-4.3-5.5c-1.4,1.6-2.5,2.7-3.5,4.1c-7.3,10.3-14.7,20.5-21.9,30.9
			c-1.7,2.5-3.7,3.6-6.8,3.6c-46-0.1-92.1,0-138.1,0c-5.2,0-5.6-0.5-5.6-6.2c0-33.6,0-67.1,0-100.7c0-7.1-0.1-7.2-7.2-7.2
			c-11.2,0-22.4,0.1-33.6-0.1c-4.1-0.1-5.9,1-5.9,5.5c0.1,33.3-0.1,66.5-0.2,99.8c0,1.7,0,3.4-0.1,5.2c0,2.5-1.3,3.6-3.8,3.6
			c-13.6,0-27.2,0-40.9,0c-2.7,0-3.9-1.3-3.9-4c0-1.6,0-3.2-0.1-4.7c0-32.8,0-65.7,0-98.5c0-6.6-0.3-6.8-6.7-6.8
			c-9.2,0-18.4-0.1-27.5,0c-3.5,0-4.9-1.3-4.9-4.8c0.1-8.3,0-16.6,0-24.9c0-6.6,0.3-6.9,6.7-6.9c23.1,0,46.2,0,69.3,0
			c8.7,0,17.5,0.3,26.2-0.1c5.1-0.2,8.2,1.6,10.9,5.8c5.6,8.5,11.6,16.7,17.4,25.1c0.9,1.3,1.8,2.5,3.7,3.5c0.1-1.4,0.4-2.9,0.4-4.3
			c0-7.6,0-15.2,0-22.8c0-6.8,0.3-7.1,7-7.1c29.5,0,59.1,0,88.6,0c15.9,0,31.8,0.2,47.7-0.1c4.9-0.1,7.9,1.6,10.6,5.6
			c6.3,9.4,12.9,18.6,19.5,27.8c1,1.4,2.1,2.7,3.5,4.5c1.4-1.7,2.5-2.9,3.5-4.3c6.9-9.7,13.8-19.4,20.5-29.2c2.1-3,4.4-4.4,8.1-4.4
			c49.3,0.1,98.7,0.1,148,0c3.7,0,6.1,1.3,8.2,4.3c6,8.9,12.3,17.7,18.4,26.5c0.9,1.2,1.9,2.4,3.8,3.3c0.3-5.5,0.6-11,0.7-16.5
			c0.1-4,0.2-8,0-12c-0.2-4.1,1.5-5.6,5.6-5.6c12.9,0.1,25.8,0,38.7,0c10.8,0,21.5-0.2,32.3,0.1c22,0.6,40.6,14.3,45.9,33.9
			c4.8,17.9-0.4,33.2-13.9,45.5c-3,2.8-3.1,4.6-0.9,7.8c13.6,19.2,27,38.5,40.5,57.8c1,1.4,1.8,2.8,3.2,4.9c-1.8,0.3-3,0.7-4.1,0.7
			c-13.9,0-27.8,0.1-41.7-0.1c-2,0-4.8-1.5-6-3.1c-15.2-21.4-30.1-43-45.1-64.5c-0.6-0.8-0.9-1.7-1.7-3.2c2.1-0.2,3.7-0.4,5.3-0.5
			c11-1.3,19.4-10.6,19.5-21.7c0.1-9.6-6.6-16.9-17-18.5c-13-2-13.8-1.3-13.8,11.5c0,31.1,0,62.2,0,93.3c0,6.6-0.2,6.8-6.7,6.8
			c-11.5,0-22.9,0-34.4,0c-5.6,0-6.1-0.4-6.1-6.2c0-33.6,0-67.1,0-100.7c0-7.2,0-7.2-7.2-7.2c-11,0-22.1,0-33.1,0
			c-5.7,0-6.1,0.4-6.1,6.1c0,33.6,0,67.1,0,100.7c0,7.3,0,7.3-7.5,7.3c-11.6,0-23.2,0-34.8,0c-6.8,0-6.9-0.1-6.9-7.1
			c0-33.1,0-66.2,0-99.4c0-7.6,0-7.6-7.7-7.6c-8.5,0-16.9,0-25.4,0c-5.4,0-5.8-0.4-5.8-6c0-7.5,0-14.9,0-22.4c0-1.5,0-3.1-1-5.1
			c-0.8,1-1.7,1.9-2.5,3c-14.8,21.1-29.5,42.3-44.4,63.4c-2.2,3.1-2.1,5.3,0,8.4c15.9,22.6,31.7,45.4,47.4,68.1
			C388.1,150.6,388.7,151.8,389.9,153.9z M233.5,5.9c-0.4,0.1-0.8,0.2-1.2,0.3c-0.1,1.5-0.2,3-0.2,4.6c0,8-0.1,16.1,0,24.1
			c0.1,3.9-1.5,5.5-5.4,5.2c-1.4-0.1-2.9,0-4.3,0c-11,0-22.1,0.1-33.1-0.1c-4.1-0.1-5.8,1.4-5.4,5.6c0.2,2.8,0,5.7,0.1,8.6
			c0,5.9,0.3,6.2,6.4,6.2c12.2,0,24.4,0.1,36.6,0c3.6,0,5.2,1.3,5.2,5c-0.1,8.9-0.2,17.8,0,26.7c0.1,3.9-1.4,5.3-5.3,5.3
			c-10-0.2-20.1-0.2-30.1,0c-15.9,0.2-13.7-2.5-13.8,13.9c0,5.6,0.5,6,6.3,6c12.6,0,25.2,0.1,37.9,0c3.6,0,5.2,1.3,5.1,5.1
			c-0.1,8.3,0,16.6,0,24.9c0,1.5,0.2,2.9,0.3,5.3c1.3-1.5,1.9-2.1,2.4-2.7c16-22.4,31.9-44.8,48-67.2c2.1-2.9,1.5-5.1-0.4-7.7
			c-11.1-15.5-22-31.1-33-46.7C244.1,20.8,238.8,13.3,233.5,5.9z"/>
		<path class="st0" d="M922.9,66.4c0-1.7,0-3.3,0-5c0-17.2,0-34.4,0-51.6c0-6,0.4-6.4,6.3-6.4c11.6,0,23.2,0.1,34.8-0.1
			c4.1-0.1,5.5,1.5,5.5,5.6c-0.1,46.6-0.1,93.2,0,139.7c0,4.1-1.5,5.6-5.5,5.5c-8.9-0.2-17.8-0.2-26.7,0c-3.5,0.1-5.8-1.2-7.8-4.1
			c-15.7-22.6-31.6-45.1-47.4-67.6c-0.9-1.2-1.8-2.4-2.7-3.6c-0.4,0.1-0.8,0.2-1.2,0.3c0,1.8,0,3.5,0,5.3c0,21.1,0,42.1,0,63.2
			c0,6.1-0.3,6.4-6.3,6.4c-10.8,0-21.5-0.1-32.2,0.1c-4.1,0.1-5.6-1.5-5.5-5.5c0.1-46.4,0-92.9,0.1-139.3c0-5.3,0.6-5.9,6-5.9
			c10.6-0.1,21.2,0.1,31.8-0.1c3.7-0.1,6.1,1.2,8.2,4.3c12.4,17.9,24.9,35.8,37.4,53.6c1.3,1.9,2.7,3.7,4,5.5
			C922,66.6,922.5,66.5,922.9,66.4z"/>
		<path class="st0" d="M741.7,0.1c36.9-2.3,79.6,29.8,79.7,79.6c0.1,44.3-35.6,79.8-80.3,79.8c-43.8,0-79.7-35.8-79.5-79.7
			C661.8,29.5,704.8-2.3,741.7,0.1z M777.7,79.5c-0.1-19.8-16.4-36.1-36.3-36.1c-19.6,0-36.1,16.6-36.1,36.3
			c0,19.9,16.8,36.6,36.5,36.4C761.5,115.9,777.8,99.3,777.7,79.5z"/>
	</g>
</g>
</svg>
