<?xml version="1.0" encoding="UTF-8"?>
<svg width="1112px" height="219px" viewBox="0 0 1112 219" version="1.1" xmlns="http://www.w3.org/2000/svg" xmlns:xlink="http://www.w3.org/1999/xlink">
    <title>uom</title>
    <g id="uom" stroke="none" stroke-width="1" fill="none" fill-rule="evenodd">
        <g id="logo" transform="translate(0.000000, 2.422078)" fill="#FFFFFF" fill-rule="nonzero">
            <g id="Group">
                <g transform="translate(8.885082, 0.000000)">
                    <path d="M16.9620767,57.3051948 L10.7925912,54.2690584 C9.39948163,53.5722403 9.15071205,52.8256494 9.8223899,51.432013 L9.8223899,51.2329221 L8.97657335,50.8347403 L6.21523107,56.6083766 L7.03617066,57.0065584 L7.03617066,56.8323539 C7.6580946,55.7124675 8.05612592,55.3391721 8.62829594,55.3391721 C9.30434216,55.4214332 9.9563092,55.6416612 10.5438217,55.9862175 L15.9918754,58.6490584 C17.4096956,59.2014503 18.4969073,60.3724833 18.943011,61.8277195 C19.3891147,63.2829557 19.1450631,64.8623972 18.2805555,66.1149675 C17.5713874,68.0487961 15.7835579,69.3779586 13.7280722,69.499513 C12.7763621,69.4578771 11.8476584,69.1936505 11.0164839,68.7280357 L4.64798274,65.5674675 C3.5036427,64.9950812 3.35438095,64.4724675 3.97630489,63.2281494 L4.17532055,62.8299675 L3.329504,62.2824675 L0.21988431,68.7031494 L1.04082391,69.1013312 L1.04082391,68.9022403 C1.56324001,67.857013 1.88664046,67.5334903 2.3344257,67.5334903 C2.72028659,67.56855 3.09384522,67.6874545 3.42901183,67.8818994 L10.1209134,71.2166721 C11.069262,71.6993587 12.1167744,71.9549462 13.1807792,71.963263 C16.0714569,71.8304458 18.6007926,69.9768597 19.5990342,67.2597403 C22.1613608,62.2824675 19.9224346,58.7983766 16.9620767,57.3051948 Z" id="Path"></path>
                    <path d="M24.8729492,33.0161039 C24.8729492,32.6676948 25.1217188,32.1699675 25.8182736,31.3487175 L25.9426584,31.174513 L25.2212266,30.5772403 L21.0916516,35.554513 L21.7882065,36.1517857 L21.9374682,35.9775812 C22.7584078,35.0567857 23.1813161,34.733263 23.6042244,34.733263 C24.0234638,34.7942097 24.4094882,34.9960715 24.6988105,35.3056494 L32.1618977,41.5023539 L15.2455666,42.5973539 L12.3847165,45.8574675 L13.0812713,46.4547403 L13.2305331,46.3054221 C13.6716775,45.784862 14.2487214,45.3971487 14.8972892,45.1855357 L24.425164,53.2238312 C25.1465957,53.8459903 25.3704883,54.4183766 24.425164,55.7124675 L24.2261483,55.9613312 L24.9227031,56.5586039 L29.0274011,51.5813312 L28.3059693,50.9840584 L28.1567076,51.158263 C27.3606449,52.0790584 26.9128597,52.4274675 26.4899514,52.4274675 L26.4899514,52.4274675 C26.141674,52.4274675 25.7436427,52.2034903 25.0968418,51.6808766 L17.0864615,44.862013 L35.7690566,43.6923539 L36.4158575,42.945763 L25.3207344,33.6631494 C25.0909878,33.5160452 24.9297158,33.2830087 24.8729492,33.0161039 L24.8729492,33.0161039 Z" id="Path"></path>
                    <path d="M44.5257456,34.7581494 C44.1447955,35.1475064 43.646648,35.4010457 43.107759,35.4798539 C42.7346047,35.4798539 42.3614503,35.2309903 41.8639112,34.6088312 L34.948117,26.2718994 C33.9281617,25.0524675 34.1271774,24.5547403 35.2715174,23.5841721 L35.4456561,23.4348539 L34.8486091,22.7131494 L29.7239559,26.9687175 L30.3210029,27.6655357 L30.4951416,27.6655357 C30.8407624,27.3508809 31.2752552,27.1509387 31.7389895,27.0931494 C32.0872669,27.0931494 32.4106673,27.3171266 32.8584525,27.8397403 L39.8240006,36.2264448 C40.8688329,37.470763 40.8439559,37.8689448 39.8240006,38.7150812 L39.6747389,38.8643994 L40.2469089,39.5861039 L45.3715622,35.3305357 L44.7745152,34.6088312 L44.5257456,34.7581494 Z" id="Path"></path>
                    <path d="M54.4267747,11.3151948 L54.6257903,11.3151948 L54.1531282,10.5188312 L48.6304436,13.6296266 L49.0782288,14.4508766 L49.2772445,14.4508766 C49.7943963,14.0840019 50.3912209,13.8451818 51.0186315,13.7540584 C51.2537214,13.7522724 51.4679744,13.8886668 51.5659246,14.1024675 C51.7813342,14.583085 51.915825,15.0960253 51.9639559,15.6205357 L53.7302199,26.2221266 L44.4013608,19.0050812 C44.0530834,18.7313312 43.8789447,18.5073539 43.9038217,18.2584903 C43.9286986,18.0096266 44.4759917,17.2879221 45.5954548,16.6159903 L45.7695935,16.6159903 L45.2969313,15.8196266 L38.8786763,19.3534903 L39.3513384,20.1498539 L39.5503541,20.1498539 C39.9239787,19.8334404 40.382617,19.6343334 40.8688329,19.5774675 C41.341495,19.5774675 41.7892803,19.8761039 42.560466,20.4733766 L54.4765286,29.7062175 L55.8447613,28.9098539 L53.3073116,14.3264448 C53.083419,12.7088312 53.3073116,11.9373539 54.4267747,11.3151948 Z" id="Path"></path>
                    <path d="M75.2239112,15.5458766 L75.2239112,15.7200812 C75.2239112,18.034513 75.0248955,18.6815584 73.5074011,19.2041721 L69.7758575,20.4733766 C69.5616156,20.5595006 69.3347198,20.6099409 69.1041796,20.6226948 C68.8056561,20.6226948 68.5320096,20.4733766 68.28324,19.7267857 L66.5667299,14.749513 L70.4475353,13.4056494 C70.6772095,13.3095333 70.9207532,13.2507247 71.1689671,13.2314448 C71.5669984,13.2314448 71.9401528,13.4554221 72.4874458,14.6250812 L72.4874458,14.7992857 L73.3332624,14.5255357 L71.5918754,9.54826299 L70.7460588,9.84689935 L70.7460588,10.0459903 C71.0943362,11.464513 70.7460588,11.8378084 70.0992579,12.0866721 L65.9945599,13.5051948 L64.2531729,7.98042208 L69.2285644,6.28814935 C69.3934177,6.26247203 69.5612503,6.26247203 69.7261035,6.28814935 C70.1490118,6.28814935 70.7211818,6.51212662 71.5918754,8.15462662 L71.5918754,8.32883117 L72.4376919,8.03019481 L70.9201975,4.32212662 L58.929504,8.3786039 L59.2280275,9.24962662 L59.9743362,9.00076299 C60.3081822,8.86996461 60.6610606,8.79431923 61.0191684,8.77678571 C61.6410924,8.77678571 61.9644928,9.12519481 62.2878933,10.1206494 L65.7457903,20.3489448 C65.9945599,21.0955357 66.0443138,21.5186039 65.8950521,21.8421266 C65.7457903,22.1656494 65.2233742,22.5140584 64.3029268,22.8375812 L63.4073563,23.1611039 L63.7058798,24.0321266 L76.9404212,19.4779221 L75.9950968,15.3218994 L75.2239112,15.5458766 Z" id="Path"></path>
                    <path d="M99.8520991,15.3716721 C97.9518769,15.4266847 96.1049054,14.7393872 94.7025689,13.4554221 L92.4636427,11.6884903 C91.5415188,10.9383 90.5780997,10.2403879 89.5779156,9.59803571 C91.339915,8.80305768 92.3931254,6.96676834 92.1899962,5.04383117 C91.8417188,2.05746753 89.0057456,0.589172078 84.6025241,1.11178571 C82.9606449,1.31087662 82.4382288,1.38553571 81.3933966,1.55974026 L80.3485644,1.73394481 L78.1842691,2.0823539 L77.9603765,2.0823539 L77.9603765,3.00314935 L78.7315622,3.00314935 L79.2539783,3.00314935 C80.0500409,3.00314935 80.4480722,3.25201299 80.6222109,4.64564935 L81.8909358,15.3467857 C82.0899514,16.9643994 81.6670431,17.2879221 80.2988105,17.4621266 L79.6520096,17.4621266 L79.6520096,18.3829221 L87.587759,17.487013 L87.587759,16.5662175 L86.7916964,16.5662175 L86.1946494,16.5662175 C85.3985868,16.5662175 84.9259246,16.3173539 84.7766628,15.0481494 L84.3040006,10.9916721 L85.3737098,10.9916721 L87.040466,10.7428084 L87.040466,10.7428084 C88.0202649,11.2944961 88.9522496,11.9271534 89.8266852,12.6341721 L91.692457,14.1273539 C93.8799473,16.3308269 97.1055153,17.1447051 100.075992,16.2426948 L100.275007,16.2426948 L100.275007,15.3716721 L99.8520991,15.3716721 Z M89.4037769,5.41712662 C89.6076537,6.47503213 89.3742959,7.57043276 88.756976,8.45326299 C87.9017453,9.40301977 86.7001682,9.96815393 85.4234637,10.0211039 L85.0751863,10.0211039 C84.7355126,10.0416901 84.3949048,10.0416901 84.0552311,10.0211039 L83.1596606,2.25655844 L84.1547389,2.0823539 C87.4136203,1.70905844 89.0803765,2.77917208 89.3789,5.49178571 L89.4037769,5.41712662 Z" id="Shape"></path>
                    <path d="M109.379974,7.20894481 C107.61371,5.9148539 105.971831,4.72030844 106.096215,3.12758117 C106.2206,1.5348539 107.340063,1.03712662 108.907312,1.16155844 C110.670715,1.35000307 112.135154,2.60712504 112.589101,4.32212662 L112.589101,4.47144481 L113.434918,4.47144481 L113.235902,0.838035714 L112.539347,0.838035714 L112.539347,0.838035714 C112.414963,0.987353896 112.365209,0.987353896 112.290578,0.987353896 L112.290578,0.987353896 C111.936767,0.977928241 111.58904,0.893084625 111.270623,0.73849026 C110.489706,0.367504933 109.645577,0.147948453 108.782927,0.0914448052 C106.427158,-0.298127319 104.200967,1.29420087 103.807535,3.65019481 C103.60852,6.13883117 105.797692,7.73155844 107.887356,9.29939935 C109.977021,10.8672403 111.395007,11.9124675 111.270623,13.5549675 C111.143105,14.3541628 110.699377,15.0683678 110.039485,15.5365539 C109.379592,16.0047399 108.559089,16.1874913 107.762972,16.0436039 C105.75745,15.8769115 104.15126,14.3118493 103.93192,12.3106494 L103.93192,12.1364448 L103.03635,12.1364448 L103.061227,16.4417857 L103.807535,16.4417857 L103.807535,16.4417857 C103.890993,16.3336188 104.019237,16.2694724 104.155813,16.2675812 L104.155813,16.2675812 L104.852368,16.4915584 C105.746166,16.8562338 106.682244,17.1070638 107.638587,17.2381494 L108.210757,17.2381494 C110.790742,17.48659 113.097977,15.6312693 113.410041,13.0572403 C113.733441,10.4441721 111.419884,8.72701299 109.379974,7.20894481 Z" id="Path"></path>
                    <path d="M120.176573,2.82894481 L120.375589,2.82894481 C121.694068,3.1773539 121.967714,3.60042208 121.694068,4.77008117 L119.380511,15.4214448 C119.081987,16.8150812 118.758587,17.0639448 118.062032,17.0639448 L117.290846,17.0639448 L117.091831,17.0639448 L116.892815,17.9598539 L123.385701,19.3783766 L123.584717,18.4575812 L123.360824,18.4575812 C122.539884,18.2833766 122.092099,18.0593994 121.893083,17.7358766 C121.700911,17.265323 121.700911,16.7381348 121.893083,16.2675812 L124.20664,5.66599026 C124.480287,4.37189935 124.903195,4.14792208 125.549996,4.14792208 C125.876828,4.15572224 126.201969,4.19742274 126.520198,4.2723539 L126.74409,4.2723539 L126.943106,3.37644481 L120.475097,1.93303571 L120.176573,2.82894481 Z" id="Path"></path>
                    <path d="M146.546148,10.0211039 C146.546148,10.0211039 146.546148,10.0211039 146.37201,10.0211039 C146.231995,10.0443118 146.089116,10.0443118 145.949101,10.0211039 L134.505701,5.49178571 C134.362804,5.4369685 134.228703,5.36150849 134.10767,5.26780844 C134.070301,5.21575676 134.070301,5.14565558 134.10767,5.0936039 L134.10767,4.91939935 L133.28673,4.59587662 L131.172189,8.70212662 L131.993128,9.02564935 L131.993128,8.87633117 C132.863822,7.45780844 133.411115,6.88542208 133.983285,6.88542208 C134.155865,6.85246649 134.33312,6.85246649 134.505701,6.88542208 L138.43626,8.45326299 L133.933531,19.9756494 C133.560376,20.9213312 133.187222,21.1204221 132.764314,21.1204221 C132.385731,21.0972668 132.014664,21.0044648 131.669728,20.8466721 L130.575142,20.4236039 L130.226864,21.2697403 L138.137737,24.4800812 L138.461137,23.6090584 L137.391428,23.1859903 C136.694873,22.9122403 136.321719,22.6384903 136.172457,22.3149675 C136.043463,21.8730678 136.09724,21.3978591 136.321719,20.9959903 L140.899079,9.44871753 L144.829638,10.9916721 C145.600824,11.3151948 145.87447,11.8129221 145.376931,14.0775812 L145.376931,14.2517857 L146.197871,14.5753084 L147.466596,10.1455357 L146.645656,9.84689935 L146.546148,10.0211039 Z" id="Path"></path>
                    <path d="M161.795723,20.3738312 L161.969862,20.3738312 C162.64154,20.8217857 162.989817,21.1701948 162.96494,21.4439448 C162.940063,21.7176948 162.64154,21.9416721 162.06937,22.2403084 L155.974515,25.2017857 L155.974515,18.034513 C155.974515,16.9643994 156.223285,16.9643994 156.34767,16.9643994 C156.830849,17.0624952 157.283178,17.2759388 157.666148,17.5865584 L157.840287,17.5865584 L158.362703,16.8150812 L152.466864,13.0323539 L151.944448,13.8038312 L152.118587,13.8038312 C153.362435,14.6748539 153.660958,15.2223539 153.611204,17.5367857 L153.437066,25.9234903 L151.471786,28.8600812 C150.750354,29.9301948 150.203061,29.9550812 148.98409,29.1836039 L148.387043,28.7854221 L147.889504,29.5568994 L154.083866,33.7129221 L154.606283,32.9414448 L154.158497,32.6179221 C153.536573,32.1948539 153.213173,31.8464448 153.138542,31.4731494 C153.102193,31.0102836 153.254757,30.5524198 153.56145,30.2039448 L155.651115,27.068263 L163.114202,23.4597403 C163.650157,23.1691695 164.246327,23.0072908 164.855589,22.9868994 C165.508944,23.0119325 166.144056,23.2094066 166.696484,23.5592857 L166.870623,23.5592857 L167.393039,22.7878084 L162.318139,19.6023539 L161.795723,20.3738312 Z" id="Path"></path>
                    <path d="M186.423911,42.3733766 C184.70179,39.9306744 181.945903,38.4235529 178.960824,38.292013 C177.028715,38.3078033 175.156406,38.9642342 173.637155,40.1584903 C169.905611,42.9955357 169.557334,48.3709903 172.816215,52.6016721 C174.564931,54.9766945 177.330741,56.3877909 180.279303,56.4092857 L180.279303,56.4092857 C182.23509,56.3987385 184.132701,55.7426342 185.677602,54.5428084 C189.235256,51.3847432 189.568991,45.9428081 186.423911,42.3733766 L186.423911,42.3733766 Z M186.423911,47.3506494 C186.058215,49.5289588 184.840867,51.4720788 183.040645,52.7509903 C181.626055,53.8825394 179.876219,54.5127184 178.065253,54.5428084 C176.41264,54.4866489 174.878915,53.6689655 173.910802,52.3279221 C172.755223,50.682172 172.312249,48.6396305 172.682182,46.6627867 C173.052115,44.6859429 174.203662,42.9420147 175.876081,41.8258766 C177.258473,40.770152 178.938727,40.1779217 180.677334,40.1336039 C182.448315,40.1192352 184.116772,40.963052 185.155186,42.398263 C186.270608,43.7923133 186.773276,45.5792579 186.548296,47.3506494 L186.423911,47.3506494 Z" id="Shape"></path>
                    <path d="M194.981585,55.9613312 L194.135768,56.359513 L194.135768,56.5586039 C194.807446,57.9771266 194.384538,58.3255357 192.89192,59.0472403 L183.836708,63.3774675 C183.332121,63.6693061 182.773535,63.8555718 182.194828,63.9249675 C181.77192,63.9249675 181.498274,63.6761039 181.050488,62.8548539 L181.050488,62.6806494 L180.229549,63.0788312 L183.090399,69.0764448 L183.936215,68.678263 L183.936215,68.4791721 C183.61318,67.9780217 183.480761,67.3774958 183.563061,66.7868994 C183.563061,66.4633766 183.985969,66.214513 184.657647,65.9158766 L189.508654,63.6014448 L191.449057,67.6828084 C191.896842,68.6036039 191.871965,69.2008766 190.578363,69.8728084 L190.379347,69.8728084 L190.752502,70.6442857 L195.105969,68.5787175 L194.732815,67.8072403 L194.533799,67.8072403 C193.613352,68.1805357 193.066059,68.0312175 192.692904,67.2846266 L190.60324,62.9046266 L195.578632,60.4159903 L197.593665,64.7711039 C198.190712,66.0403084 197.966819,66.6624675 196.722972,67.2597403 L196.523956,67.2597403 L196.89711,68.0561039 L200.031607,66.5629221 L194.981585,55.9613312 Z" id="Path"></path>
                </g>
                <path d="M20.6478747,170.538149 L29.852349,153.565649 L29.852349,153.565649 L17.4138702,161.42974 C15.9958837,162.325649 16.4436689,163.545081 17.2646085,164.764513 L16.7670694,165.137808 L12.7370022,159.637922 L13.2345414,159.339286 C14.627651,161.280422 15.224698,161.205763 17.7372707,159.588149 L28.4841163,152.769286 C30.3001342,151.599627 30.7479195,151.201445 29.6533333,149.484286 L30.1259955,149.135877 L33.0365996,153.142581 L24.3296644,169.194286 L42.2908277,165.784854 L45.1019239,169.667127 L44.6292617,170.015536 C43.5844295,168.796104 43.1863982,168.298377 42.3157047,169.020081 L30.9469351,178.551558 C28.6333781,180.492695 28.7826398,180.691786 30.1757494,182.608036 L29.6782103,182.981331 L24.7028188,176.162468 L25.2003579,175.814058 C26.0959284,177.058377 27.3397763,178.028945 28.658255,176.909058 L39.9523937,167.526899 L39.9523937,167.526899 L21.09566,171.160308 L20.6478747,170.538149 Z" id="Path"></path>
                <path d="M53.0127964,188.232354 L48.4603132,184.872695 L55.2019687,180.393149 L53.0127964,188.232354 Z M52.6147651,189.725536 L50.8485011,195.822695 C50.7703439,196.282869 50.601196,196.72282 50.350962,197.116786 C49.8036689,197.863377 49.1319911,197.614513 47.6393736,196.494627 L46.9428188,195.996899 L46.5696644,196.494627 L53.8088591,201.820308 L54.1820134,201.322581 C53.5632375,201.03835 53.0879627,200.512819 52.8670135,199.868532 C52.6460644,199.224246 52.6987541,198.51752 53.0127964,197.913149 L58.2618345,179.248377 L55.9731544,177.556104 L55.7741387,178.302695 L41.3455034,187.859058 C38.8578076,189.526445 38.3105145,189.601104 36.5940045,188.381672 L36.2208501,188.879399 L42.2908277,193.334058 L42.6639821,192.836331 L42.2908277,192.537695 C40.8479642,191.492468 40.3504251,190.72099 40.8728412,190.049058 C41.4007434,189.558169 41.9853428,189.132086 42.6142282,188.779854 L47.2662192,185.718831 L52.6147651,189.725536 Z" id="Shape"></path>
                <path d="M73.5860403,189.202922 C74.116079,189.334046 74.6391611,189.491861 75.1532886,189.675763 C79.9047875,191.368036 80.4023266,194.030877 79.3823714,196.917695 C78.0638926,200.625763 75.3025503,201.247922 71.9192841,200.053377 C71.2709972,199.852998 70.6389451,199.603409 70.0286353,199.306786 L73.5860403,189.202922 Z M69.8047427,199.904058 C70.3022819,200.103149 70.6754362,200.277354 71.3471141,200.526218 C72.0187919,200.775081 72.6904698,200.974172 73.4616555,201.198149 C74.3095042,202.42193 75.0423516,203.72156 75.6508277,205.080422 L76.9693065,207.842808 C78.1982817,211.525144 81.353429,214.231944 85.1787025,214.885649 L85.3777181,214.338149 C83.1196051,213.274025 81.3437401,211.399779 80.4023266,209.087127 L78.8350783,205.77724 C78.1042042,204.239485 77.2731847,202.751397 76.3473826,201.322581 C78.8826227,201.629572 81.3019965,200.173297 82.2183445,197.788718 C83.3378076,194.628149 81.5964206,191.392922 75.8995973,189.377127 C73.9094407,188.655422 73.2626398,188.481218 71.993915,188.083036 C70.7251902,187.684854 68.7847875,187.16224 68.0384787,186.88849 L67.8145861,187.485763 L68.486264,187.70974 C70.2774049,188.356786 70.6008054,189.07849 69.9291275,190.99474 L65.3268904,203.960536 C64.5805817,206.026104 63.784519,206.274968 61.9685011,205.652808 L61.446085,205.453718 L61.2470694,206.05099 L70.0783893,209.112013 L70.2774049,208.539627 L69.5559732,208.290763 C67.8394631,207.668604 67.2672931,206.946899 67.914094,205.105308 L69.8047427,199.904058 Z" id="Shape"></path>
                <path d="M106.970917,199.157468 C108.165011,197.465195 107.592841,196.843036 105.503177,196.668831 L105.503177,196.046672 L112.966264,196.668831 L112.966264,197.29099 C111.233124,197.145876 109.570079,198.00673 108.687427,199.505877 L102.517942,208.216104 L102.095034,213.193377 C101.945772,214.910536 102.517942,215.682013 104.582729,215.831331 L105.005638,215.831331 L105.005638,216.45349 L96.0499329,215.706899 L96.0499329,215.08474 L96.6469799,215.08474 C98.6868904,215.258945 99.3336913,214.562127 99.4580761,212.969399 L99.50783,208.464968 L94.5324385,198.908604 C93.1642058,196.270649 92.442774,195.748036 90.3282327,195.499172 L90.3282327,194.877013 L98.9854139,195.623604 L98.9854139,196.245763 C96.4977181,196.021786 96.2489485,196.643945 97.0947651,198.211786 L101.597494,206.623377 L106.970917,199.157468 Z" id="Path"></path>
                <path d="M134.01217,213.939968 L119.608412,216.428604 L119.608412,215.806445 L120.678121,215.63224 C122.170738,215.383377 122.618523,214.786104 122.344877,213.143604 L119.857181,198.858831 C119.558658,197.141672 118.936734,196.544399 116.896823,196.867922 L116.449038,196.867922 L116.449038,196.245763 L125.952036,194.628149 L125.952036,195.250308 L124.757942,195.449399 C122.668277,195.797808 122.270246,196.121331 122.494139,198.11224 L124.981834,213.044058 C125.131096,213.915081 125.529128,214.188831 126.474452,214.014627 L131.201074,213.218263 C133.091723,212.89474 133.564385,212.048604 135.106756,208.912922 L135.678926,208.912922 L134.01217,213.939968 Z" id="Path"></path>
                <path d="M149.610022,197.614513 L144.385861,199.804513 L144.037584,191.691558 L149.610022,197.614513 Z M150.679732,198.734399 L154.983445,203.388149 C155.332903,203.695573 155.620049,204.067314 155.829262,204.483149 C156.177539,205.329286 155.630246,205.77724 153.913736,206.498945 L153.117673,206.822468 L153.366443,207.394854 L161.700224,203.910763 L161.476331,203.338377 C160.914304,203.726174 160.217656,203.865849 159.549652,203.724668 C158.881647,203.583487 158.301005,203.17386 157.943803,202.591786 L144.659508,188.481218 L142.047427,189.576218 L142.59472,190.123718 L143.365906,207.394854 C143.365906,210.43099 143.365906,210.903831 141.350872,211.749968 L141.599642,212.322354 L148.56519,209.410649 L148.316421,208.838263 L147.818881,209.037354 C146.177002,209.734172 145.331186,209.759058 144.908277,209.037354 C144.757613,208.325906 144.690819,207.599244 144.709262,206.87224 L144.485369,201.39724 L150.679732,198.734399 Z" id="Shape"></path>
                <path d="M186.029888,186.06724 L161.700224,183.180422 L170.631051,194.00599 C172.123669,195.822695 172.845101,195.872468 174.984519,194.00599 L175.38255,194.478831 L169.536465,199.406331 L169.163311,198.908604 L169.163311,198.908604 C170.730559,197.614513 170.780313,196.668831 169.834989,195.524058 L159.610559,183.080877 C158.636525,183.170681 157.71474,183.562153 156.973602,184.200763 L156.724832,183.678149 L160.680268,180.418036 L182.771007,182.906672 L174.48698,172.952127 C173.218255,171.409172 172.546577,171.533604 170.48179,173.126331 L170.083758,172.65349 L175.979597,167.676218 L176.377629,168.149058 C174.48698,169.716899 174.362595,170.363945 175.158658,171.359399 L186.577181,185.51974 L186.029888,186.06724 Z" id="Path"></path>
                <path d="M181.253512,160.88224 C181.452528,160.533831 181.825682,159.737468 182.571991,158.617581 C183.939543,155.876716 186.394549,153.836123 189.338523,152.993263 C191.894398,152.542547 194.52463,153.12428 196.652349,154.610877 C198.879525,155.979344 200.47906,158.16948 201.105324,160.708036 C201.702371,163.495308 201.229709,165.386672 198.866398,169.069854 C197.473289,171.234968 197.025503,171.085649 195.90604,170.339058 L181.253512,160.88224 Z M193.940761,172.329968 C195.532886,173.350308 195.508009,174.29599 194.537808,175.789172 L194.239284,176.262013 L194.7617,176.610422 L200.433647,167.825536 C202.317002,165.397447 203.117516,162.300547 202.646835,159.263506 C202.176154,156.226465 200.475836,153.517438 197.945951,151.773831 C193.418345,148.862127 187.64689,149.683377 183.019776,156.925308 C182.099329,158.368718 181.054497,160.06099 180.134049,161.603945 C179.213602,163.146899 178.392662,164.515649 177.795615,165.585763 L178.318031,165.934172 L178.666309,165.386672 C179.711141,163.769058 180.45745,163.594854 182.248591,164.739627 L193.940761,172.329968 Z" id="Shape"></path>
                <path d="M4.8012528,101.055422 L4.8012528,115.066445 C4.8012528,115.788149 4.95051454,115.98724 5.69682327,115.98724 L7.06505593,115.98724 L7.06505593,116.435195 L0.9950783,116.435195 L0.9950783,115.98724 L2.28868009,115.98724 C3.05986577,115.98724 3.20912752,115.763263 3.20912752,115.041558 L3.20912752,102.996558 C2.28920262,103.778558 1.27856986,104.446998 0.19901566,104.987468 L0,104.589286 C1.47664497,103.572646 2.81466579,102.367972 3.9803132,101.005649 L4.8012528,101.055422 Z" id="Path"></path>
                <path d="M18.7821029,113.000877 C18.8159446,113.87366 18.4928407,114.722561 17.8873056,115.351804 C17.2817705,115.981047 16.4460849,116.336306 15.5729754,116.33565 C14.6812174,116.291251 13.8452501,115.888188 13.2549784,115.218023 C12.6647067,114.547858 12.3702426,113.667486 12.4384787,112.776899 C12.4616344,111.163479 13.438476,109.717207 14.9261745,109.093718 C17.6626398,110.387808 18.7821029,111.408149 18.7821029,113.000877 Z M19.901566,104.589286 C19.6415575,102.435392 17.7057387,100.886152 15.5480984,101.105195 C13.2712914,101.005163 11.3293818,102.73809 11.1697539,105.012354 C11.1697539,106.654854 12.2145861,107.874286 14.4535123,108.894627 C12.0902013,109.840308 10.9458613,111.159286 10.9458613,112.851558 C11.156871,115.195611 13.2007754,116.941876 15.5480984,116.783604 C16.7724897,116.844334 17.96962,116.408514 18.8686148,115.574755 C19.7676097,114.740997 20.2924839,113.579772 20.3244743,112.353831 C20.3244743,110.487354 19.2298881,109.218149 16.6924385,108.073377 C18.8069799,107.22724 19.901566,106.082468 19.901566,104.589286 Z M18.4587025,104.589286 C18.4495574,105.986543 17.6761191,107.266542 16.4436689,107.924058 C13.2345414,106.530422 12.4384787,105.559854 12.4384787,104.240877 C12.4641217,103.48586 12.7923474,102.772916 13.3492158,102.26265 C13.9060842,101.752385 14.6447587,101.487715 15.3988367,101.528263 C16.2147217,101.490699 17.0077545,101.803778 17.5781096,102.388613 C18.1484647,102.973448 18.4417525,103.774268 18.3840716,104.589286 L18.4587025,104.589286 Z" id="Shape"></path>
                <path d="M199.214676,102.797468 L204.936376,102.797468 C205.359284,102.797468 205.508546,102.797468 205.632931,102.498831 L206.080716,102.498831 L205.807069,104.365308 L199.737092,104.365308 L199.538076,108.695536 C200.306096,108.296169 201.160222,108.091101 202.025772,108.098263 C204.773605,108.098263 207.001163,110.326664 207.001163,113.075536 C206.955823,114.486121 206.350051,115.820382 205.318071,116.782682 C204.286091,117.744982 202.913114,118.255863 201.503356,118.202127 C199.562953,118.202127 197.995705,117.530195 197.995705,116.684058 C198.002197,116.479414 198.089742,116.285745 198.239057,116.145709 C198.388371,116.005674 198.587207,115.93076 198.791767,115.937468 C200.085369,115.937468 200.558031,117.62974 202.075526,117.62974 C204.080126,117.370909 205.532896,115.589774 205.384161,113.573263 C205.483584,112.535491 205.135687,111.504581 204.427843,110.73944 C203.719999,109.974299 202.719456,109.547619 201.677494,109.566558 C200.762105,109.597882 199.884687,109.940204 199.189799,110.537127 L198.941029,110.362922 L199.214676,102.797468 Z" id="Path"></path>
                <path d="M217.598747,113.548377 C217.598747,116.285877 216.454407,117.803945 214.762774,117.803945 C213.071141,117.803945 211.454139,116.484968 211.454139,112.403604 C211.397632,111.907482 211.397632,111.406544 211.454139,110.910422 C212.371629,110.098245 213.539004,109.624094 214.762774,109.566558 C216.42953,109.566558 217.598747,110.960195 217.598747,113.548377 Z M217.748009,102.498831 C213.181694,103.367871 209.82513,107.283621 209.662998,111.930763 C209.662998,115.638831 211.727785,118.202127 214.638389,118.202127 C215.922936,118.169624 217.141492,117.626008 218.024048,116.691733 C218.906605,115.757458 219.380286,114.50967 219.340134,113.224854 C219.366796,112.065492 218.930145,110.943369 218.126952,110.107173 C217.32376,109.270976 216.220363,108.789768 215.061298,108.770195 C213.784716,108.797271 212.562731,109.293337 211.628277,110.163831 C212.10831,106.667827 214.558602,103.761244 217.922148,102.697922 L217.748009,102.498831 Z" id="Shape"></path>
            </g>
            <g id="Group" transform="translate(242.306488, 33.418831)">
                <path d="M33.8277405,52.9536364 C33.8277405,58.1548864 35.5691275,59.9715909 41.4152125,59.9715909 L44.9726174,59.9715909 L44.9726174,61.7882955 L14.7471141,61.7882955 L14.7471141,59.9715909 L18.304519,59.9715909 C24.175481,59.9715909 25.8919911,58.13 25.7676063,52.9536364 L25.7676063,5.47045455 L9.05029083,5.47045455 C5.21923937,5.47045455 3.47785235,7.68534091 2.03498881,16.1467045 L0.29360179,16.1467045 L1.8110962,0.567840909 L3.62711409,0.567840909 C3.72755955,1.12669974 4.14620763,1.57472517 4.69682327,1.71261364 C5.31561003,1.91252191 5.96209832,2.01331142 6.61234899,2.01125 L52.833736,2.01125 C54.1770917,2.01125 55.6199553,1.71261364 55.8189709,0.567840909 L57.6349888,0.567840909 L59.1773602,16.1467045 L57.4359732,16.1467045 C55.9931096,7.68534091 54.2517226,5.47045455 50.4206711,5.47045455 L33.8277405,5.47045455 L33.8277405,52.9536364 Z" id="Path"></path>
                <path d="M79.1286801,52.7296591 C79.1286801,58.5032955 81.4422371,59.9467045 86.81566,59.9467045 L89.0297092,59.9467045 L89.0297092,61.7634091 L61.8391946,61.7634091 L61.8391946,59.9467045 L63.4810738,59.9467045 C69.1530201,59.9467045 71.1680537,58.40375 71.1680537,51.9581818 L71.1680537,11.4431818 C71.1680537,5.47045455 69.5261745,3.75329545 63.953736,3.75329545 L61.8391946,3.75329545 L61.8391946,1.98636364 C64.1527517,1.98636364 69.9988367,1.58818182 73.9542729,1.38909091 C77.9097092,1.19 79.8252349,1.09045455 86.0693512,1.09045455 C103.856376,1.09045455 111.817002,8.38215909 111.841879,18.1873864 C111.841879,25.4044318 106.866488,31.4518182 99.08,33.76625 C102.946657,36.8454847 106.611147,40.1705424 110.050738,43.7207955 L117.63821,51.1867045 C123.310157,56.8607955 129.181119,60.3946591 136.569575,60.8923864 L136.569575,62.6344318 C119.752752,63.4059091 115.424161,59.7725 106.866488,51.2115909 L100.522864,44.8655682 C97.4769766,41.711015 94.1458502,38.845163 90.5720805,36.3046591 C88.0843848,36.3046591 86.6415213,36.50375 84.0294407,36.50375 C81.9148993,36.50375 80.6710515,36.50375 79.0540492,36.3046591 L79.1286801,52.7296591 Z M79.1286801,34.6621591 C81.1114944,34.8715893 83.1067956,34.9381245 85.0991499,34.86125 C95.7713647,34.86125 102.786667,30.3319318 102.761856,18.7846591 C102.761856,9.85045455 98.7068456,2.93204545 83.9050559,2.93204545 C82.302082,2.90082087 80.698695,2.96730763 79.1038031,3.13113636 L79.1286801,34.6621591 Z" id="Shape"></path>
                <path d="M155.401432,35.1847727 L149.828993,50.2907955 C148.955393,52.2243773 148.312456,54.2541516 147.913468,56.3381818 C147.913468,58.8268182 150.401163,59.8969318 155.699955,59.8969318 L157.242327,59.8969318 L157.242327,61.7136364 L135.052081,61.7136364 L135.052081,59.8969318 C141.296197,59.8969318 142.365906,58.7272727 145.425772,50.3654545 L162.839642,2.58363636 L161.968949,0.468295455 L170.327606,0.468295455 L190.552573,53.75 C192.468098,58.7272727 194.508009,59.7973864 199.309262,59.7973864 L199.309262,61.6140909 L172.815302,61.6140909 L172.815302,59.7973864 L175.302998,59.7973864 C180.775928,59.7973864 182.766085,59.225 182.766085,56.5123864 C182.664574,55.1452594 182.301421,53.8103786 181.696376,52.5803409 L175.253244,35.1598864 L155.401432,35.1847727 Z M165.178076,8.55636364 L157.018434,30.9540909 L173.636242,30.9540909 L165.178076,8.55636364 Z" id="Shape"></path>
                <path d="M262.571365,62.3109091 L212.81745,10.2486364 L212.81745,51.4853409 C212.81745,58.40375 214.359821,59.8471591 222.519463,59.8471591 L222.519463,61.6638636 L200.130201,61.6638636 L200.130201,59.8471591 L200.503356,59.8471591 C206.448949,59.8471591 208.389351,57.8313636 208.389351,53.4015909 L208.389351,6.1175 C206.013026,4.47857312 203.190619,3.60981188 200.30434,3.62886364 L200.30434,1.81215909 L215.42953,1.81215909 L260.73047,49.09625 L260.73047,10.7961364 C260.73047,4.92295455 258.989083,3.87772727 251.302103,3.67863636 L251.302103,1.86193182 L273.691365,1.86193182 L273.691365,3.67863636 C266.477047,3.67863636 264.959553,4.94784091 264.959553,8.65590909 L264.959553,62.2860227 L262.571365,62.3109091 Z" id="Path"></path>
                <path d="M279.089664,47.0057955 C280.584421,54.8164617 287.385034,60.4840458 295.334318,60.5439773 C301.77745,60.5439773 308.593736,56.7861364 308.593736,49.1957955 C308.593736,35.3589773 277.746309,31.1531818 277.721432,14.3548864 C277.721432,6.36636364 285.01038,0.418522727 294.811902,0.393636364 C302.872036,0.393636364 304.513915,2.88227273 307.872304,2.88227273 C308.592794,2.92833609 309.273694,2.54883433 309.613691,1.91170455 L311.156063,1.91170455 L312.797942,14.1309091 L311.156063,14.1309091 C308.828564,7.52356377 302.682148,3.02569193 295.682595,2.80761364 C289.338971,2.80761364 284.910872,6.46590909 284.935749,11.8413636 C284.935749,25.5039773 315.783177,29.1125 315.808054,46.8067045 C315.808054,56.2386364 307.449396,63.2565909 296.205011,63.2565909 C290.931096,63.2565909 284.189441,60.7679545 282.846085,60.7679545 C282.068354,60.7798563 281.348652,61.1819197 280.930559,61.8380682 L279.28868,61.8380682 L277.273647,47.2297727 L279.089664,47.0057955 Z" id="Path"></path>
                <path d="M336.928591,52.3563636 C336.928591,57.7318182 338.57047,59.8222727 344.61557,59.8222727 L347.774944,59.8222727 L347.774944,61.6389773 L321.1566,61.6389773 L321.1566,59.8222727 L322.499955,59.8222727 C327.475347,59.8222727 328.943087,58.7521591 328.943087,54.2477273 L328.943087,8.73056818 C328.943087,5.17181818 327.77387,3.75329545 324.415481,3.75329545 L319.614228,3.75329545 L319.614228,1.93659091 C322.30094,1.93659091 327.077315,1.53840909 331.729306,1.33931818 C336.381298,1.14022727 341.058166,1.04068182 343.645369,1.04068182 C363.721074,1.04068182 368.348188,10.6468182 368.348188,18.0380682 C368.348188,29.2867045 359.317852,36.4042045 345.11311,36.4042045 C342.373748,36.4331178 339.638909,36.1745444 336.953468,35.6327273 L336.928591,52.3563636 Z M336.928591,33.7164773 C338.629252,34.1582521 340.37225,34.4168807 342.127875,34.4879545 C346.702924,34.7734496 351.184615,33.1060092 354.461322,29.8992205 C357.738028,26.6924319 359.502779,22.2467149 359.317852,17.6647727 C359.317852,10.1988636 356.332617,2.73295455 343.545861,2.73295455 C341.324506,2.67557109 339.102322,2.80878604 336.903714,3.13113636 L336.928591,33.7164773 Z" id="Shape"></path>
                <path d="M409.196152,63.0823864 C390.364295,63.0823864 374.492796,50.9876136 374.368412,33.0196591 C374.368412,13.8820455 389.045817,0.318977273 409.519553,0.318977273 C427.679732,0.318977273 443.252707,12.7621591 443.277584,30.0084091 C443.401969,49.3948864 427.85387,63.0575 409.196152,63.0823864 Z M407.131365,2.70803136 C390.215034,2.70803136 383.498255,18.4860227 383.498255,30.0830682 C383.498255,48.0510227 395.712841,60.7430682 411.186309,60.7182184 C426.659776,60.6932955 434.346756,46.8067045 434.346756,33.1689773 C434.346756,15.2756818 423.002864,2.68318182 407.131365,2.70803136 Z" id="Shape"></path>
                <path d="M465.21906,52.4559091 C465.21906,58.2295455 467.532617,59.6729545 472.90604,59.6729545 L475.120089,59.6729545 L475.120089,61.4896591 L447.929575,61.4896591 L447.929575,59.6729545 L449.571454,59.6729545 C455.2434,59.6729545 457.258434,58.13 457.258434,51.6844318 L457.258434,11.2192045 C457.258434,5.24647727 455.616555,3.52931818 450.044116,3.52931818 L447.929575,3.52931818 L447.929575,1.71261364 C450.243132,1.71261364 456.089217,1.31443182 460.044653,1.11534091 C464.000089,0.91625 465.915615,0.816704545 472.159732,0.816704545 C489.946756,0.816704545 497.907383,8.10840909 497.93226,17.9136364 C497.93226,25.1306818 492.956868,31.1780682 485.17038,33.4925 C489.037037,36.5717347 492.701528,39.8967924 496.141119,43.4470455 L503.728591,50.9129545 C509.400537,56.5870455 515.271499,60.1209091 522.659955,60.6186364 L522.659955,62.3606818 C505.843132,63.1321591 501.514541,59.49875 492.956868,50.9378409 L486.588367,44.7660227 C483.537332,41.6542684 480.206341,38.830186 476.637584,36.3295455 C474.149888,36.3295455 472.707025,36.5286364 470.094944,36.5286364 C467.980403,36.5286364 466.736555,36.5286364 465.119553,36.3295455 L465.21906,52.4559091 Z M465.21906,34.3884091 C467.193628,34.5967338 469.180579,34.6632677 471.164653,34.5875 C481.836868,34.5875 488.85217,30.0581818 488.827359,18.5109091 C488.827359,9.57670455 484.772349,2.65829545 469.970559,2.65829545 C468.367584,2.62694742 466.76419,2.6934345 465.169306,2.85738636 L465.21906,34.3884091 Z" id="Shape"></path>
                <path d="M547.661298,52.6052273 C547.661298,57.8064773 549.402685,59.6231818 555.24877,59.6231818 L558.731544,59.6231818 L558.731544,61.4398864 L528.530917,61.4398864 L528.530917,59.6231818 L532.088322,59.6231818 C537.959284,59.6231818 539.675794,57.7815909 539.551409,52.6052273 L539.551409,5.12204545 L522.834094,5.12204545 C518.978166,5.12204545 517.261655,7.33693182 515.818792,15.7982955 L514.077405,15.7982955 L515.594899,0.219431818 L517.410917,0.219431818 C517.507442,0.771610373 517.914813,1.21794724 518.455749,1.36420455 C519.074916,1.56251004 519.72115,1.6632599 520.371275,1.66284091 L566.592662,1.66284091 C567.936018,1.66284091 569.378881,1.36420455 569.577897,0.219431818 L571.393915,0.219431818 L572.936286,15.7982955 L571.194899,15.7982955 C569.752036,7.33693182 568.010649,5.12204545 564.179597,5.12204545 L547.462282,5.12204545 L547.661298,52.6052273 Z" id="Path"></path>
                <path d="M587.340045,34.8861364 L581.767606,49.9921591 C580.894437,51.9259061 580.251517,53.9556286 579.852081,56.0395455 C579.852081,58.5281818 582.339776,59.5982955 587.638568,59.5982955 L589.18094,59.5982955 L589.18094,61.415 L566.990694,61.415 L566.990694,59.5982955 C573.23481,59.5982955 574.279642,58.4286364 577.364385,50.0668182 L594.778255,2.285 L593.907562,0.169659091 L602.266219,0.169659091 L622.416555,53.5011364 C624.332081,58.4784091 626.371991,59.5485227 631.173244,59.5485227 L631.173244,61.3652273 L604.753915,61.3652273 L604.753915,59.5485227 L607.241611,59.5485227 C612.714541,59.5485227 614.704698,58.9761364 614.704698,56.2635227 C614.601968,54.8966051 614.238877,53.561952 613.634989,52.3314773 L607.191857,34.9110227 L587.340045,34.8861364 Z M597.116689,8.25772727 L588.957047,30.6554545 L605.574855,30.6554545 L597.116689,8.25772727 Z" id="Shape"></path>
                <path d="M658.537897,52.5056818 C658.537897,57.7069318 660.279284,59.5236364 666.125369,59.5236364 L669.682774,59.5236364 L669.682774,61.3403409 L639.432394,61.3403409 L639.432394,59.5236364 L642.989799,59.5236364 C648.860761,59.5236364 650.577271,57.6820455 650.452886,52.5056818 L650.452886,5.0225 L633.73557,5.0225 C629.879642,5.0225 628.163132,7.23738636 626.720268,15.69875 L624.978881,15.69875 L626.496376,0.119886364 L628.387025,0.119886364 C628.483549,0.672064918 628.89092,1.11840178 629.431857,1.26465909 C630.050644,1.46456736 630.697132,1.56535688 631.347383,1.56329545 L677.6434,1.56329545 C678.986756,1.56329545 680.42962,1.26465909 680.628635,0.119886364 L682.444653,0.119886364 L683.987025,15.69875 L682.245638,15.69875 C680.802774,7.23738636 679.061387,5.0225 675.230336,5.0225 L658.51302,5.0225 L658.537897,52.5056818 Z" id="Path"></path>
                <path d="M712.371633,61.2159091 L689.01217,61.2159091 L689.01217,59.3992045 C694.957763,59.1005682 696.226488,57.5576136 696.201611,51.1369318 L696.201611,10.2984091 C696.201611,5.09715909 694.360716,3.65375 688.987293,3.38 L688.987293,1.48863636 L712.346756,1.48863636 L712.346756,3.30534091 C706.301655,3.30534091 704.187114,4.64920455 704.187114,11.0947727 L704.187114,51.9084091 C704.187114,57.5825 705.729485,59.49875 712.371633,59.3743182 L712.371633,61.2159091 Z" id="Path"></path>
                <path d="M754.065414,62.8335227 C735.233557,62.8335227 719.362058,50.73875 719.237673,32.7707955 C719.237673,13.6331818 733.915078,0.0701136364 754.388814,0.0701136364 C772.548993,0.0701136364 788.121969,12.5132955 788.146846,29.7595455 C788.27123,49.1460227 772.673378,62.8086364 754.065414,62.8335227 Z M752.000626,2.45920455 C735.084295,2.45920455 728.367517,18.2371591 728.367517,29.8342045 C728.367517,47.8021591 740.582103,60.4942045 756.05557,60.4693547 C771.529038,60.4444318 779.216018,46.6076136 779.191201,32.9698864 C779.216018,15.0268182 767.872125,2.45920455 752.000626,2.45920455 Z" id="Shape"></path>
                <path d="M856.210201,61.8878409 L806.456286,9.82556818 L806.456286,51.0622727 C806.456286,57.9806818 807.998658,59.4240909 816.1583,59.4240909 L816.1583,61.2159091 L793.769038,61.2159091 L793.769038,59.3992045 L794.142192,59.3992045 C800.112662,59.3992045 802.028188,57.3834091 802.028188,52.9536364 L802.028188,5.66954545 C799.651863,4.03061858 796.829456,3.16185733 793.943177,3.18090909 L793.943177,1.48863636 L809.018613,1.48863636 L854.319553,48.7727273 L854.319553,10.3730682 C854.319553,4.49988636 852.578166,3.45465909 844.891186,3.25556818 L844.891186,1.48863636 L867.280447,1.48863636 L867.280447,3.30534091 C860.06613,3.30534091 858.548635,4.54965909 858.548635,8.28261364 L858.548635,61.9127273 L856.210201,61.8878409 Z" id="Path"></path>
                <path d="M3.45297539,131.320795 C4.94773198,139.131462 11.7483451,144.799046 19.6976286,144.858977 C26.1407606,144.858977 32.957047,141.101136 32.957047,133.510795 C32.957047,119.673977 2.10961969,115.468182 2.08474273,98.6698864 C2.08474273,90.6813636 9.37369128,84.7335227 19.1752125,84.7086364 C27.2353468,84.7086364 28.877226,87.1972727 32.2356152,87.1972727 C32.9561051,87.2433361 33.6370047,86.8638343 33.9770022,86.2267045 L35.5193736,86.2267045 L37.1612528,98.4210227 L35.5193736,98.4210227 C33.1918745,91.8136774 27.0454594,87.3158056 20.045906,87.0977273 C13.7022819,87.0977273 9.27418345,90.7560227 9.2990604,96.1314773 C9.2990604,109.794091 40.1464877,113.402614 40.1713647,131.096818 C40.1713647,140.52875 31.8127069,147.546705 20.5931991,147.546705 C15.3192841,147.546705 8.57762864,145.058068 7.23427293,145.058068 C6.45654184,145.06997 5.73684012,145.472033 5.3187472,146.128182 L3.67686801,146.128182 L1.66183445,131.519886 L3.45297539,131.320795 Z" id="Path"></path>
                <path d="M86.6663982,124.253068 L84.8503803,124.253068 C84.0791946,117.434205 82.3626846,116.662727 78.3077405,116.787159 L62.0630872,116.787159 L62.0630872,137.268636 C62.0630872,141.698409 63.7049664,142.544545 67.2623714,142.544545 L82.0641611,142.544545 C88.7809396,142.544545 90.7959732,140.055909 93.209038,131.669205 L94.9504251,131.669205 L93.5324385,145.829545 L42.3854139,145.829545 L42.3854139,144.0875 L45.0721253,144.0875 C52.7591051,144.0875 54.1024609,141.972159 54.1024609,136.198523 L54.1024609,95.6088636 C54.1024609,90.2334091 52.858613,87.9189773 46.415481,87.9189773 L44.3009396,87.9189773 L44.3009396,86.1022727 L90.4228188,86.1022727 L91.1940045,99.46625 L89.4526174,99.46625 C88.2087696,91.3035227 85.7957047,89.5117045 82.3378076,89.5117045 L62.0630872,89.5117045 L62.0630872,113.15375 L79.2530649,113.15375 C82.710962,113.15375 84.2284564,111.51125 84.8255034,105.936705 L86.6415213,105.936705 L86.6663982,124.253068 Z" id="Path"></path>
                <path d="M115.9217,136.820682 C115.9217,142.594318 118.235257,144.037727 123.60868,144.012841 L125.872483,144.012841 L125.872483,145.829545 L98.50783,145.829545 L98.50783,144.012841 L100.149709,144.012841 C105.821655,144.012841 107.836689,142.469886 107.836689,136.024318 L107.836689,95.5839773 C107.836689,89.61125 106.19481,87.8940909 100.622371,87.8940909 L98.50783,87.8940909 L98.50783,86.1022727 C100.821387,86.1022727 106.667472,85.7040909 110.622908,85.505 C114.578345,85.3059091 116.49387,85.2063636 122.737987,85.2063636 C140.525011,85.2063636 148.485638,92.4980682 148.510515,102.303295 C148.510515,109.520341 143.535123,115.567727 135.748635,117.882159 C139.615025,120.961708 143.279496,124.286748 146.719374,127.836705 L154.306846,135.302614 C159.978792,140.976705 165.849754,144.510568 173.23821,145.008295 L173.23821,146.750341 C156.421387,147.521818 152.092796,143.888409 143.535123,135.3275 L137.191499,128.981477 C134.146495,125.825989 130.815278,122.960059 127.240716,120.420568 C124.75302,120.420568 123.310157,120.619659 120.698076,120.619659 C118.583535,120.619659 117.339687,120.619659 115.722685,120.420568 L115.9217,136.820682 Z M115.9217,118.753182 C117.904509,118.962698 119.899816,119.029233 121.89217,118.952273 C132.564385,118.952273 139.579687,114.422955 139.554876,102.900568 C139.554876,93.9663636 135.499866,87.0479545 120.698076,87.0479545 C119.095085,87.0151004 117.491598,87.0815913 115.896823,87.2470455 L115.9217,118.753182 Z" id="Shape"></path>
                <path d="M184.308456,147.347614 L163.411812,95.36 C160.924116,89.3126136 159.854407,87.8940909 153.983445,87.8940909 L153.983445,86.1022727 L180.402774,86.1022727 L180.402774,87.9189773 C171.571454,88.1180682 169.456913,90.1338636 171.272931,94.5636364 L188.686801,137.617045 L203.836868,97.7988636 C204.705631,95.9123053 205.252202,93.8934346 205.45387,91.8261364 C205.45387,88.9393182 202.966174,87.7945455 196.523043,87.7945455 L196.523043,86.1022727 L218.912304,86.1022727 L218.912304,87.9189773 C213.936913,87.9189773 211.324832,90.2334091 208.961521,96.18125 L189.209217,147.422273 L184.308456,147.347614 Z" id="Path"></path>
                <path d="M245.03311,145.829545 L221.673647,145.829545 L221.673647,144.012841 C227.619239,143.714205 228.887964,142.17125 228.863087,135.750568 L228.863087,94.7378409 C228.863087,89.5365909 227.022192,88.0931818 221.64877,87.8194318 L221.64877,86.1022727 L245.008233,86.1022727 L245.008233,87.9189773 C238.963132,87.9189773 236.848591,89.2628409 236.848591,95.7084091 L236.848591,136.347841 C236.848591,142.021932 238.390962,143.938182 245.03311,143.81375 L245.03311,145.829545 Z" id="Path"></path>
                <path d="M308.917136,101.681136 C305.608905,92.5049855 296.744446,86.5260074 287.000537,86.8986364 C270.954899,86.8986364 260.979239,98.5454545 260.979239,114.696705 C260.979239,132.117159 273.417718,144.858977 288.095123,144.858977 C298.010492,145.082116 307.153912,139.527961 311.529217,130.623977 L313.345235,130.623977 C311.853657,135.527228 309.791314,140.238165 307.200626,144.659886 C301.056018,143.788864 296.826935,147.148523 285.483043,147.148523 C265.979508,147.148523 251.948904,134.282273 251.924027,116.513409 C251.924027,97.8735227 266.327785,84.3851136 286.40349,84.3851136 C298.518568,84.3851136 303.81736,88.2176136 306.67821,88.2176136 C307.723043,88.2176136 308.220582,87.9189773 308.419597,87.6452273 L309.961969,87.6452273 L310.832662,101.581591 L308.917136,101.681136 Z" id="Path"></path>
                <path d="M359.168591,124.053977 L357.352573,124.053977 C356.581387,117.235114 354.864877,116.463636 350.809933,116.463636 L334.56528,116.463636 L334.56528,136.945114 C334.56528,141.374886 336.207159,142.221023 339.764564,142.221023 L354.566353,142.221023 C361.283132,142.221023 363.298166,139.732386 365.71123,131.345682 L367.452617,131.345682 L365.935123,145.680227 L314.93736,145.680227 L314.93736,143.863523 L317.624072,143.863523 C325.311051,143.863523 326.654407,141.748182 326.654407,135.974545 L326.654407,95.4346591 C326.654407,90.0592045 325.410559,87.7447727 318.967427,87.7447727 L316.852886,87.7447727 L316.852886,85.9280682 L362.974765,85.9280682 L363.745951,99.2920455 L362.029441,99.2920455 C360.760716,91.1293182 358.372528,89.3375 354.914631,89.3375 L334.639911,89.3375 L334.639911,112.979545 L351.829888,112.979545 C355.287785,112.979545 356.80528,111.337045 357.402327,105.7625 L359.218345,105.7625 L359.168591,124.053977 Z" id="Path"></path>
                <path d="M375.338613,131.047045 C376.83337,138.857712 383.633983,144.525296 391.583266,144.585227 C398.026398,144.585227 404.842685,140.827386 404.842685,133.237045 C404.842685,119.400227 373.995257,115.194432 373.97038,98.3961364 C373.97038,90.4076136 381.259329,84.4597727 391.06085,84.4348864 C399.120984,84.4348864 400.762864,86.9235227 404.121253,86.9235227 C404.841743,86.9695861 405.522642,86.5900843 405.86264,85.9529545 L407.405011,85.9529545 L409.04689,98.1472727 L407.405011,98.1472727 C405.077512,91.5399274 398.931097,87.0420556 391.931544,86.8239773 C385.587919,86.8239773 381.159821,90.4822727 381.184698,95.8577273 C381.184698,109.520341 412.032125,113.128864 412.057002,130.823068 C412.057002,140.255 403.698345,147.272955 392.45396,147.272955 C387.180045,147.272955 380.438389,144.784318 379.095034,144.784318 C378.317302,144.79622 377.597601,145.198283 377.179508,145.854432 L375.537629,145.854432 L373.497718,131.246136 L375.338613,131.047045 Z" id="Path"></path>
            </g>
        </g>
        <g id="Group" transform="translate(39.803132, 41.062500)" fill="#FFFFFF" fill-rule="nonzero">
            <path d="M68.1151706,26.5409551 C68.6984751,33.1049537 74.8616281,33.9213625 77.8619462,31.8398954 C76.9032199,36.4670379 80.3601658,40.3564199 84.0637073,40.9489339 C89.1730734,41.7696926 92.7659926,36.6192011 89.1062391,31.0836907 C92.9660475,30.8192616 96.817794,30.4479334 100.657048,29.9701332 C103.10964,35.0298857 105.127327,40.2892705 106.688266,45.6913516 C102.696646,44.2481073 100.403539,47.3536186 99.9679633,50.8510652 C99.1429055,57.449412 104.791555,64.5803298 109.811041,61.1105492 C108.239283,67.2501011 111.237607,73.1936854 114.793652,73.7562279 C115.073895,73.8023379 115.432311,73.7761474 115.745004,73.7638268 L115.919832,73.7590773 L115.921499,73.7833686 C115.930425,73.7820071 115.93935,73.7806452 115.948272,73.7792829 C115.966709,74.5354876 115.975928,75.2916922 115.980661,76.0502024 C115.998974,87.7759858 113.954767,98.4550712 110.345715,107.462668 C107.918939,102.521977 106.275737,99.891399 100.726187,93.0694185 C101.279298,88.2347807 101.571986,83.1073442 101.562768,77.7470519 C101.562768,77.009277 101.554046,76.2736833 101.545086,75.5381492 C91.372281,76.44112 79.8129884,76.934423 67.896207,76.9241672 L67.9013326,79.1349641 C67.9090257,84.5452572 67.9258449,89.7045944 67.9505664,94.5542799 L67.7883983,94.4019986 C78.0647464,104.131217 79.2954265,105.147944 83.4990728,109.396984 C81.1737004,126.114179 76.870955,136.597297 71.7477611,136.81632 L71.3121859,136.832458 C70.3649827,136.86243 69.7772946,136.873957 69.3832027,136.873957 L68.664158,136.876263 C68.4343568,136.86829 68.2221648,131.226318 68.0584717,121.567372 C66.8062895,117.405757 61.0814464,116.286151 57.6180707,117.848954 C58.770386,113.224117 53.3844642,109.837335 49.3098772,109.627534 C44.5669473,109.383151 41.7161192,112.970512 45.2721643,117.350966 C40.8426642,117.014363 36.7980374,116.59015 33.1958998,116.089856 C30.8451765,111.92612 28.8747173,107.227506 27.3582703,102.083931 C30.1676151,103.720838 32.8502052,102.966939 33.8826797,100.251057 C36.1250853,94.3604996 29.725126,85.5534818 24.6295877,87.5200751 C26.0054522,83.1188717 24.5327932,75.2939977 19.1768316,73.5256777 L19.2229258,73.5408017 C19.2236704,73.5111619 19.2244379,73.4815284 19.2252288,73.4519016 C22.4502616,74.1446716 27.5302371,74.7202179 33.233045,75.1873 L33.2304692,75.3401078 C33.3224872,69.3120038 33.8221973,63.2970395 34.7261745,57.3364424 C38.894535,63.542222 41.4715708,67.2299047 49.6630467,76.2094353 C49.740107,76.2147209 49.8145266,76.2182244 49.8888586,76.2217113 L49.8860349,76.4536653 C49.9782201,64.2160605 50.9692113,52.2804764 52.6262407,41.5944745 C57.3594007,47.5362 60.9344523,50.5649519 67.9018304,57.771373 C67.9351368,46.6872088 68.0057633,36.3144608 68.104775,27.4665359 L68.1151706,26.5409551 Z M32.5022059,119.891629 L34.2554387,120.04722 C38.4503287,120.465678 42.6153243,121.16976 46.8140866,121.549907 L47.3998316,121.596077 L46.7168126,121.545304 C41.3077334,121.126739 36.5245759,120.562023 32.5022059,119.891629 Z M24.3798316,105.099077 L24.3701165,105.074328 C26.2802529,109.885031 28.7691609,114.454284 31.9207163,119.073576 L32.2698316,119.581077 L32.1358404,119.403372 C29.100634,115.309043 26.5126799,110.5783 24.4671623,105.326364 L24.3798316,105.099077 Z M19.1998316,75.5570773 L19.2000173,75.543258 C19.3048939,81.31492 19.7398831,86.5038389 20.5614274,91.3061643 C19.6792448,86.3951612 19.2082752,81.2024217 19.1998779,75.7896807 L19.1998316,75.5570773 Z M114.146832,57.2140773 L114.125164,57.0937291 C115.012983,61.7099412 115.593116,66.4602955 115.829907,71.2885251 L115.837935,71.4511753 C115.532999,66.685477 115.031556,62.2610249 114.298466,58.0594266 L114.146832,57.2140773 Z M68.7678737,0.0700772838 C61.9254253,3.92948769 55.9495181,20.2501366 52.6354592,41.5483644 C47.9778007,35.0675982 45.9819905,31.7038707 44.0599286,25.7164819 C50.452974,12.224684 59.1598686,2.64993406 68.7678737,0.0700772838 Z M101.680832,25.0100773 L101.281603,24.3839018 C104.215291,28.9129009 106.79019,33.9191461 108.930079,39.2794565 L109.123832,39.7740773 L108.747692,38.85539 C106.885251,34.3811419 104.620496,29.9496619 101.895616,25.3661707 L101.680832,25.0100773 Z" id="Combined-Shape"></path>
            <path d="M68.1248817,123.289939 C67.5372009,125.666912 64.2093143,127.935526 59.4963446,126.015043 C61.6972669,128.919975 59.7890327,131.432972 55.9172532,130.727489 C52.9027964,130.181085 49.3306189,127.758002 49.0494539,125.330308 C45.6539744,125.081058 42.2668939,124.728151 38.8929467,124.272083 C41.7691257,127.612755 44.9702577,130.34247 48.4364222,132.369006 C48.8512557,132.198399 49.491943,132.239898 51.5453689,132.959215 C54.1703432,133.87911 56.6224702,135.223218 59.2451399,136.156946 L59.2428353,136.166168 C57.1894094,135.850314 56.9243768,135.811121 55.4655456,135.529849 C50.5198083,134.107355 41.3151135,131.458333 32.4814643,119.887018 L32.4791596,119.884713 L32.4814643,119.884713 L32.4814643,119.887018 C43.1242486,121.528536 53.4835633,122.23863 68.2378086,122.333156 C68.2032392,122.621344 68.1963253,123.010973 68.1248817,123.289939 L68.1248817,123.289939 Z" id="Path"></path>
            <path d="M32.4814643,119.887018 C24.6411108,118.47144 21.2509991,117.36941 19.0454676,115.520397 C17.4575771,113.724411 15.3534493,111.312856 13.8715718,109.426955 C14.1435182,109.76817 14.3186702,109.994109 15.0515427,110.844839 C14.332498,109.947999 10.7487973,105.366966 10.488374,103.349652 C12.4380916,103.036104 18.7136008,112.829876 18.7758258,112.929013 C20.6794507,113.639108 23.1592333,114.307703 26.1506439,114.911745 C23.2406932,110.488074 20.894835,105.717908 19.167613,100.712158 C14.8925232,102.874719 9.43746247,91.5731476 11.1659355,86.8053694 C11.5162393,85.8324476 12.6524222,83.8082168 15.5470383,85.9984437 C13.3645531,80.9678383 13.9384061,73.5141502 19.2044871,73.5256643 C19.3243279,90.1898464 21.6266539,104.451682 32.4814643,119.887018 Z" id="Path"></path>
            <path d="M102.233415,128.246769 C97.5711474,130.646796 96.6032026,131.144785 91.6113726,133.021463 C90.1387136,133.501008 88.177473,134.116577 86.6909862,134.538484 C96.2966867,131.947099 104.826125,126.455393 111.569474,118.810349 C110.133689,121.991942 109.151916,123.808677 104.127822,127.147044 C103.503267,127.527452 102.874103,127.891721 102.233415,128.246769 Z" id="Path"></path>
            <path d="M104.130126,127.14935 C108.262329,124.290527 110.009239,122.600594 111.571779,118.810349 C121.447121,107.617136 127.482949,91.8106143 127.457598,73.7654499 C127.455332,73.0090779 127.441503,72.2527848 127.416114,71.4968359 C130.536584,70.6760772 133.046327,69.7746259 134.816283,68.8086205 C134.83933,69.5625197 134.85324,70.3187244 134.85324,71.0772345 C134.890031,95.2896169 122.624787,115.974581 104.130126,127.14935 L104.130126,127.14935 Z" id="Path"></path>
            <path d="M85.3654645,76.5110205 C94.7574681,86.2777253 96.7463642,88.5647823 100.721578,93.1247505 C99.4343045,104.229692 96.7438108,113.794393 93.0425482,121.106629 C90.6803018,117.392465 89.2445169,115.423566 83.4944635,109.436177 C84.7090038,100.725991 85.3888699,90.3189545 85.3750421,78.7845278 L85.3612143,76.5113028 Z" id="Combined-Shape"></path>
            <path d="M79.3991348,136.069337 C78.8898115,136.145419 78.2099454,136.244555 77.6983174,136.309109 C76.0873806,136.500466 76.0873806,136.500466 75.2577136,136.581158 L74.9972903,136.604213 C82.100162,135.9702 88.389499,130.312498 93.0609853,121.062824 C94.9162129,124.76546 95.5131123,126.455393 94.4253266,129.530933 C89.8921182,132.973048 84.8242354,135.227829 79.3991348,136.069337 Z" id="Path"></path>
            <path d="M86.6909862,134.538484 L85.0293475,134.96039 C82.2707046,135.580571 82.2707046,135.580571 80.7796086,135.843398 L79.4383136,136.064726 C92.8374361,133.973636 104.060987,123.303772 110.424073,107.469584 C112.180201,112.158975 112.733312,114.353813 111.557951,118.821876 C104.819211,126.457699 96.2920774,131.949405 86.6909862,134.538484 L86.6909862,134.538484 Z" id="Path"></path>
            <path d="M27.5795149,22.1567868 C29.9763307,16.780356 31.7347639,14.0944462 36.825693,9.73474182 C46.3046388,4.04245729 57.1871047,0.570371226 68.7655691,0.0723827858 C52.8267436,1.51332156 38.34214,9.79468488 27.5795149,22.1567868 Z" id="Path"></path>
            <path d="M44.5738612,12.4437067 C42.9283549,16.9901567 42.5987928,19.6852886 44.0345777,25.771814 C39.710812,34.909242 36.4471566,45.8426633 34.685318,57.6099006 L34.716956,57.3963854 C29.8242251,49.1795762 28.4207051,45.4838564 26.6807089,38.5558228 C23.6204678,45.7298978 21.3914388,53.5555658 20.1896237,61.7361809 C20.1895015,61.7350494 20.189033,61.7340421 20.1885644,61.7330348 C23.1269685,41.7212771 32.2187364,23.8282758 44.5738612,12.4437067 Z" id="Combined-Shape"></path>
            <path d="M44.6199538,12.3514866 C46.9291937,8.3491351 48.4456407,6.41712439 54.2440914,3.3692507 C58.919074,1.63475663 63.8025482,0.525443085 68.7678737,0.0700772838 C60.0010587,1.43723999 51.7666135,5.81077736 44.6199538,12.3514866 L44.6199538,12.3514866 Z M19.0984741,73.4957062 C14.9893177,72.806361 11.4701467,72.0340179 8.61240471,71.1994261 C9.12864197,52.4902771 16.3190896,35.0814312 27.5887334,22.1452593 C25.8372141,27.9435969 25.4269899,31.2888804 26.6069607,38.5189348 C22.0921893,49.0781341 19.3773344,61.0575227 19.0984741,73.4957062 L19.0984741,73.4957062 Z" id="Shape"></path>
            <path d="M36.8902227,9.69554829 C41.9212314,6.06899358 44.7467085,4.35600557 52.5847573,1.95828345 C57.8871834,0.700375831 63.3183924,0.0666757284 68.7678737,0.0700636626 C57.2170649,0.565760222 46.3576453,4.02401328 36.8902227,9.69554829 L36.8902227,9.69554829 Z" id="Path"></path>
            <path d="M2.21705468,68.6057363 C0.778965157,67.7019795 0.0368740903,66.7613347 0.0668342886,65.8045514 L0.184370451,63.4206623 C2.16174354,33.4468303 23.8437086,8.79409699 52.5824527,1.95828345 C46.0972221,4.01709677 42.4835612,5.54564462 36.887918,9.69554829 C16.7869296,21.7394909 2.97988742,43.7731739 2.21705468,68.6057363 Z" id="Path"></path>
            <path d="M101.373788,24.3539302 L101.426795,24.3447082 L101.459059,24.3400972 C102.125098,24.2294331 102.751957,24.12338 103.353466,24.0150214 C107.278252,23.2910938 115.821517,21.4167206 115.821517,18.8230309 C115.821517,18.8230309 119.628767,22.3043389 122.186907,27.0513676 C122.493423,27.5678001 122.753846,28.1049821 122.952045,28.6490805 C123.156078,29.1314806 123.309767,29.6336698 123.410666,30.1476569 C123.429103,30.1799339 123.45215,30.2075999 123.468282,30.2375714 C123.48211,30.4565941 123.48211,30.6502563 123.472891,30.8300855 L123.459063,31.0491082 C123.311567,32.522324 122.405847,32.5522955 121.424075,32.1165556 C121.320366,32.0773621 121.216658,32.040474 121.103731,31.9874475 C117.58456,30.4012621 116.432245,27.1712537 115.747769,25.8386736 C113.961681,26.4081326 110.997926,27.6922972 108.53658,28.1695361 C108.25311,28.2248682 107.72535,28.3516708 107.432662,28.4070028 C110.492868,33.4820532 113.053781,38.8420819 115.079426,44.411798 C118.531763,40.8636303 123.933817,47.4458386 124.194241,53.8044133 C124.346346,57.5393266 122.668575,60.8638605 119.260026,59.6673049 C121.988709,64.7255764 121.115254,72.144682 115.929835,73.7700609 C115.070208,57.1358637 112.251645,42.3714287 101.30004,24.3862073 L101.295431,24.3862073 L101.373788,24.3539302 L101.373788,24.3539302 Z M101.996038,11.5975875 C101.979556,11.5873633 101.963415,11.5765984 101.947641,11.5653104 L101.989124,11.5676159 C101.975297,11.5168949 101.95686,11.4638684 101.947641,11.4177583 L102.113574,11.1987356 L102.339428,11.1733751 L102.3256,11.1549311 C102.3256,11.1549311 102.821096,9.06153523 110.693714,14.50252 C97.3107242,4.05629031 83.741059,1.08680368 75.6955934,0.298321985 C76.5506114,0.549621707 77.1889941,0.800921429 77.6752711,1.03838814 C78.0947139,1.24588332 78.3943159,1.4441565 78.6017326,1.62629116 L78.6386067,1.61937465 C79.6157701,1.72773325 80.4984437,1.8983404 81.288932,2.09430807 L81.288932,2.09661357 C81.5724015,2.19344466 81.8604804,2.29949775 82.1531685,2.40785635 L82.2614861,2.44935539 C82.5126908,2.54388097 82.7615909,2.64532306 83.0174049,2.74676515 L83.2063847,2.82284672 C83.441457,2.9196778 83.6742247,3.01881439 83.909297,3.12256198 L84.1305415,3.21708756 C84.4278389,3.35080668 84.7297455,3.4868313 85.0316521,3.63207793 L85.0316521,3.64360544 C87.4492097,4.82402248 89.4058411,6.15199166 89.4150596,7.16871806 C89.0555372,7.38774075 88.9472196,7.45460031 87.8801756,7.16871806 C91.9363255,10.0598176 97.7462994,15.5077189 101.180199,19.5192925 C103.542445,19.0720251 107.063921,18.5648146 108.688686,18.0207161 C108.56654,18.1359912 102.70356,13.7209548 101.996038,11.5975875 L101.996038,11.5975875 Z" id="Shape"></path>
            <path d="M101.302344,24.3815963 C101.302344,24.3815963 101.302344,24.3839018 101.302344,24.3815963 C90.1294951,7.90878421 79.8577563,2.98884286 70.5124791,0.572676728 C70.7544653,0.641841789 70.9964515,0.717923356 71.2384377,0.796310425 L69.9662816,0.459707128 L69.6574611,0.358265038 C69.9409307,0.427430099 70.2290095,0.498900663 70.5124791,0.572676728 C70.1833537,0.478474246 69.8521731,0.391612156 69.5191833,0.312154998 L69.2472369,0.215323912 C69.2748924,0.231462426 69.3048526,0.249906443 69.3440314,0.268350459 C69.1273961,0.219934916 68.9107608,0.171519373 68.684907,0.125409333 C70.6853264,2.33408028 73.4854526,3.27011411 74.1607094,3.47299829 C73.9717297,4.30067352 74.1123122,5.95832949 77.0000143,8.04711433 C77.4494173,8.37449562 77.8826879,8.62810085 78.2952168,8.83559603 C82.7523724,11.1618476 83.7318404,9.35202848 83.9438665,8.62348984 C83.971522,8.60274032 83.996873,8.58660181 84.0199193,8.56354679 C85.3796514,9.56874568 88.0253673,11.6990296 90.9522482,15.012036 C92.6346286,17.0362668 94.229433,18.8022813 95.4209271,20.5682959 C92.0922524,20.9636012 88.7540685,21.2741758 85.4096116,21.4997187 C85.2021948,17.1284869 82.0517647,14.9451764 80.0674777,14.2051103 C75.7278582,12.5912588 74.3012919,17.7048624 76.1772612,21.29914 C72.7433616,19.4385999 68.6779931,21.0962559 68.1064447,26.5257132 C81.6853284,26.4496316 90.991427,25.8478956 101.302344,24.3815963 L101.302344,24.3815963 Z" id="Path"></path>
        </g>
    </g>
</svg>